ISO-10303-21;
HEADER;
/* Generated by software containing ST-Developer
 * from STEP Tools, Inc. (www.steptools.com) 
 */
/* OPTION: using custom renumber hook */

FILE_DESCRIPTION(
/* description */ ('STEP AP242 Edition 2',
'CAx-IF Rec.Pracs.---Representation and Presentation of Product Manufa
cturing Information (PMI)---4.0---2014-10-13',
'CAx-IF Rec.Pracs.---3D Tessellated Geometry---0.4---2014-09-14','2;1',
'CAx-IF Rec.Pracs.---User Defined Attributes---1.5---2016-08-15'),
/* implementation_level */ '2;1');

FILE_NAME(
/* name */ 'Part Studio 1 - Part 1',
/* time_stamp */ '2026-09-25T20:54:19Z',
/* author */ (''),
/* organization */ (''),
/* preprocessor_version */ 'ST-DEVELOPER v20',
/* originating_system */ 'ONSHAPE BY PTC INC, 1.221',
/* authorisation */ '  ');

FILE_SCHEMA (('AP242_MANAGED_MODEL_BASED_3D_ENGINEERING_MIM_LF { 1 0 10303 442 3 1 4 }'));
ENDSEC;

DATA;
#10=SHAPE_REPRESENTATION_RELATIONSHIP('','',#1353,#11);
#11=ADVANCED_BREP_SHAPE_REPRESENTATION('',(#1351),#2329);
#12=CYLINDRICAL_SURFACE('',#1369,0.0005);
#13=CYLINDRICAL_SURFACE('',#1370,0.0005);
#14=CYLINDRICAL_SURFACE('',#1371,0.0005);
#15=CYLINDRICAL_SURFACE('',#1372,0.0005);
#16=CYLINDRICAL_SURFACE('',#1413,0.0005);
#17=CYLINDRICAL_SURFACE('',#1416,0.0005);
#18=CYLINDRICAL_SURFACE('',#1419,0.0005);
#19=CYLINDRICAL_SURFACE('',#1422,0.0005);
#20=CYLINDRICAL_SURFACE('',#1425,0.0005);
#21=CYLINDRICAL_SURFACE('',#1428,0.0005);
#22=CYLINDRICAL_SURFACE('',#1431,0.0005);
#23=CYLINDRICAL_SURFACE('',#1434,0.0005);
#24=CYLINDRICAL_SURFACE('',#1437,0.0005);
#25=CYLINDRICAL_SURFACE('',#1440,0.0005);
#26=CYLINDRICAL_SURFACE('',#1443,0.0005);
#27=CYLINDRICAL_SURFACE('',#1446,0.0005);
#28=CYLINDRICAL_SURFACE('',#1449,0.0005);
#29=CYLINDRICAL_SURFACE('',#1452,0.0005);
#30=CYLINDRICAL_SURFACE('',#1455,0.0005);
#31=CYLINDRICAL_SURFACE('',#1458,0.0005);
#32=CYLINDRICAL_SURFACE('',#1461,0.0005);
#33=CYLINDRICAL_SURFACE('',#1464,0.0005);
#34=CYLINDRICAL_SURFACE('',#1467,0.0005);
#35=CYLINDRICAL_SURFACE('',#1470,0.0005);
#36=CYLINDRICAL_SURFACE('',#1473,0.0005);
#37=CYLINDRICAL_SURFACE('',#1476,0.0005);
#38=CYLINDRICAL_SURFACE('',#1479,0.0005);
#39=CYLINDRICAL_SURFACE('',#1482,0.0005);
#40=CYLINDRICAL_SURFACE('',#1485,0.0005);
#41=CYLINDRICAL_SURFACE('',#1488,0.0005);
#42=CYLINDRICAL_SURFACE('',#1491,0.0005);
#43=CYLINDRICAL_SURFACE('',#1494,0.0005);
#44=CYLINDRICAL_SURFACE('',#1497,0.0005);
#45=CYLINDRICAL_SURFACE('',#1500,0.0005);
#46=CYLINDRICAL_SURFACE('',#1517,0.0005);
#47=CYLINDRICAL_SURFACE('',#1520,0.0005);
#48=CYLINDRICAL_SURFACE('',#1523,0.0005);
#49=CYLINDRICAL_SURFACE('',#1526,0.0005);
#50=CYLINDRICAL_SURFACE('',#1529,0.0005);
#51=CYLINDRICAL_SURFACE('',#1532,0.0005);
#52=LINE('',#1971,#116);
#53=LINE('',#1974,#117);
#54=LINE('',#1976,#118);
#55=LINE('',#1978,#119);
#56=LINE('',#1980,#120);
#57=LINE('',#1982,#121);
#58=LINE('',#1984,#122);
#59=LINE('',#1986,#123);
#60=LINE('',#1988,#124);
#61=LINE('',#1990,#125);
#62=LINE('',#1992,#126);
#63=LINE('',#1994,#127);
#64=LINE('',#1996,#128);
#65=LINE('',#1999,#129);
#66=LINE('',#2000,#130);
#67=LINE('',#2002,#131);
#68=LINE('',#2004,#132);
#69=LINE('',#2005,#133);
#70=LINE('',#2007,#134);
#71=LINE('',#2010,#135);
#72=LINE('',#2011,#136);
#73=LINE('',#2013,#137);
#74=LINE('',#2015,#138);
#75=LINE('',#2016,#139);
#76=LINE('',#2018,#140);
#77=LINE('',#2021,#141);
#78=LINE('',#2023,#142);
#79=LINE('',#2024,#143);
#80=LINE('',#2026,#144);
#81=LINE('',#2028,#145);
#82=LINE('',#2030,#146);
#83=LINE('',#2032,#147);
#84=LINE('',#2033,#148);
#85=LINE('',#2035,#149);
#86=LINE('',#2045,#150);
#87=LINE('',#2047,#151);
#88=LINE('',#2049,#152);
#89=LINE('',#2051,#153);
#90=LINE('',#2057,#154);
#91=LINE('',#2059,#155);
#92=LINE('',#2061,#156);
#93=LINE('',#2063,#157);
#94=LINE('',#2065,#158);
#95=LINE('',#2098,#159);
#96=LINE('',#2100,#160);
#97=LINE('',#2102,#161);
#98=LINE('',#2104,#162);
#99=LINE('',#2106,#163);
#100=LINE('',#2259,#164);
#101=LINE('',#2261,#165);
#102=LINE('',#2263,#166);
#103=LINE('',#2265,#167);
#104=LINE('',#2267,#168);
#105=LINE('',#2282,#169);
#106=LINE('',#2284,#170);
#107=LINE('',#2286,#171);
#108=LINE('',#2288,#172);
#109=LINE('',#2290,#173);
#110=LINE('',#2292,#174);
#111=LINE('',#2294,#175);
#112=LINE('',#2296,#176);
#113=LINE('',#2298,#177);
#114=LINE('',#2300,#178);
#115=LINE('',#2301,#179);
#116=VECTOR('',#1547,1.);
#117=VECTOR('',#1548,1.);
#118=VECTOR('',#1549,1.);
#119=VECTOR('',#1550,1.);
#120=VECTOR('',#1551,1.);
#121=VECTOR('',#1552,1.);
#122=VECTOR('',#1553,1.);
#123=VECTOR('',#1554,1.);
#124=VECTOR('',#1555,1.);
#125=VECTOR('',#1556,1.);
#126=VECTOR('',#1557,1.);
#127=VECTOR('',#1558,1.);
#128=VECTOR('',#1561,1.);
#129=VECTOR('',#1562,1.);
#130=VECTOR('',#1563,1.);
#131=VECTOR('',#1564,1.);
#132=VECTOR('',#1565,1.);
#133=VECTOR('',#1566,1.);
#134=VECTOR('',#1569,1.);
#135=VECTOR('',#1570,1.);
#136=VECTOR('',#1571,1.);
#137=VECTOR('',#1572,1.);
#138=VECTOR('',#1573,1.);
#139=VECTOR('',#1574,1.);
#140=VECTOR('',#1577,1.);
#141=VECTOR('',#1578,1.);
#142=VECTOR('',#1579,1.);
#143=VECTOR('',#1580,1.);
#144=VECTOR('',#1581,1.);
#145=VECTOR('',#1582,1.);
#146=VECTOR('',#1583,1.);
#147=VECTOR('',#1584,1.);
#148=VECTOR('',#1585,1.);
#149=VECTOR('',#1586,1.);
#150=VECTOR('',#1597,1.);
#151=VECTOR('',#1598,1.);
#152=VECTOR('',#1599,1.);
#153=VECTOR('',#1602,1.);
#154=VECTOR('',#1613,1.);
#155=VECTOR('',#1614,1.);
#156=VECTOR('',#1617,1.);
#157=VECTOR('',#1618,1.);
#158=VECTOR('',#1621,1.);
#159=VECTOR('',#1656,1.);
#160=VECTOR('',#1657,1.);
#161=VECTOR('',#1660,1.);
#162=VECTOR('',#1661,1.);
#163=VECTOR('',#1664,1.);
#164=VECTOR('',#1879,1.);
#165=VECTOR('',#1880,1.);
#166=VECTOR('',#1883,1.);
#167=VECTOR('',#1884,1.);
#168=VECTOR('',#1887,1.);
#169=VECTOR('',#1904,1.);
#170=VECTOR('',#1905,1.);
#171=VECTOR('',#1906,1.);
#172=VECTOR('',#1909,1.);
#173=VECTOR('',#1910,1.);
#174=VECTOR('',#1911,1.);
#175=VECTOR('',#1914,1.);
#176=VECTOR('',#1915,1.);
#177=VECTOR('',#1916,1.);
#178=VECTOR('',#1919,1.);
#179=VECTOR('',#1920,1.);
#180=ORIENTED_EDGE('',*,*,#468,.F.);
#181=ORIENTED_EDGE('',*,*,#469,.F.);
#182=ORIENTED_EDGE('',*,*,#470,.F.);
#183=ORIENTED_EDGE('',*,*,#471,.F.);
#184=ORIENTED_EDGE('',*,*,#472,.F.);
#185=ORIENTED_EDGE('',*,*,#473,.T.);
#186=ORIENTED_EDGE('',*,*,#474,.F.);
#187=ORIENTED_EDGE('',*,*,#475,.F.);
#188=ORIENTED_EDGE('',*,*,#476,.F.);
#189=ORIENTED_EDGE('',*,*,#477,.F.);
#190=ORIENTED_EDGE('',*,*,#478,.T.);
#191=ORIENTED_EDGE('',*,*,#479,.T.);
#192=ORIENTED_EDGE('',*,*,#480,.T.);
#193=ORIENTED_EDGE('',*,*,#481,.F.);
#194=ORIENTED_EDGE('',*,*,#482,.T.);
#195=ORIENTED_EDGE('',*,*,#483,.T.);
#196=ORIENTED_EDGE('',*,*,#484,.T.);
#197=ORIENTED_EDGE('',*,*,#485,.F.);
#198=ORIENTED_EDGE('',*,*,#482,.F.);
#199=ORIENTED_EDGE('',*,*,#486,.F.);
#200=ORIENTED_EDGE('',*,*,#487,.F.);
#201=ORIENTED_EDGE('',*,*,#488,.T.);
#202=ORIENTED_EDGE('',*,*,#478,.F.);
#203=ORIENTED_EDGE('',*,*,#489,.T.);
#204=ORIENTED_EDGE('',*,*,#490,.F.);
#205=ORIENTED_EDGE('',*,*,#491,.F.);
#206=ORIENTED_EDGE('',*,*,#476,.T.);
#207=ORIENTED_EDGE('',*,*,#492,.F.);
#208=ORIENTED_EDGE('',*,*,#493,.T.);
#209=ORIENTED_EDGE('',*,*,#494,.T.);
#210=ORIENTED_EDGE('',*,*,#472,.T.);
#211=ORIENTED_EDGE('',*,*,#495,.T.);
#212=ORIENTED_EDGE('',*,*,#496,.T.);
#213=ORIENTED_EDGE('',*,*,#497,.T.);
#214=ORIENTED_EDGE('',*,*,#498,.F.);
#215=ORIENTED_EDGE('',*,*,#484,.F.);
#216=ORIENTED_EDGE('',*,*,#499,.T.);
#217=ORIENTED_EDGE('',*,*,#500,.T.);
#218=ORIENTED_EDGE('',*,*,#501,.F.);
#219=ORIENTED_EDGE('',*,*,#502,.F.);
#220=ORIENTED_EDGE('',*,*,#503,.T.);
#221=ORIENTED_EDGE('',*,*,#490,.T.);
#222=ORIENTED_EDGE('',*,*,#504,.F.);
#223=ORIENTED_EDGE('',*,*,#505,.F.);
#224=ORIENTED_EDGE('',*,*,#506,.T.);
#225=ORIENTED_EDGE('',*,*,#507,.T.);
#226=ORIENTED_EDGE('',*,*,#508,.T.);
#227=ORIENTED_EDGE('',*,*,#509,.T.);
#228=ORIENTED_EDGE('',*,*,#499,.F.);
#229=ORIENTED_EDGE('',*,*,#489,.F.);
#230=ORIENTED_EDGE('',*,*,#477,.T.);
#231=ORIENTED_EDGE('',*,*,#491,.T.);
#232=ORIENTED_EDGE('',*,*,#503,.F.);
#233=ORIENTED_EDGE('',*,*,#510,.F.);
#234=ORIENTED_EDGE('',*,*,#511,.F.);
#235=ORIENTED_EDGE('',*,*,#512,.T.);
#236=ORIENTED_EDGE('',*,*,#485,.T.);
#237=ORIENTED_EDGE('',*,*,#498,.T.);
#238=ORIENTED_EDGE('',*,*,#513,.T.);
#239=ORIENTED_EDGE('',*,*,#504,.T.);
#240=ORIENTED_EDGE('',*,*,#495,.F.);
#241=ORIENTED_EDGE('',*,*,#483,.F.);
#242=ORIENTED_EDGE('',*,*,#471,.T.);
#243=ORIENTED_EDGE('',*,*,#509,.F.);
#244=ORIENTED_EDGE('',*,*,#470,.T.);
#245=ORIENTED_EDGE('',*,*,#508,.F.);
#246=ORIENTED_EDGE('',*,*,#469,.T.);
#247=ORIENTED_EDGE('',*,*,#507,.F.);
#248=ORIENTED_EDGE('',*,*,#468,.T.);
#249=ORIENTED_EDGE('',*,*,#506,.F.);
#250=ORIENTED_EDGE('',*,*,#479,.F.);
#251=ORIENTED_EDGE('',*,*,#488,.F.);
#252=ORIENTED_EDGE('',*,*,#514,.T.);
#253=ORIENTED_EDGE('',*,*,#515,.T.);
#254=ORIENTED_EDGE('',*,*,#481,.T.);
#255=ORIENTED_EDGE('',*,*,#516,.F.);
#256=ORIENTED_EDGE('',*,*,#517,.F.);
#257=ORIENTED_EDGE('',*,*,#486,.T.);
#258=ORIENTED_EDGE('',*,*,#480,.F.);
#259=ORIENTED_EDGE('',*,*,#515,.F.);
#260=ORIENTED_EDGE('',*,*,#518,.T.);
#261=ORIENTED_EDGE('',*,*,#516,.T.);
#262=ORIENTED_EDGE('',*,*,#514,.F.);
#263=ORIENTED_EDGE('',*,*,#487,.T.);
#264=ORIENTED_EDGE('',*,*,#517,.T.);
#265=ORIENTED_EDGE('',*,*,#518,.F.);
#266=ORIENTED_EDGE('',*,*,#519,.F.);
#267=ORIENTED_EDGE('',*,*,#520,.F.);
#268=ORIENTED_EDGE('',*,*,#521,.F.);
#269=ORIENTED_EDGE('',*,*,#522,.F.);
#270=ORIENTED_EDGE('',*,*,#523,.F.);
#271=ORIENTED_EDGE('',*,*,#524,.F.);
#272=ORIENTED_EDGE('',*,*,#525,.F.);
#273=ORIENTED_EDGE('',*,*,#526,.F.);
#274=ORIENTED_EDGE('',*,*,#527,.F.);
#275=ORIENTED_EDGE('',*,*,#528,.F.);
#276=ORIENTED_EDGE('',*,*,#529,.F.);
#277=ORIENTED_EDGE('',*,*,#530,.F.);
#278=ORIENTED_EDGE('',*,*,#531,.F.);
#279=ORIENTED_EDGE('',*,*,#532,.F.);
#280=ORIENTED_EDGE('',*,*,#533,.F.);
#281=ORIENTED_EDGE('',*,*,#475,.T.);
#282=ORIENTED_EDGE('',*,*,#534,.F.);
#283=ORIENTED_EDGE('',*,*,#535,.F.);
#284=ORIENTED_EDGE('',*,*,#492,.T.);
#285=ORIENTED_EDGE('',*,*,#474,.T.);
#286=ORIENTED_EDGE('',*,*,#536,.F.);
#287=ORIENTED_EDGE('',*,*,#537,.F.);
#288=ORIENTED_EDGE('',*,*,#534,.T.);
#289=ORIENTED_EDGE('',*,*,#473,.F.);
#290=ORIENTED_EDGE('',*,*,#494,.F.);
#291=ORIENTED_EDGE('',*,*,#538,.T.);
#292=ORIENTED_EDGE('',*,*,#536,.T.);
#293=ORIENTED_EDGE('',*,*,#539,.F.);
#294=ORIENTED_EDGE('',*,*,#540,.F.);
#295=ORIENTED_EDGE('',*,*,#541,.F.);
#296=ORIENTED_EDGE('',*,*,#542,.F.);
#297=ORIENTED_EDGE('',*,*,#543,.F.);
#298=ORIENTED_EDGE('',*,*,#544,.F.);
#299=ORIENTED_EDGE('',*,*,#545,.F.);
#300=ORIENTED_EDGE('',*,*,#546,.F.);
#301=ORIENTED_EDGE('',*,*,#547,.F.);
#302=ORIENTED_EDGE('',*,*,#548,.F.);
#303=ORIENTED_EDGE('',*,*,#549,.F.);
#304=ORIENTED_EDGE('',*,*,#550,.F.);
#305=ORIENTED_EDGE('',*,*,#551,.F.);
#306=ORIENTED_EDGE('',*,*,#552,.F.);
#307=ORIENTED_EDGE('',*,*,#553,.F.);
#308=ORIENTED_EDGE('',*,*,#493,.F.);
#309=ORIENTED_EDGE('',*,*,#535,.T.);
#310=ORIENTED_EDGE('',*,*,#537,.T.);
#311=ORIENTED_EDGE('',*,*,#538,.F.);
#312=ORIENTED_EDGE('',*,*,#554,.T.);
#313=ORIENTED_EDGE('',*,*,#532,.T.);
#314=ORIENTED_EDGE('',*,*,#554,.F.);
#315=ORIENTED_EDGE('',*,*,#555,.T.);
#316=ORIENTED_EDGE('',*,*,#552,.T.);
#317=ORIENTED_EDGE('',*,*,#555,.F.);
#318=ORIENTED_EDGE('',*,*,#556,.T.);
#319=ORIENTED_EDGE('',*,*,#531,.T.);
#320=ORIENTED_EDGE('',*,*,#556,.F.);
#321=ORIENTED_EDGE('',*,*,#557,.T.);
#322=ORIENTED_EDGE('',*,*,#551,.T.);
#323=ORIENTED_EDGE('',*,*,#557,.F.);
#324=ORIENTED_EDGE('',*,*,#558,.T.);
#325=ORIENTED_EDGE('',*,*,#530,.T.);
#326=ORIENTED_EDGE('',*,*,#558,.F.);
#327=ORIENTED_EDGE('',*,*,#559,.T.);
#328=ORIENTED_EDGE('',*,*,#550,.T.);
#329=ORIENTED_EDGE('',*,*,#559,.F.);
#330=ORIENTED_EDGE('',*,*,#560,.T.);
#331=ORIENTED_EDGE('',*,*,#529,.T.);
#332=ORIENTED_EDGE('',*,*,#560,.F.);
#333=ORIENTED_EDGE('',*,*,#561,.T.);
#334=ORIENTED_EDGE('',*,*,#549,.T.);
#335=ORIENTED_EDGE('',*,*,#561,.F.);
#336=ORIENTED_EDGE('',*,*,#562,.T.);
#337=ORIENTED_EDGE('',*,*,#528,.T.);
#338=ORIENTED_EDGE('',*,*,#562,.F.);
#339=ORIENTED_EDGE('',*,*,#563,.T.);
#340=ORIENTED_EDGE('',*,*,#548,.T.);
#341=ORIENTED_EDGE('',*,*,#563,.F.);
#342=ORIENTED_EDGE('',*,*,#564,.T.);
#343=ORIENTED_EDGE('',*,*,#527,.T.);
#344=ORIENTED_EDGE('',*,*,#564,.F.);
#345=ORIENTED_EDGE('',*,*,#565,.T.);
#346=ORIENTED_EDGE('',*,*,#547,.T.);
#347=ORIENTED_EDGE('',*,*,#565,.F.);
#348=ORIENTED_EDGE('',*,*,#566,.T.);
#349=ORIENTED_EDGE('',*,*,#526,.T.);
#350=ORIENTED_EDGE('',*,*,#566,.F.);
#351=ORIENTED_EDGE('',*,*,#567,.T.);
#352=ORIENTED_EDGE('',*,*,#546,.T.);
#353=ORIENTED_EDGE('',*,*,#567,.F.);
#354=ORIENTED_EDGE('',*,*,#568,.T.);
#355=ORIENTED_EDGE('',*,*,#525,.T.);
#356=ORIENTED_EDGE('',*,*,#568,.F.);
#357=ORIENTED_EDGE('',*,*,#569,.T.);
#358=ORIENTED_EDGE('',*,*,#545,.T.);
#359=ORIENTED_EDGE('',*,*,#569,.F.);
#360=ORIENTED_EDGE('',*,*,#570,.T.);
#361=ORIENTED_EDGE('',*,*,#524,.T.);
#362=ORIENTED_EDGE('',*,*,#570,.F.);
#363=ORIENTED_EDGE('',*,*,#571,.T.);
#364=ORIENTED_EDGE('',*,*,#544,.T.);
#365=ORIENTED_EDGE('',*,*,#571,.F.);
#366=ORIENTED_EDGE('',*,*,#572,.T.);
#367=ORIENTED_EDGE('',*,*,#523,.T.);
#368=ORIENTED_EDGE('',*,*,#572,.F.);
#369=ORIENTED_EDGE('',*,*,#573,.T.);
#370=ORIENTED_EDGE('',*,*,#543,.T.);
#371=ORIENTED_EDGE('',*,*,#573,.F.);
#372=ORIENTED_EDGE('',*,*,#574,.T.);
#373=ORIENTED_EDGE('',*,*,#522,.T.);
#374=ORIENTED_EDGE('',*,*,#574,.F.);
#375=ORIENTED_EDGE('',*,*,#575,.T.);
#376=ORIENTED_EDGE('',*,*,#542,.T.);
#377=ORIENTED_EDGE('',*,*,#575,.F.);
#378=ORIENTED_EDGE('',*,*,#576,.T.);
#379=ORIENTED_EDGE('',*,*,#521,.T.);
#380=ORIENTED_EDGE('',*,*,#576,.F.);
#381=ORIENTED_EDGE('',*,*,#577,.T.);
#382=ORIENTED_EDGE('',*,*,#541,.T.);
#383=ORIENTED_EDGE('',*,*,#577,.F.);
#384=ORIENTED_EDGE('',*,*,#578,.T.);
#385=ORIENTED_EDGE('',*,*,#520,.T.);
#386=ORIENTED_EDGE('',*,*,#578,.F.);
#387=ORIENTED_EDGE('',*,*,#579,.T.);
#388=ORIENTED_EDGE('',*,*,#540,.T.);
#389=ORIENTED_EDGE('',*,*,#579,.F.);
#390=ORIENTED_EDGE('',*,*,#580,.T.);
#391=ORIENTED_EDGE('',*,*,#519,.T.);
#392=ORIENTED_EDGE('',*,*,#580,.F.);
#393=ORIENTED_EDGE('',*,*,#581,.T.);
#394=ORIENTED_EDGE('',*,*,#539,.T.);
#395=ORIENTED_EDGE('',*,*,#581,.F.);
#396=ORIENTED_EDGE('',*,*,#582,.T.);
#397=ORIENTED_EDGE('',*,*,#533,.T.);
#398=ORIENTED_EDGE('',*,*,#582,.F.);
#399=ORIENTED_EDGE('',*,*,#583,.T.);
#400=ORIENTED_EDGE('',*,*,#553,.T.);
#401=ORIENTED_EDGE('',*,*,#583,.F.);
#402=ORIENTED_EDGE('',*,*,#502,.T.);
#403=ORIENTED_EDGE('',*,*,#584,.F.);
#404=ORIENTED_EDGE('',*,*,#585,.F.);
#405=ORIENTED_EDGE('',*,*,#510,.T.);
#406=ORIENTED_EDGE('',*,*,#501,.T.);
#407=ORIENTED_EDGE('',*,*,#586,.F.);
#408=ORIENTED_EDGE('',*,*,#587,.F.);
#409=ORIENTED_EDGE('',*,*,#584,.T.);
#410=ORIENTED_EDGE('',*,*,#500,.F.);
#411=ORIENTED_EDGE('',*,*,#512,.F.);
#412=ORIENTED_EDGE('',*,*,#588,.T.);
#413=ORIENTED_EDGE('',*,*,#586,.T.);
#414=ORIENTED_EDGE('',*,*,#589,.F.);
#415=ORIENTED_EDGE('',*,*,#590,.F.);
#416=ORIENTED_EDGE('',*,*,#591,.F.);
#417=ORIENTED_EDGE('',*,*,#592,.F.);
#418=ORIENTED_EDGE('',*,*,#593,.F.);
#419=ORIENTED_EDGE('',*,*,#594,.F.);
#420=ORIENTED_EDGE('',*,*,#511,.T.);
#421=ORIENTED_EDGE('',*,*,#585,.T.);
#422=ORIENTED_EDGE('',*,*,#587,.T.);
#423=ORIENTED_EDGE('',*,*,#588,.F.);
#424=ORIENTED_EDGE('',*,*,#496,.F.);
#425=ORIENTED_EDGE('',*,*,#595,.F.);
#426=ORIENTED_EDGE('',*,*,#596,.T.);
#427=ORIENTED_EDGE('',*,*,#597,.T.);
#428=ORIENTED_EDGE('',*,*,#505,.T.);
#429=ORIENTED_EDGE('',*,*,#598,.T.);
#430=ORIENTED_EDGE('',*,*,#599,.F.);
#431=ORIENTED_EDGE('',*,*,#600,.F.);
#432=ORIENTED_EDGE('',*,*,#595,.T.);
#433=ORIENTED_EDGE('',*,*,#601,.T.);
#434=ORIENTED_EDGE('',*,*,#602,.F.);
#435=ORIENTED_EDGE('',*,*,#603,.F.);
#436=ORIENTED_EDGE('',*,*,#599,.T.);
#437=ORIENTED_EDGE('',*,*,#497,.F.);
#438=ORIENTED_EDGE('',*,*,#597,.F.);
#439=ORIENTED_EDGE('',*,*,#604,.T.);
#440=ORIENTED_EDGE('',*,*,#602,.T.);
#441=ORIENTED_EDGE('',*,*,#605,.F.);
#442=ORIENTED_EDGE('',*,*,#596,.F.);
#443=ORIENTED_EDGE('',*,*,#600,.T.);
#444=ORIENTED_EDGE('',*,*,#603,.T.);
#445=ORIENTED_EDGE('',*,*,#604,.F.);
#446=ORIENTED_EDGE('',*,*,#513,.F.);
#447=ORIENTED_EDGE('',*,*,#605,.T.);
#448=ORIENTED_EDGE('',*,*,#601,.F.);
#449=ORIENTED_EDGE('',*,*,#598,.F.);
#450=ORIENTED_EDGE('',*,*,#594,.T.);
#451=ORIENTED_EDGE('',*,*,#606,.F.);
#452=ORIENTED_EDGE('',*,*,#606,.T.);
#453=ORIENTED_EDGE('',*,*,#589,.T.);
#454=ORIENTED_EDGE('',*,*,#607,.F.);
#455=ORIENTED_EDGE('',*,*,#607,.T.);
#456=ORIENTED_EDGE('',*,*,#593,.T.);
#457=ORIENTED_EDGE('',*,*,#608,.F.);
#458=ORIENTED_EDGE('',*,*,#608,.T.);
#459=ORIENTED_EDGE('',*,*,#592,.T.);
#460=ORIENTED_EDGE('',*,*,#609,.F.);
#461=ORIENTED_EDGE('',*,*,#609,.T.);
#462=ORIENTED_EDGE('',*,*,#591,.T.);
#463=ORIENTED_EDGE('',*,*,#610,.F.);
#464=ORIENTED_EDGE('',*,*,#610,.T.);
#465=ORIENTED_EDGE('',*,*,#590,.T.);
#466=ORIENTED_EDGE('',*,*,#611,.F.);
#467=ORIENTED_EDGE('',*,*,#611,.T.);
#468=EDGE_CURVE('',#612,#612,#734,.T.);
#469=EDGE_CURVE('',#613,#613,#735,.T.);
#470=EDGE_CURVE('',#614,#614,#736,.T.);
#471=EDGE_CURVE('',#615,#615,#737,.T.);
#472=EDGE_CURVE('',#616,#617,#52,.T.);
#473=EDGE_CURVE('',#616,#618,#53,.T.);
#474=EDGE_CURVE('',#619,#618,#54,.T.);
#475=EDGE_CURVE('',#620,#619,#55,.T.);
#476=EDGE_CURVE('',#621,#620,#56,.T.);
#477=EDGE_CURVE('',#622,#621,#57,.T.);
#478=EDGE_CURVE('',#622,#623,#58,.T.);
#479=EDGE_CURVE('',#623,#624,#59,.T.);
#480=EDGE_CURVE('',#624,#625,#60,.T.);
#481=EDGE_CURVE('',#626,#625,#61,.T.);
#482=EDGE_CURVE('',#626,#627,#62,.T.);
#483=EDGE_CURVE('',#627,#617,#63,.T.);
#484=EDGE_CURVE('',#628,#629,#64,.T.);
#485=EDGE_CURVE('',#627,#629,#65,.T.);
#486=EDGE_CURVE('',#630,#626,#66,.T.);
#487=EDGE_CURVE('',#631,#630,#67,.T.);
#488=EDGE_CURVE('',#631,#623,#68,.T.);
#489=EDGE_CURVE('',#622,#628,#69,.T.);
#490=EDGE_CURVE('',#632,#633,#70,.T.);
#491=EDGE_CURVE('',#621,#632,#71,.T.);
#492=EDGE_CURVE('',#634,#620,#72,.T.);
#493=EDGE_CURVE('',#634,#635,#73,.T.);
#494=EDGE_CURVE('',#635,#616,#74,.T.);
#495=EDGE_CURVE('',#617,#633,#75,.T.);
#496=EDGE_CURVE('',#636,#637,#76,.T.);
#497=EDGE_CURVE('',#637,#638,#77,.T.);
#498=EDGE_CURVE('',#629,#638,#78,.T.);
#499=EDGE_CURVE('',#628,#639,#79,.T.);
#500=EDGE_CURVE('',#639,#640,#80,.T.);
#501=EDGE_CURVE('',#641,#640,#81,.T.);
#502=EDGE_CURVE('',#642,#641,#82,.T.);
#503=EDGE_CURVE('',#642,#632,#83,.T.);
#504=EDGE_CURVE('',#643,#633,#84,.T.);
#505=EDGE_CURVE('',#636,#643,#85,.T.);
#506=EDGE_CURVE('',#644,#644,#738,.T.);
#507=EDGE_CURVE('',#645,#645,#739,.T.);
#508=EDGE_CURVE('',#646,#646,#740,.T.);
#509=EDGE_CURVE('',#647,#647,#741,.T.);
#510=EDGE_CURVE('',#648,#642,#86,.T.);
#511=EDGE_CURVE('',#649,#648,#87,.T.);
#512=EDGE_CURVE('',#649,#639,#88,.T.);
#513=EDGE_CURVE('',#638,#643,#89,.T.);
#514=EDGE_CURVE('',#631,#650,#90,.T.);
#515=EDGE_CURVE('',#650,#624,#91,.T.);
#516=EDGE_CURVE('',#651,#625,#92,.T.);
#517=EDGE_CURVE('',#630,#651,#93,.T.);
#518=EDGE_CURVE('',#650,#651,#94,.T.);
#519=EDGE_CURVE('',#652,#652,#742,.T.);
#520=EDGE_CURVE('',#653,#653,#743,.T.);
#521=EDGE_CURVE('',#654,#654,#744,.T.);
#522=EDGE_CURVE('',#655,#655,#745,.T.);
#523=EDGE_CURVE('',#656,#656,#746,.T.);
#524=EDGE_CURVE('',#657,#657,#747,.T.);
#525=EDGE_CURVE('',#658,#658,#748,.T.);
#526=EDGE_CURVE('',#659,#659,#749,.T.);
#527=EDGE_CURVE('',#660,#660,#750,.T.);
#528=EDGE_CURVE('',#661,#661,#751,.T.);
#529=EDGE_CURVE('',#662,#662,#752,.T.);
#530=EDGE_CURVE('',#663,#663,#753,.T.);
#531=EDGE_CURVE('',#664,#664,#754,.T.);
#532=EDGE_CURVE('',#665,#665,#755,.T.);
#533=EDGE_CURVE('',#666,#666,#756,.T.);
#534=EDGE_CURVE('',#667,#619,#95,.T.);
#535=EDGE_CURVE('',#634,#667,#96,.T.);
#536=EDGE_CURVE('',#668,#618,#97,.T.);
#537=EDGE_CURVE('',#667,#668,#98,.T.);
#538=EDGE_CURVE('',#635,#668,#99,.T.);
#539=EDGE_CURVE('',#669,#669,#757,.T.);
#540=EDGE_CURVE('',#670,#670,#758,.T.);
#541=EDGE_CURVE('',#671,#671,#759,.T.);
#542=EDGE_CURVE('',#672,#672,#760,.T.);
#543=EDGE_CURVE('',#673,#673,#761,.T.);
#544=EDGE_CURVE('',#674,#674,#762,.T.);
#545=EDGE_CURVE('',#675,#675,#763,.T.);
#546=EDGE_CURVE('',#676,#676,#764,.T.);
#547=EDGE_CURVE('',#677,#677,#765,.T.);
#548=EDGE_CURVE('',#678,#678,#766,.T.);
#549=EDGE_CURVE('',#679,#679,#767,.T.);
#550=EDGE_CURVE('',#680,#680,#768,.T.);
#551=EDGE_CURVE('',#681,#681,#769,.T.);
#552=EDGE_CURVE('',#682,#682,#770,.T.);
#553=EDGE_CURVE('',#683,#683,#771,.T.);
#554=EDGE_CURVE('',#684,#684,#772,.T.);
#555=EDGE_CURVE('',#685,#685,#773,.T.);
#556=EDGE_CURVE('',#686,#686,#774,.T.);
#557=EDGE_CURVE('',#687,#687,#775,.T.);
#558=EDGE_CURVE('',#688,#688,#776,.T.);
#559=EDGE_CURVE('',#689,#689,#777,.T.);
#560=EDGE_CURVE('',#690,#690,#778,.T.);
#561=EDGE_CURVE('',#691,#691,#779,.T.);
#562=EDGE_CURVE('',#692,#692,#780,.T.);
#563=EDGE_CURVE('',#693,#693,#781,.T.);
#564=EDGE_CURVE('',#694,#694,#782,.T.);
#565=EDGE_CURVE('',#695,#695,#783,.T.);
#566=EDGE_CURVE('',#696,#696,#784,.T.);
#567=EDGE_CURVE('',#697,#697,#785,.T.);
#568=EDGE_CURVE('',#698,#698,#786,.T.);
#569=EDGE_CURVE('',#699,#699,#787,.T.);
#570=EDGE_CURVE('',#700,#700,#788,.T.);
#571=EDGE_CURVE('',#701,#701,#789,.T.);
#572=EDGE_CURVE('',#702,#702,#790,.T.);
#573=EDGE_CURVE('',#703,#703,#791,.T.);
#574=EDGE_CURVE('',#704,#704,#792,.T.);
#575=EDGE_CURVE('',#705,#705,#793,.T.);
#576=EDGE_CURVE('',#706,#706,#794,.T.);
#577=EDGE_CURVE('',#707,#707,#795,.T.);
#578=EDGE_CURVE('',#708,#708,#796,.T.);
#579=EDGE_CURVE('',#709,#709,#797,.T.);
#580=EDGE_CURVE('',#710,#710,#798,.T.);
#581=EDGE_CURVE('',#711,#711,#799,.T.);
#582=EDGE_CURVE('',#712,#712,#800,.T.);
#583=EDGE_CURVE('',#713,#713,#801,.T.);
#584=EDGE_CURVE('',#714,#641,#100,.T.);
#585=EDGE_CURVE('',#648,#714,#101,.T.);
#586=EDGE_CURVE('',#715,#640,#102,.T.);
#587=EDGE_CURVE('',#714,#715,#103,.T.);
#588=EDGE_CURVE('',#649,#715,#104,.T.);
#589=EDGE_CURVE('',#716,#716,#802,.T.);
#590=EDGE_CURVE('',#717,#717,#803,.T.);
#591=EDGE_CURVE('',#718,#718,#804,.T.);
#592=EDGE_CURVE('',#719,#719,#805,.T.);
#593=EDGE_CURVE('',#720,#720,#806,.T.);
#594=EDGE_CURVE('',#721,#721,#807,.T.);
#595=EDGE_CURVE('',#722,#636,#105,.T.);
#596=EDGE_CURVE('',#722,#723,#106,.T.);
#597=EDGE_CURVE('',#723,#637,#107,.T.);
#598=EDGE_CURVE('',#643,#724,#108,.T.);
#599=EDGE_CURVE('',#725,#724,#109,.T.);
#600=EDGE_CURVE('',#722,#725,#110,.T.);
#601=EDGE_CURVE('',#724,#726,#111,.T.);
#602=EDGE_CURVE('',#727,#726,#112,.T.);
#603=EDGE_CURVE('',#725,#727,#113,.T.);
#604=EDGE_CURVE('',#723,#727,#114,.T.);
#605=EDGE_CURVE('',#638,#726,#115,.T.);
#606=EDGE_CURVE('',#728,#728,#808,.T.);
#607=EDGE_CURVE('',#729,#729,#809,.T.);
#608=EDGE_CURVE('',#730,#730,#810,.T.);
#609=EDGE_CURVE('',#731,#731,#811,.T.);
#610=EDGE_CURVE('',#732,#732,#812,.T.);
#611=EDGE_CURVE('',#733,#733,#813,.T.);
#612=VERTEX_POINT('',#1964);
#613=VERTEX_POINT('',#1966);
#614=VERTEX_POINT('',#1968);
#615=VERTEX_POINT('',#1970);
#616=VERTEX_POINT('',#1972);
#617=VERTEX_POINT('',#1973);
#618=VERTEX_POINT('',#1975);
#619=VERTEX_POINT('',#1977);
#620=VERTEX_POINT('',#1979);
#621=VERTEX_POINT('',#1981);
#622=VERTEX_POINT('',#1983);
#623=VERTEX_POINT('',#1985);
#624=VERTEX_POINT('',#1987);
#625=VERTEX_POINT('',#1989);
#626=VERTEX_POINT('',#1991);
#627=VERTEX_POINT('',#1993);
#628=VERTEX_POINT('',#1997);
#629=VERTEX_POINT('',#1998);
#630=VERTEX_POINT('',#2001);
#631=VERTEX_POINT('',#2003);
#632=VERTEX_POINT('',#2008);
#633=VERTEX_POINT('',#2009);
#634=VERTEX_POINT('',#2012);
#635=VERTEX_POINT('',#2014);
#636=VERTEX_POINT('',#2019);
#637=VERTEX_POINT('',#2020);
#638=VERTEX_POINT('',#2022);
#639=VERTEX_POINT('',#2025);
#640=VERTEX_POINT('',#2027);
#641=VERTEX_POINT('',#2029);
#642=VERTEX_POINT('',#2031);
#643=VERTEX_POINT('',#2034);
#644=VERTEX_POINT('',#2037);
#645=VERTEX_POINT('',#2039);
#646=VERTEX_POINT('',#2041);
#647=VERTEX_POINT('',#2043);
#648=VERTEX_POINT('',#2046);
#649=VERTEX_POINT('',#2048);
#650=VERTEX_POINT('',#2058);
#651=VERTEX_POINT('',#2062);
#652=VERTEX_POINT('',#2068);
#653=VERTEX_POINT('',#2070);
#654=VERTEX_POINT('',#2072);
#655=VERTEX_POINT('',#2074);
#656=VERTEX_POINT('',#2076);
#657=VERTEX_POINT('',#2078);
#658=VERTEX_POINT('',#2080);
#659=VERTEX_POINT('',#2082);
#660=VERTEX_POINT('',#2084);
#661=VERTEX_POINT('',#2086);
#662=VERTEX_POINT('',#2088);
#663=VERTEX_POINT('',#2090);
#664=VERTEX_POINT('',#2092);
#665=VERTEX_POINT('',#2094);
#666=VERTEX_POINT('',#2096);
#667=VERTEX_POINT('',#2099);
#668=VERTEX_POINT('',#2103);
#669=VERTEX_POINT('',#2109);
#670=VERTEX_POINT('',#2111);
#671=VERTEX_POINT('',#2113);
#672=VERTEX_POINT('',#2115);
#673=VERTEX_POINT('',#2117);
#674=VERTEX_POINT('',#2119);
#675=VERTEX_POINT('',#2121);
#676=VERTEX_POINT('',#2123);
#677=VERTEX_POINT('',#2125);
#678=VERTEX_POINT('',#2127);
#679=VERTEX_POINT('',#2129);
#680=VERTEX_POINT('',#2131);
#681=VERTEX_POINT('',#2133);
#682=VERTEX_POINT('',#2135);
#683=VERTEX_POINT('',#2137);
#684=VERTEX_POINT('',#2140);
#685=VERTEX_POINT('',#2144);
#686=VERTEX_POINT('',#2148);
#687=VERTEX_POINT('',#2152);
#688=VERTEX_POINT('',#2156);
#689=VERTEX_POINT('',#2160);
#690=VERTEX_POINT('',#2164);
#691=VERTEX_POINT('',#2168);
#692=VERTEX_POINT('',#2172);
#693=VERTEX_POINT('',#2176);
#694=VERTEX_POINT('',#2180);
#695=VERTEX_POINT('',#2184);
#696=VERTEX_POINT('',#2188);
#697=VERTEX_POINT('',#2192);
#698=VERTEX_POINT('',#2196);
#699=VERTEX_POINT('',#2200);
#700=VERTEX_POINT('',#2204);
#701=VERTEX_POINT('',#2208);
#702=VERTEX_POINT('',#2212);
#703=VERTEX_POINT('',#2216);
#704=VERTEX_POINT('',#2220);
#705=VERTEX_POINT('',#2224);
#706=VERTEX_POINT('',#2228);
#707=VERTEX_POINT('',#2232);
#708=VERTEX_POINT('',#2236);
#709=VERTEX_POINT('',#2240);
#710=VERTEX_POINT('',#2244);
#711=VERTEX_POINT('',#2248);
#712=VERTEX_POINT('',#2252);
#713=VERTEX_POINT('',#2256);
#714=VERTEX_POINT('',#2260);
#715=VERTEX_POINT('',#2264);
#716=VERTEX_POINT('',#2270);
#717=VERTEX_POINT('',#2272);
#718=VERTEX_POINT('',#2274);
#719=VERTEX_POINT('',#2276);
#720=VERTEX_POINT('',#2278);
#721=VERTEX_POINT('',#2280);
#722=VERTEX_POINT('',#2283);
#723=VERTEX_POINT('',#2285);
#724=VERTEX_POINT('',#2289);
#725=VERTEX_POINT('',#2291);
#726=VERTEX_POINT('',#2295);
#727=VERTEX_POINT('',#2297);
#728=VERTEX_POINT('',#2306);
#729=VERTEX_POINT('',#2310);
#730=VERTEX_POINT('',#2314);
#731=VERTEX_POINT('',#2318);
#732=VERTEX_POINT('',#2322);
#733=VERTEX_POINT('',#2326);
#734=CIRCLE('',#1356,0.0005);
#735=CIRCLE('',#1357,0.0005);
#736=CIRCLE('',#1358,0.0005);
#737=CIRCLE('',#1359,0.0005);
#738=CIRCLE('',#1363,0.0005);
#739=CIRCLE('',#1364,0.0005);
#740=CIRCLE('',#1365,0.0005);
#741=CIRCLE('',#1366,0.0005);
#742=CIRCLE('',#1377,0.0005);
#743=CIRCLE('',#1378,0.0005);
#744=CIRCLE('',#1379,0.0005);
#745=CIRCLE('',#1380,0.0005);
#746=CIRCLE('',#1381,0.0005);
#747=CIRCLE('',#1382,0.0005);
#748=CIRCLE('',#1383,0.0005);
#749=CIRCLE('',#1384,0.0005);
#750=CIRCLE('',#1385,0.0005);
#751=CIRCLE('',#1386,0.0005);
#752=CIRCLE('',#1387,0.0005);
#753=CIRCLE('',#1388,0.0005);
#754=CIRCLE('',#1389,0.0005);
#755=CIRCLE('',#1390,0.0005);
#756=CIRCLE('',#1391,0.0005);
#757=CIRCLE('',#1396,0.0005);
#758=CIRCLE('',#1397,0.0005);
#759=CIRCLE('',#1398,0.0005);
#760=CIRCLE('',#1399,0.0005);
#761=CIRCLE('',#1400,0.0005);
#762=CIRCLE('',#1401,0.0005);
#763=CIRCLE('',#1402,0.0005);
#764=CIRCLE('',#1403,0.0005);
#765=CIRCLE('',#1404,0.0005);
#766=CIRCLE('',#1405,0.0005);
#767=CIRCLE('',#1406,0.0005);
#768=CIRCLE('',#1407,0.0005);
#769=CIRCLE('',#1408,0.0005);
#770=CIRCLE('',#1409,0.0005);
#771=CIRCLE('',#1410,0.0005);
#772=CIRCLE('',#1412,0.0005);
#773=CIRCLE('',#1415,0.0005);
#774=CIRCLE('',#1418,0.0005);
#775=CIRCLE('',#1421,0.0005);
#776=CIRCLE('',#1424,0.0005);
#777=CIRCLE('',#1427,0.0005);
#778=CIRCLE('',#1430,0.0005);
#779=CIRCLE('',#1433,0.0005);
#780=CIRCLE('',#1436,0.0005);
#781=CIRCLE('',#1439,0.0005);
#782=CIRCLE('',#1442,0.0005);
#783=CIRCLE('',#1445,0.0005);
#784=CIRCLE('',#1448,0.0005);
#785=CIRCLE('',#1451,0.0005);
#786=CIRCLE('',#1454,0.0005);
#787=CIRCLE('',#1457,0.0005);
#788=CIRCLE('',#1460,0.0005);
#789=CIRCLE('',#1463,0.0005);
#790=CIRCLE('',#1466,0.0005);
#791=CIRCLE('',#1469,0.0005);
#792=CIRCLE('',#1472,0.0005);
#793=CIRCLE('',#1475,0.0005);
#794=CIRCLE('',#1478,0.0005);
#795=CIRCLE('',#1481,0.0005);
#796=CIRCLE('',#1484,0.0005);
#797=CIRCLE('',#1487,0.0005);
#798=CIRCLE('',#1490,0.0005);
#799=CIRCLE('',#1493,0.0005);
#800=CIRCLE('',#1496,0.0005);
#801=CIRCLE('',#1499,0.0005);
#802=CIRCLE('',#1505,0.0005);
#803=CIRCLE('',#1506,0.0005);
#804=CIRCLE('',#1507,0.0005);
#805=CIRCLE('',#1508,0.0005);
#806=CIRCLE('',#1509,0.0005);
#807=CIRCLE('',#1510,0.0005);
#808=CIRCLE('',#1518,0.0005);
#809=CIRCLE('',#1521,0.0005);
#810=CIRCLE('',#1524,0.0005);
#811=CIRCLE('',#1527,0.0005);
#812=CIRCLE('',#1530,0.0005);
#813=CIRCLE('',#1533,0.0005);
#814=EDGE_LOOP('',(#180));
#815=EDGE_LOOP('',(#181));
#816=EDGE_LOOP('',(#182));
#817=EDGE_LOOP('',(#183));
#818=EDGE_LOOP('',(#184,#185,#186,#187,#188,#189,#190,#191,#192,#193,#194,
#195));
#819=EDGE_LOOP('',(#196,#197,#198,#199,#200,#201,#202,#203));
#820=EDGE_LOOP('',(#204,#205,#206,#207,#208,#209,#210,#211));
#821=EDGE_LOOP('',(#212,#213,#214,#215,#216,#217,#218,#219,#220,#221,#222,
#223));
#822=EDGE_LOOP('',(#224));
#823=EDGE_LOOP('',(#225));
#824=EDGE_LOOP('',(#226));
#825=EDGE_LOOP('',(#227));
#826=EDGE_LOOP('',(#228,#229,#230,#231,#232,#233,#234,#235));
#827=EDGE_LOOP('',(#236,#237,#238,#239,#240,#241));
#828=EDGE_LOOP('',(#242));
#829=EDGE_LOOP('',(#243));
#830=EDGE_LOOP('',(#244));
#831=EDGE_LOOP('',(#245));
#832=EDGE_LOOP('',(#246));
#833=EDGE_LOOP('',(#247));
#834=EDGE_LOOP('',(#248));
#835=EDGE_LOOP('',(#249));
#836=EDGE_LOOP('',(#250,#251,#252,#253));
#837=EDGE_LOOP('',(#254,#255,#256,#257));
#838=EDGE_LOOP('',(#258,#259,#260,#261));
#839=EDGE_LOOP('',(#262,#263,#264,#265));
#840=EDGE_LOOP('',(#266));
#841=EDGE_LOOP('',(#267));
#842=EDGE_LOOP('',(#268));
#843=EDGE_LOOP('',(#269));
#844=EDGE_LOOP('',(#270));
#845=EDGE_LOOP('',(#271));
#846=EDGE_LOOP('',(#272));
#847=EDGE_LOOP('',(#273));
#848=EDGE_LOOP('',(#274));
#849=EDGE_LOOP('',(#275));
#850=EDGE_LOOP('',(#276));
#851=EDGE_LOOP('',(#277));
#852=EDGE_LOOP('',(#278));
#853=EDGE_LOOP('',(#279));
#854=EDGE_LOOP('',(#280));
#855=EDGE_LOOP('',(#281,#282,#283,#284));
#856=EDGE_LOOP('',(#285,#286,#287,#288));
#857=EDGE_LOOP('',(#289,#290,#291,#292));
#858=EDGE_LOOP('',(#293));
#859=EDGE_LOOP('',(#294));
#860=EDGE_LOOP('',(#295));
#861=EDGE_LOOP('',(#296));
#862=EDGE_LOOP('',(#297));
#863=EDGE_LOOP('',(#298));
#864=EDGE_LOOP('',(#299));
#865=EDGE_LOOP('',(#300));
#866=EDGE_LOOP('',(#301));
#867=EDGE_LOOP('',(#302));
#868=EDGE_LOOP('',(#303));
#869=EDGE_LOOP('',(#304));
#870=EDGE_LOOP('',(#305));
#871=EDGE_LOOP('',(#306));
#872=EDGE_LOOP('',(#307));
#873=EDGE_LOOP('',(#308,#309,#310,#311));
#874=EDGE_LOOP('',(#312));
#875=EDGE_LOOP('',(#313));
#876=EDGE_LOOP('',(#314));
#877=EDGE_LOOP('',(#315));
#878=EDGE_LOOP('',(#316));
#879=EDGE_LOOP('',(#317));
#880=EDGE_LOOP('',(#318));
#881=EDGE_LOOP('',(#319));
#882=EDGE_LOOP('',(#320));
#883=EDGE_LOOP('',(#321));
#884=EDGE_LOOP('',(#322));
#885=EDGE_LOOP('',(#323));
#886=EDGE_LOOP('',(#324));
#887=EDGE_LOOP('',(#325));
#888=EDGE_LOOP('',(#326));
#889=EDGE_LOOP('',(#327));
#890=EDGE_LOOP('',(#328));
#891=EDGE_LOOP('',(#329));
#892=EDGE_LOOP('',(#330));
#893=EDGE_LOOP('',(#331));
#894=EDGE_LOOP('',(#332));
#895=EDGE_LOOP('',(#333));
#896=EDGE_LOOP('',(#334));
#897=EDGE_LOOP('',(#335));
#898=EDGE_LOOP('',(#336));
#899=EDGE_LOOP('',(#337));
#900=EDGE_LOOP('',(#338));
#901=EDGE_LOOP('',(#339));
#902=EDGE_LOOP('',(#340));
#903=EDGE_LOOP('',(#341));
#904=EDGE_LOOP('',(#342));
#905=EDGE_LOOP('',(#343));
#906=EDGE_LOOP('',(#344));
#907=EDGE_LOOP('',(#345));
#908=EDGE_LOOP('',(#346));
#909=EDGE_LOOP('',(#347));
#910=EDGE_LOOP('',(#348));
#911=EDGE_LOOP('',(#349));
#912=EDGE_LOOP('',(#350));
#913=EDGE_LOOP('',(#351));
#914=EDGE_LOOP('',(#352));
#915=EDGE_LOOP('',(#353));
#916=EDGE_LOOP('',(#354));
#917=EDGE_LOOP('',(#355));
#918=EDGE_LOOP('',(#356));
#919=EDGE_LOOP('',(#357));
#920=EDGE_LOOP('',(#358));
#921=EDGE_LOOP('',(#359));
#922=EDGE_LOOP('',(#360));
#923=EDGE_LOOP('',(#361));
#924=EDGE_LOOP('',(#362));
#925=EDGE_LOOP('',(#363));
#926=EDGE_LOOP('',(#364));
#927=EDGE_LOOP('',(#365));
#928=EDGE_LOOP('',(#366));
#929=EDGE_LOOP('',(#367));
#930=EDGE_LOOP('',(#368));
#931=EDGE_LOOP('',(#369));
#932=EDGE_LOOP('',(#370));
#933=EDGE_LOOP('',(#371));
#934=EDGE_LOOP('',(#372));
#935=EDGE_LOOP('',(#373));
#936=EDGE_LOOP('',(#374));
#937=EDGE_LOOP('',(#375));
#938=EDGE_LOOP('',(#376));
#939=EDGE_LOOP('',(#377));
#940=EDGE_LOOP('',(#378));
#941=EDGE_LOOP('',(#379));
#942=EDGE_LOOP('',(#380));
#943=EDGE_LOOP('',(#381));
#944=EDGE_LOOP('',(#382));
#945=EDGE_LOOP('',(#383));
#946=EDGE_LOOP('',(#384));
#947=EDGE_LOOP('',(#385));
#948=EDGE_LOOP('',(#386));
#949=EDGE_LOOP('',(#387));
#950=EDGE_LOOP('',(#388));
#951=EDGE_LOOP('',(#389));
#952=EDGE_LOOP('',(#390));
#953=EDGE_LOOP('',(#391));
#954=EDGE_LOOP('',(#392));
#955=EDGE_LOOP('',(#393));
#956=EDGE_LOOP('',(#394));
#957=EDGE_LOOP('',(#395));
#958=EDGE_LOOP('',(#396));
#959=EDGE_LOOP('',(#397));
#960=EDGE_LOOP('',(#398));
#961=EDGE_LOOP('',(#399));
#962=EDGE_LOOP('',(#400));
#963=EDGE_LOOP('',(#401));
#964=EDGE_LOOP('',(#402,#403,#404,#405));
#965=EDGE_LOOP('',(#406,#407,#408,#409));
#966=EDGE_LOOP('',(#410,#411,#412,#413));
#967=EDGE_LOOP('',(#414));
#968=EDGE_LOOP('',(#415));
#969=EDGE_LOOP('',(#416));
#970=EDGE_LOOP('',(#417));
#971=EDGE_LOOP('',(#418));
#972=EDGE_LOOP('',(#419));
#973=EDGE_LOOP('',(#420,#421,#422,#423));
#974=EDGE_LOOP('',(#424,#425,#426,#427));
#975=EDGE_LOOP('',(#428,#429,#430,#431,#432));
#976=EDGE_LOOP('',(#433,#434,#435,#436));
#977=EDGE_LOOP('',(#437,#438,#439,#440,#441));
#978=EDGE_LOOP('',(#442,#443,#444,#445));
#979=EDGE_LOOP('',(#446,#447,#448,#449));
#980=EDGE_LOOP('',(#450));
#981=EDGE_LOOP('',(#451));
#982=EDGE_LOOP('',(#452));
#983=EDGE_LOOP('',(#453));
#984=EDGE_LOOP('',(#454));
#985=EDGE_LOOP('',(#455));
#986=EDGE_LOOP('',(#456));
#987=EDGE_LOOP('',(#457));
#988=EDGE_LOOP('',(#458));
#989=EDGE_LOOP('',(#459));
#990=EDGE_LOOP('',(#460));
#991=EDGE_LOOP('',(#461));
#992=EDGE_LOOP('',(#462));
#993=EDGE_LOOP('',(#463));
#994=EDGE_LOOP('',(#464));
#995=EDGE_LOOP('',(#465));
#996=EDGE_LOOP('',(#466));
#997=EDGE_LOOP('',(#467));
#998=FACE_BOUND('',#814,.T.);
#999=FACE_BOUND('',#815,.T.);
#1000=FACE_BOUND('',#816,.T.);
#1001=FACE_BOUND('',#817,.T.);
#1002=FACE_BOUND('',#818,.T.);
#1003=FACE_BOUND('',#819,.T.);
#1004=FACE_BOUND('',#820,.T.);
#1005=FACE_BOUND('',#821,.T.);
#1006=FACE_BOUND('',#822,.T.);
#1007=FACE_BOUND('',#823,.T.);
#1008=FACE_BOUND('',#824,.T.);
#1009=FACE_BOUND('',#825,.T.);
#1010=FACE_BOUND('',#826,.T.);
#1011=FACE_BOUND('',#827,.T.);
#1012=FACE_BOUND('',#828,.T.);
#1013=FACE_BOUND('',#829,.T.);
#1014=FACE_BOUND('',#830,.T.);
#1015=FACE_BOUND('',#831,.T.);
#1016=FACE_BOUND('',#832,.T.);
#1017=FACE_BOUND('',#833,.T.);
#1018=FACE_BOUND('',#834,.T.);
#1019=FACE_BOUND('',#835,.T.);
#1020=FACE_BOUND('',#836,.T.);
#1021=FACE_BOUND('',#837,.T.);
#1022=FACE_BOUND('',#838,.T.);
#1023=FACE_BOUND('',#839,.T.);
#1024=FACE_BOUND('',#840,.T.);
#1025=FACE_BOUND('',#841,.T.);
#1026=FACE_BOUND('',#842,.T.);
#1027=FACE_BOUND('',#843,.T.);
#1028=FACE_BOUND('',#844,.T.);
#1029=FACE_BOUND('',#845,.T.);
#1030=FACE_BOUND('',#846,.T.);
#1031=FACE_BOUND('',#847,.T.);
#1032=FACE_BOUND('',#848,.T.);
#1033=FACE_BOUND('',#849,.T.);
#1034=FACE_BOUND('',#850,.T.);
#1035=FACE_BOUND('',#851,.T.);
#1036=FACE_BOUND('',#852,.T.);
#1037=FACE_BOUND('',#853,.T.);
#1038=FACE_BOUND('',#854,.T.);
#1039=FACE_BOUND('',#855,.T.);
#1040=FACE_BOUND('',#856,.T.);
#1041=FACE_BOUND('',#857,.T.);
#1042=FACE_BOUND('',#858,.T.);
#1043=FACE_BOUND('',#859,.T.);
#1044=FACE_BOUND('',#860,.T.);
#1045=FACE_BOUND('',#861,.T.);
#1046=FACE_BOUND('',#862,.T.);
#1047=FACE_BOUND('',#863,.T.);
#1048=FACE_BOUND('',#864,.T.);
#1049=FACE_BOUND('',#865,.T.);
#1050=FACE_BOUND('',#866,.T.);
#1051=FACE_BOUND('',#867,.T.);
#1052=FACE_BOUND('',#868,.T.);
#1053=FACE_BOUND('',#869,.T.);
#1054=FACE_BOUND('',#870,.T.);
#1055=FACE_BOUND('',#871,.T.);
#1056=FACE_BOUND('',#872,.T.);
#1057=FACE_BOUND('',#873,.T.);
#1058=FACE_BOUND('',#874,.T.);
#1059=FACE_BOUND('',#875,.T.);
#1060=FACE_BOUND('',#876,.T.);
#1061=FACE_BOUND('',#877,.T.);
#1062=FACE_BOUND('',#878,.T.);
#1063=FACE_BOUND('',#879,.T.);
#1064=FACE_BOUND('',#880,.T.);
#1065=FACE_BOUND('',#881,.T.);
#1066=FACE_BOUND('',#882,.T.);
#1067=FACE_BOUND('',#883,.T.);
#1068=FACE_BOUND('',#884,.T.);
#1069=FACE_BOUND('',#885,.T.);
#1070=FACE_BOUND('',#886,.T.);
#1071=FACE_BOUND('',#887,.T.);
#1072=FACE_BOUND('',#888,.T.);
#1073=FACE_BOUND('',#889,.T.);
#1074=FACE_BOUND('',#890,.T.);
#1075=FACE_BOUND('',#891,.T.);
#1076=FACE_BOUND('',#892,.T.);
#1077=FACE_BOUND('',#893,.T.);
#1078=FACE_BOUND('',#894,.T.);
#1079=FACE_BOUND('',#895,.T.);
#1080=FACE_BOUND('',#896,.T.);
#1081=FACE_BOUND('',#897,.T.);
#1082=FACE_BOUND('',#898,.T.);
#1083=FACE_BOUND('',#899,.T.);
#1084=FACE_BOUND('',#900,.T.);
#1085=FACE_BOUND('',#901,.T.);
#1086=FACE_BOUND('',#902,.T.);
#1087=FACE_BOUND('',#903,.T.);
#1088=FACE_BOUND('',#904,.T.);
#1089=FACE_BOUND('',#905,.T.);
#1090=FACE_BOUND('',#906,.T.);
#1091=FACE_BOUND('',#907,.T.);
#1092=FACE_BOUND('',#908,.T.);
#1093=FACE_BOUND('',#909,.T.);
#1094=FACE_BOUND('',#910,.T.);
#1095=FACE_BOUND('',#911,.T.);
#1096=FACE_BOUND('',#912,.T.);
#1097=FACE_BOUND('',#913,.T.);
#1098=FACE_BOUND('',#914,.T.);
#1099=FACE_BOUND('',#915,.T.);
#1100=FACE_BOUND('',#916,.T.);
#1101=FACE_BOUND('',#917,.T.);
#1102=FACE_BOUND('',#918,.T.);
#1103=FACE_BOUND('',#919,.T.);
#1104=FACE_BOUND('',#920,.T.);
#1105=FACE_BOUND('',#921,.T.);
#1106=FACE_BOUND('',#922,.T.);
#1107=FACE_BOUND('',#923,.T.);
#1108=FACE_BOUND('',#924,.T.);
#1109=FACE_BOUND('',#925,.T.);
#1110=FACE_BOUND('',#926,.T.);
#1111=FACE_BOUND('',#927,.T.);
#1112=FACE_BOUND('',#928,.T.);
#1113=FACE_BOUND('',#929,.T.);
#1114=FACE_BOUND('',#930,.T.);
#1115=FACE_BOUND('',#931,.T.);
#1116=FACE_BOUND('',#932,.T.);
#1117=FACE_BOUND('',#933,.T.);
#1118=FACE_BOUND('',#934,.T.);
#1119=FACE_BOUND('',#935,.T.);
#1120=FACE_BOUND('',#936,.T.);
#1121=FACE_BOUND('',#937,.T.);
#1122=FACE_BOUND('',#938,.T.);
#1123=FACE_BOUND('',#939,.T.);
#1124=FACE_BOUND('',#940,.T.);
#1125=FACE_BOUND('',#941,.T.);
#1126=FACE_BOUND('',#942,.T.);
#1127=FACE_BOUND('',#943,.T.);
#1128=FACE_BOUND('',#944,.T.);
#1129=FACE_BOUND('',#945,.T.);
#1130=FACE_BOUND('',#946,.T.);
#1131=FACE_BOUND('',#947,.T.);
#1132=FACE_BOUND('',#948,.T.);
#1133=FACE_BOUND('',#949,.T.);
#1134=FACE_BOUND('',#950,.T.);
#1135=FACE_BOUND('',#951,.T.);
#1136=FACE_BOUND('',#952,.T.);
#1137=FACE_BOUND('',#953,.T.);
#1138=FACE_BOUND('',#954,.T.);
#1139=FACE_BOUND('',#955,.T.);
#1140=FACE_BOUND('',#956,.T.);
#1141=FACE_BOUND('',#957,.T.);
#1142=FACE_BOUND('',#958,.T.);
#1143=FACE_BOUND('',#959,.T.);
#1144=FACE_BOUND('',#960,.T.);
#1145=FACE_BOUND('',#961,.T.);
#1146=FACE_BOUND('',#962,.T.);
#1147=FACE_BOUND('',#963,.T.);
#1148=FACE_BOUND('',#964,.T.);
#1149=FACE_BOUND('',#965,.T.);
#1150=FACE_BOUND('',#966,.T.);
#1151=FACE_BOUND('',#967,.T.);
#1152=FACE_BOUND('',#968,.T.);
#1153=FACE_BOUND('',#969,.T.);
#1154=FACE_BOUND('',#970,.T.);
#1155=FACE_BOUND('',#971,.T.);
#1156=FACE_BOUND('',#972,.T.);
#1157=FACE_BOUND('',#973,.T.);
#1158=FACE_BOUND('',#974,.T.);
#1159=FACE_BOUND('',#975,.T.);
#1160=FACE_BOUND('',#976,.T.);
#1161=FACE_BOUND('',#977,.T.);
#1162=FACE_BOUND('',#978,.T.);
#1163=FACE_BOUND('',#979,.T.);
#1164=FACE_BOUND('',#980,.T.);
#1165=FACE_BOUND('',#981,.T.);
#1166=FACE_BOUND('',#982,.T.);
#1167=FACE_BOUND('',#983,.T.);
#1168=FACE_BOUND('',#984,.T.);
#1169=FACE_BOUND('',#985,.T.);
#1170=FACE_BOUND('',#986,.T.);
#1171=FACE_BOUND('',#987,.T.);
#1172=FACE_BOUND('',#988,.T.);
#1173=FACE_BOUND('',#989,.T.);
#1174=FACE_BOUND('',#990,.T.);
#1175=FACE_BOUND('',#991,.T.);
#1176=FACE_BOUND('',#992,.T.);
#1177=FACE_BOUND('',#993,.T.);
#1178=FACE_BOUND('',#994,.T.);
#1179=FACE_BOUND('',#995,.T.);
#1180=FACE_BOUND('',#996,.T.);
#1181=FACE_BOUND('',#997,.T.);
#1182=PLANE('',#1355);
#1183=PLANE('',#1360);
#1184=PLANE('',#1361);
#1185=PLANE('',#1362);
#1186=PLANE('',#1367);
#1187=PLANE('',#1368);
#1188=PLANE('',#1373);
#1189=PLANE('',#1374);
#1190=PLANE('',#1375);
#1191=PLANE('',#1376);
#1192=PLANE('',#1392);
#1193=PLANE('',#1393);
#1194=PLANE('',#1394);
#1195=PLANE('',#1395);
#1196=PLANE('',#1411);
#1197=PLANE('',#1414);
#1198=PLANE('',#1417);
#1199=PLANE('',#1420);
#1200=PLANE('',#1423);
#1201=PLANE('',#1426);
#1202=PLANE('',#1429);
#1203=PLANE('',#1432);
#1204=PLANE('',#1435);
#1205=PLANE('',#1438);
#1206=PLANE('',#1441);
#1207=PLANE('',#1444);
#1208=PLANE('',#1447);
#1209=PLANE('',#1450);
#1210=PLANE('',#1453);
#1211=PLANE('',#1456);
#1212=PLANE('',#1459);
#1213=PLANE('',#1462);
#1214=PLANE('',#1465);
#1215=PLANE('',#1468);
#1216=PLANE('',#1471);
#1217=PLANE('',#1474);
#1218=PLANE('',#1477);
#1219=PLANE('',#1480);
#1220=PLANE('',#1483);
#1221=PLANE('',#1486);
#1222=PLANE('',#1489);
#1223=PLANE('',#1492);
#1224=PLANE('',#1495);
#1225=PLANE('',#1498);
#1226=PLANE('',#1501);
#1227=PLANE('',#1502);
#1228=PLANE('',#1503);
#1229=PLANE('',#1504);
#1230=PLANE('',#1511);
#1231=PLANE('',#1512);
#1232=PLANE('',#1513);
#1233=PLANE('',#1514);
#1234=PLANE('',#1515);
#1235=PLANE('',#1516);
#1236=PLANE('',#1519);
#1237=PLANE('',#1522);
#1238=PLANE('',#1525);
#1239=PLANE('',#1528);
#1240=PLANE('',#1531);
#1241=PLANE('',#1534);
#1242=ADVANCED_FACE('',(#998,#999,#1000,#1001,#1002),#1182,.T.);
#1243=ADVANCED_FACE('',(#1003),#1183,.F.);
#1244=ADVANCED_FACE('',(#1004),#1184,.T.);
#1245=ADVANCED_FACE('',(#1005,#1006,#1007,#1008,#1009),#1185,.F.);
#1246=ADVANCED_FACE('',(#1010),#1186,.T.);
#1247=ADVANCED_FACE('',(#1011),#1187,.T.);
#1248=ADVANCED_FACE('',(#1012,#1013),#12,.F.);
#1249=ADVANCED_FACE('',(#1014,#1015),#13,.F.);
#1250=ADVANCED_FACE('',(#1016,#1017),#14,.F.);
#1251=ADVANCED_FACE('',(#1018,#1019),#15,.F.);
#1252=ADVANCED_FACE('',(#1020),#1188,.T.);
#1253=ADVANCED_FACE('',(#1021),#1189,.F.);
#1254=ADVANCED_FACE('',(#1022),#1190,.T.);
#1255=ADVANCED_FACE('',(#1023,#1024,#1025,#1026,#1027,#1028,#1029,#1030,
#1031,#1032,#1033,#1034,#1035,#1036,#1037,#1038),#1191,.T.);
#1256=ADVANCED_FACE('',(#1039),#1192,.F.);
#1257=ADVANCED_FACE('',(#1040),#1193,.F.);
#1258=ADVANCED_FACE('',(#1041),#1194,.T.);
#1259=ADVANCED_FACE('',(#1042,#1043,#1044,#1045,#1046,#1047,#1048,#1049,
#1050,#1051,#1052,#1053,#1054,#1055,#1056,#1057),#1195,.T.);
#1260=ADVANCED_FACE('',(#1058),#1196,.T.);
#1261=ADVANCED_FACE('',(#1059,#1060),#16,.T.);
#1262=ADVANCED_FACE('',(#1061),#1197,.T.);
#1263=ADVANCED_FACE('',(#1062,#1063),#17,.T.);
#1264=ADVANCED_FACE('',(#1064),#1198,.T.);
#1265=ADVANCED_FACE('',(#1065,#1066),#18,.T.);
#1266=ADVANCED_FACE('',(#1067),#1199,.T.);
#1267=ADVANCED_FACE('',(#1068,#1069),#19,.T.);
#1268=ADVANCED_FACE('',(#1070),#1200,.T.);
#1269=ADVANCED_FACE('',(#1071,#1072),#20,.T.);
#1270=ADVANCED_FACE('',(#1073),#1201,.T.);
#1271=ADVANCED_FACE('',(#1074,#1075),#21,.T.);
#1272=ADVANCED_FACE('',(#1076),#1202,.T.);
#1273=ADVANCED_FACE('',(#1077,#1078),#22,.T.);
#1274=ADVANCED_FACE('',(#1079),#1203,.T.);
#1275=ADVANCED_FACE('',(#1080,#1081),#23,.T.);
#1276=ADVANCED_FACE('',(#1082),#1204,.T.);
#1277=ADVANCED_FACE('',(#1083,#1084),#24,.T.);
#1278=ADVANCED_FACE('',(#1085),#1205,.T.);
#1279=ADVANCED_FACE('',(#1086,#1087),#25,.T.);
#1280=ADVANCED_FACE('',(#1088),#1206,.T.);
#1281=ADVANCED_FACE('',(#1089,#1090),#26,.T.);
#1282=ADVANCED_FACE('',(#1091),#1207,.T.);
#1283=ADVANCED_FACE('',(#1092,#1093),#27,.T.);
#1284=ADVANCED_FACE('',(#1094),#1208,.T.);
#1285=ADVANCED_FACE('',(#1095,#1096),#28,.T.);
#1286=ADVANCED_FACE('',(#1097),#1209,.T.);
#1287=ADVANCED_FACE('',(#1098,#1099),#29,.T.);
#1288=ADVANCED_FACE('',(#1100),#1210,.T.);
#1289=ADVANCED_FACE('',(#1101,#1102),#30,.T.);
#1290=ADVANCED_FACE('',(#1103),#1211,.T.);
#1291=ADVANCED_FACE('',(#1104,#1105),#31,.T.);
#1292=ADVANCED_FACE('',(#1106),#1212,.T.);
#1293=ADVANCED_FACE('',(#1107,#1108),#32,.T.);
#1294=ADVANCED_FACE('',(#1109),#1213,.T.);
#1295=ADVANCED_FACE('',(#1110,#1111),#33,.T.);
#1296=ADVANCED_FACE('',(#1112),#1214,.T.);
#1297=ADVANCED_FACE('',(#1113,#1114),#34,.T.);
#1298=ADVANCED_FACE('',(#1115),#1215,.T.);
#1299=ADVANCED_FACE('',(#1116,#1117),#35,.T.);
#1300=ADVANCED_FACE('',(#1118),#1216,.T.);
#1301=ADVANCED_FACE('',(#1119,#1120),#36,.T.);
#1302=ADVANCED_FACE('',(#1121),#1217,.T.);
#1303=ADVANCED_FACE('',(#1122,#1123),#37,.T.);
#1304=ADVANCED_FACE('',(#1124),#1218,.T.);
#1305=ADVANCED_FACE('',(#1125,#1126),#38,.T.);
#1306=ADVANCED_FACE('',(#1127),#1219,.T.);
#1307=ADVANCED_FACE('',(#1128,#1129),#39,.T.);
#1308=ADVANCED_FACE('',(#1130),#1220,.T.);
#1309=ADVANCED_FACE('',(#1131,#1132),#40,.T.);
#1310=ADVANCED_FACE('',(#1133),#1221,.T.);
#1311=ADVANCED_FACE('',(#1134,#1135),#41,.T.);
#1312=ADVANCED_FACE('',(#1136),#1222,.T.);
#1313=ADVANCED_FACE('',(#1137,#1138),#42,.T.);
#1314=ADVANCED_FACE('',(#1139),#1223,.T.);
#1315=ADVANCED_FACE('',(#1140,#1141),#43,.T.);
#1316=ADVANCED_FACE('',(#1142),#1224,.T.);
#1317=ADVANCED_FACE('',(#1143,#1144),#44,.T.);
#1318=ADVANCED_FACE('',(#1145),#1225,.T.);
#1319=ADVANCED_FACE('',(#1146,#1147),#45,.T.);
#1320=ADVANCED_FACE('',(#1148),#1226,.F.);
#1321=ADVANCED_FACE('',(#1149),#1227,.F.);
#1322=ADVANCED_FACE('',(#1150),#1228,.T.);
#1323=ADVANCED_FACE('',(#1151,#1152,#1153,#1154,#1155,#1156,#1157),#1229,
 .T.);
#1324=ADVANCED_FACE('',(#1158),#1230,.T.);
#1325=ADVANCED_FACE('',(#1159),#1231,.F.);
#1326=ADVANCED_FACE('',(#1160),#1232,.F.);
#1327=ADVANCED_FACE('',(#1161),#1233,.T.);
#1328=ADVANCED_FACE('',(#1162),#1234,.T.);
#1329=ADVANCED_FACE('',(#1163),#1235,.F.);
#1330=ADVANCED_FACE('',(#1164,#1165),#46,.T.);
#1331=ADVANCED_FACE('',(#1166),#1236,.T.);
#1332=ADVANCED_FACE('',(#1167,#1168),#47,.T.);
#1333=ADVANCED_FACE('',(#1169),#1237,.T.);
#1334=ADVANCED_FACE('',(#1170,#1171),#48,.T.);
#1335=ADVANCED_FACE('',(#1172),#1238,.T.);
#1336=ADVANCED_FACE('',(#1173,#1174),#49,.T.);
#1337=ADVANCED_FACE('',(#1175),#1239,.T.);
#1338=ADVANCED_FACE('',(#1176,#1177),#50,.T.);
#1339=ADVANCED_FACE('',(#1178),#1240,.T.);
#1340=ADVANCED_FACE('',(#1179,#1180),#51,.T.);
#1341=ADVANCED_FACE('',(#1181),#1241,.T.);
#1342=CLOSED_SHELL('',(#1242,#1243,#1244,#1245,#1246,#1247,#1248,#1249,
#1250,#1251,#1252,#1253,#1254,#1255,#1256,#1257,#1258,#1259,#1260,#1261,
#1262,#1263,#1264,#1265,#1266,#1267,#1268,#1269,#1270,#1271,#1272,#1273,
#1274,#1275,#1276,#1277,#1278,#1279,#1280,#1281,#1282,#1283,#1284,#1285,
#1286,#1287,#1288,#1289,#1290,#1291,#1292,#1293,#1294,#1295,#1296,#1297,
#1298,#1299,#1300,#1301,#1302,#1303,#1304,#1305,#1306,#1307,#1308,#1309,
#1310,#1311,#1312,#1313,#1314,#1315,#1316,#1317,#1318,#1319,#1320,#1321,
#1322,#1323,#1324,#1325,#1326,#1327,#1328,#1329,#1330,#1331,#1332,#1333,
#1334,#1335,#1336,#1337,#1338,#1339,#1340,#1341));
#1343=STYLED_ITEM('',(#1344),#1351);
#1344=PRESENTATION_STYLE_ASSIGNMENT((#1345));
#1345=SURFACE_STYLE_USAGE(.BOTH.,#1346);
#1346=SURFACE_SIDE_STYLE('',(#1347));
#1347=SURFACE_STYLE_FILL_AREA(#1348);
#1348=FILL_AREA_STYLE('',(#1349));
#1349=FILL_AREA_STYLE_COLOUR('',#1350);
#1350=COLOUR_RGB('',0.615686274509804,0.811764705882353,0.929411764705882);
#1351=MANIFOLD_SOLID_BREP('Part 1',#1342);
#1352=SHAPE_DEFINITION_REPRESENTATION(#2334,#1353);
#1353=SHAPE_REPRESENTATION('Part 1',(#1354),#2329);
#1354=AXIS2_PLACEMENT_3D('',#1961,#1535,#1536);
#1355=AXIS2_PLACEMENT_3D('',#1962,#1537,#1538);
#1356=AXIS2_PLACEMENT_3D('',#1963,#1539,#1540);
#1357=AXIS2_PLACEMENT_3D('',#1965,#1541,#1542);
#1358=AXIS2_PLACEMENT_3D('',#1967,#1543,#1544);
#1359=AXIS2_PLACEMENT_3D('',#1969,#1545,#1546);
#1360=AXIS2_PLACEMENT_3D('',#1995,#1559,#1560);
#1361=AXIS2_PLACEMENT_3D('',#2006,#1567,#1568);
#1362=AXIS2_PLACEMENT_3D('',#2017,#1575,#1576);
#1363=AXIS2_PLACEMENT_3D('',#2036,#1587,#1588);
#1364=AXIS2_PLACEMENT_3D('',#2038,#1589,#1590);
#1365=AXIS2_PLACEMENT_3D('',#2040,#1591,#1592);
#1366=AXIS2_PLACEMENT_3D('',#2042,#1593,#1594);
#1367=AXIS2_PLACEMENT_3D('',#2044,#1595,#1596);
#1368=AXIS2_PLACEMENT_3D('',#2050,#1600,#1601);
#1369=AXIS2_PLACEMENT_3D('',#2052,#1603,#1604);
#1370=AXIS2_PLACEMENT_3D('',#2053,#1605,#1606);
#1371=AXIS2_PLACEMENT_3D('',#2054,#1607,#1608);
#1372=AXIS2_PLACEMENT_3D('',#2055,#1609,#1610);
#1373=AXIS2_PLACEMENT_3D('',#2056,#1611,#1612);
#1374=AXIS2_PLACEMENT_3D('',#2060,#1615,#1616);
#1375=AXIS2_PLACEMENT_3D('',#2064,#1619,#1620);
#1376=AXIS2_PLACEMENT_3D('',#2066,#1622,#1623);
#1377=AXIS2_PLACEMENT_3D('',#2067,#1624,#1625);
#1378=AXIS2_PLACEMENT_3D('',#2069,#1626,#1627);
#1379=AXIS2_PLACEMENT_3D('',#2071,#1628,#1629);
#1380=AXIS2_PLACEMENT_3D('',#2073,#1630,#1631);
#1381=AXIS2_PLACEMENT_3D('',#2075,#1632,#1633);
#1382=AXIS2_PLACEMENT_3D('',#2077,#1634,#1635);
#1383=AXIS2_PLACEMENT_3D('',#2079,#1636,#1637);
#1384=AXIS2_PLACEMENT_3D('',#2081,#1638,#1639);
#1385=AXIS2_PLACEMENT_3D('',#2083,#1640,#1641);
#1386=AXIS2_PLACEMENT_3D('',#2085,#1642,#1643);
#1387=AXIS2_PLACEMENT_3D('',#2087,#1644,#1645);
#1388=AXIS2_PLACEMENT_3D('',#2089,#1646,#1647);
#1389=AXIS2_PLACEMENT_3D('',#2091,#1648,#1649);
#1390=AXIS2_PLACEMENT_3D('',#2093,#1650,#1651);
#1391=AXIS2_PLACEMENT_3D('',#2095,#1652,#1653);
#1392=AXIS2_PLACEMENT_3D('',#2097,#1654,#1655);
#1393=AXIS2_PLACEMENT_3D('',#2101,#1658,#1659);
#1394=AXIS2_PLACEMENT_3D('',#2105,#1662,#1663);
#1395=AXIS2_PLACEMENT_3D('',#2107,#1665,#1666);
#1396=AXIS2_PLACEMENT_3D('',#2108,#1667,#1668);
#1397=AXIS2_PLACEMENT_3D('',#2110,#1669,#1670);
#1398=AXIS2_PLACEMENT_3D('',#2112,#1671,#1672);
#1399=AXIS2_PLACEMENT_3D('',#2114,#1673,#1674);
#1400=AXIS2_PLACEMENT_3D('',#2116,#1675,#1676);
#1401=AXIS2_PLACEMENT_3D('',#2118,#1677,#1678);
#1402=AXIS2_PLACEMENT_3D('',#2120,#1679,#1680);
#1403=AXIS2_PLACEMENT_3D('',#2122,#1681,#1682);
#1404=AXIS2_PLACEMENT_3D('',#2124,#1683,#1684);
#1405=AXIS2_PLACEMENT_3D('',#2126,#1685,#1686);
#1406=AXIS2_PLACEMENT_3D('',#2128,#1687,#1688);
#1407=AXIS2_PLACEMENT_3D('',#2130,#1689,#1690);
#1408=AXIS2_PLACEMENT_3D('',#2132,#1691,#1692);
#1409=AXIS2_PLACEMENT_3D('',#2134,#1693,#1694);
#1410=AXIS2_PLACEMENT_3D('',#2136,#1695,#1696);
#1411=AXIS2_PLACEMENT_3D('',#2138,#1697,#1698);
#1412=AXIS2_PLACEMENT_3D('',#2139,#1699,#1700);
#1413=AXIS2_PLACEMENT_3D('',#2141,#1701,#1702);
#1414=AXIS2_PLACEMENT_3D('',#2142,#1703,#1704);
#1415=AXIS2_PLACEMENT_3D('',#2143,#1705,#1706);
#1416=AXIS2_PLACEMENT_3D('',#2145,#1707,#1708);
#1417=AXIS2_PLACEMENT_3D('',#2146,#1709,#1710);
#1418=AXIS2_PLACEMENT_3D('',#2147,#1711,#1712);
#1419=AXIS2_PLACEMENT_3D('',#2149,#1713,#1714);
#1420=AXIS2_PLACEMENT_3D('',#2150,#1715,#1716);
#1421=AXIS2_PLACEMENT_3D('',#2151,#1717,#1718);
#1422=AXIS2_PLACEMENT_3D('',#2153,#1719,#1720);
#1423=AXIS2_PLACEMENT_3D('',#2154,#1721,#1722);
#1424=AXIS2_PLACEMENT_3D('',#2155,#1723,#1724);
#1425=AXIS2_PLACEMENT_3D('',#2157,#1725,#1726);
#1426=AXIS2_PLACEMENT_3D('',#2158,#1727,#1728);
#1427=AXIS2_PLACEMENT_3D('',#2159,#1729,#1730);
#1428=AXIS2_PLACEMENT_3D('',#2161,#1731,#1732);
#1429=AXIS2_PLACEMENT_3D('',#2162,#1733,#1734);
#1430=AXIS2_PLACEMENT_3D('',#2163,#1735,#1736);
#1431=AXIS2_PLACEMENT_3D('',#2165,#1737,#1738);
#1432=AXIS2_PLACEMENT_3D('',#2166,#1739,#1740);
#1433=AXIS2_PLACEMENT_3D('',#2167,#1741,#1742);
#1434=AXIS2_PLACEMENT_3D('',#2169,#1743,#1744);
#1435=AXIS2_PLACEMENT_3D('',#2170,#1745,#1746);
#1436=AXIS2_PLACEMENT_3D('',#2171,#1747,#1748);
#1437=AXIS2_PLACEMENT_3D('',#2173,#1749,#1750);
#1438=AXIS2_PLACEMENT_3D('',#2174,#1751,#1752);
#1439=AXIS2_PLACEMENT_3D('',#2175,#1753,#1754);
#1440=AXIS2_PLACEMENT_3D('',#2177,#1755,#1756);
#1441=AXIS2_PLACEMENT_3D('',#2178,#1757,#1758);
#1442=AXIS2_PLACEMENT_3D('',#2179,#1759,#1760);
#1443=AXIS2_PLACEMENT_3D('',#2181,#1761,#1762);
#1444=AXIS2_PLACEMENT_3D('',#2182,#1763,#1764);
#1445=AXIS2_PLACEMENT_3D('',#2183,#1765,#1766);
#1446=AXIS2_PLACEMENT_3D('',#2185,#1767,#1768);
#1447=AXIS2_PLACEMENT_3D('',#2186,#1769,#1770);
#1448=AXIS2_PLACEMENT_3D('',#2187,#1771,#1772);
#1449=AXIS2_PLACEMENT_3D('',#2189,#1773,#1774);
#1450=AXIS2_PLACEMENT_3D('',#2190,#1775,#1776);
#1451=AXIS2_PLACEMENT_3D('',#2191,#1777,#1778);
#1452=AXIS2_PLACEMENT_3D('',#2193,#1779,#1780);
#1453=AXIS2_PLACEMENT_3D('',#2194,#1781,#1782);
#1454=AXIS2_PLACEMENT_3D('',#2195,#1783,#1784);
#1455=AXIS2_PLACEMENT_3D('',#2197,#1785,#1786);
#1456=AXIS2_PLACEMENT_3D('',#2198,#1787,#1788);
#1457=AXIS2_PLACEMENT_3D('',#2199,#1789,#1790);
#1458=AXIS2_PLACEMENT_3D('',#2201,#1791,#1792);
#1459=AXIS2_PLACEMENT_3D('',#2202,#1793,#1794);
#1460=AXIS2_PLACEMENT_3D('',#2203,#1795,#1796);
#1461=AXIS2_PLACEMENT_3D('',#2205,#1797,#1798);
#1462=AXIS2_PLACEMENT_3D('',#2206,#1799,#1800);
#1463=AXIS2_PLACEMENT_3D('',#2207,#1801,#1802);
#1464=AXIS2_PLACEMENT_3D('',#2209,#1803,#1804);
#1465=AXIS2_PLACEMENT_3D('',#2210,#1805,#1806);
#1466=AXIS2_PLACEMENT_3D('',#2211,#1807,#1808);
#1467=AXIS2_PLACEMENT_3D('',#2213,#1809,#1810);
#1468=AXIS2_PLACEMENT_3D('',#2214,#1811,#1812);
#1469=AXIS2_PLACEMENT_3D('',#2215,#1813,#1814);
#1470=AXIS2_PLACEMENT_3D('',#2217,#1815,#1816);
#1471=AXIS2_PLACEMENT_3D('',#2218,#1817,#1818);
#1472=AXIS2_PLACEMENT_3D('',#2219,#1819,#1820);
#1473=AXIS2_PLACEMENT_3D('',#2221,#1821,#1822);
#1474=AXIS2_PLACEMENT_3D('',#2222,#1823,#1824);
#1475=AXIS2_PLACEMENT_3D('',#2223,#1825,#1826);
#1476=AXIS2_PLACEMENT_3D('',#2225,#1827,#1828);
#1477=AXIS2_PLACEMENT_3D('',#2226,#1829,#1830);
#1478=AXIS2_PLACEMENT_3D('',#2227,#1831,#1832);
#1479=AXIS2_PLACEMENT_3D('',#2229,#1833,#1834);
#1480=AXIS2_PLACEMENT_3D('',#2230,#1835,#1836);
#1481=AXIS2_PLACEMENT_3D('',#2231,#1837,#1838);
#1482=AXIS2_PLACEMENT_3D('',#2233,#1839,#1840);
#1483=AXIS2_PLACEMENT_3D('',#2234,#1841,#1842);
#1484=AXIS2_PLACEMENT_3D('',#2235,#1843,#1844);
#1485=AXIS2_PLACEMENT_3D('',#2237,#1845,#1846);
#1486=AXIS2_PLACEMENT_3D('',#2238,#1847,#1848);
#1487=AXIS2_PLACEMENT_3D('',#2239,#1849,#1850);
#1488=AXIS2_PLACEMENT_3D('',#2241,#1851,#1852);
#1489=AXIS2_PLACEMENT_3D('',#2242,#1853,#1854);
#1490=AXIS2_PLACEMENT_3D('',#2243,#1855,#1856);
#1491=AXIS2_PLACEMENT_3D('',#2245,#1857,#1858);
#1492=AXIS2_PLACEMENT_3D('',#2246,#1859,#1860);
#1493=AXIS2_PLACEMENT_3D('',#2247,#1861,#1862);
#1494=AXIS2_PLACEMENT_3D('',#2249,#1863,#1864);
#1495=AXIS2_PLACEMENT_3D('',#2250,#1865,#1866);
#1496=AXIS2_PLACEMENT_3D('',#2251,#1867,#1868);
#1497=AXIS2_PLACEMENT_3D('',#2253,#1869,#1870);
#1498=AXIS2_PLACEMENT_3D('',#2254,#1871,#1872);
#1499=AXIS2_PLACEMENT_3D('',#2255,#1873,#1874);
#1500=AXIS2_PLACEMENT_3D('',#2257,#1875,#1876);
#1501=AXIS2_PLACEMENT_3D('',#2258,#1877,#1878);
#1502=AXIS2_PLACEMENT_3D('',#2262,#1881,#1882);
#1503=AXIS2_PLACEMENT_3D('',#2266,#1885,#1886);
#1504=AXIS2_PLACEMENT_3D('',#2268,#1888,#1889);
#1505=AXIS2_PLACEMENT_3D('',#2269,#1890,#1891);
#1506=AXIS2_PLACEMENT_3D('',#2271,#1892,#1893);
#1507=AXIS2_PLACEMENT_3D('',#2273,#1894,#1895);
#1508=AXIS2_PLACEMENT_3D('',#2275,#1896,#1897);
#1509=AXIS2_PLACEMENT_3D('',#2277,#1898,#1899);
#1510=AXIS2_PLACEMENT_3D('',#2279,#1900,#1901);
#1511=AXIS2_PLACEMENT_3D('',#2281,#1902,#1903);
#1512=AXIS2_PLACEMENT_3D('',#2287,#1907,#1908);
#1513=AXIS2_PLACEMENT_3D('',#2293,#1912,#1913);
#1514=AXIS2_PLACEMENT_3D('',#2299,#1917,#1918);
#1515=AXIS2_PLACEMENT_3D('',#2302,#1921,#1922);
#1516=AXIS2_PLACEMENT_3D('',#2303,#1923,#1924);
#1517=AXIS2_PLACEMENT_3D('',#2304,#1925,#1926);
#1518=AXIS2_PLACEMENT_3D('',#2305,#1927,#1928);
#1519=AXIS2_PLACEMENT_3D('',#2307,#1929,#1930);
#1520=AXIS2_PLACEMENT_3D('',#2308,#1931,#1932);
#1521=AXIS2_PLACEMENT_3D('',#2309,#1933,#1934);
#1522=AXIS2_PLACEMENT_3D('',#2311,#1935,#1936);
#1523=AXIS2_PLACEMENT_3D('',#2312,#1937,#1938);
#1524=AXIS2_PLACEMENT_3D('',#2313,#1939,#1940);
#1525=AXIS2_PLACEMENT_3D('',#2315,#1941,#1942);
#1526=AXIS2_PLACEMENT_3D('',#2316,#1943,#1944);
#1527=AXIS2_PLACEMENT_3D('',#2317,#1945,#1946);
#1528=AXIS2_PLACEMENT_3D('',#2319,#1947,#1948);
#1529=AXIS2_PLACEMENT_3D('',#2320,#1949,#1950);
#1530=AXIS2_PLACEMENT_3D('',#2321,#1951,#1952);
#1531=AXIS2_PLACEMENT_3D('',#2323,#1953,#1954);
#1532=AXIS2_PLACEMENT_3D('',#2324,#1955,#1956);
#1533=AXIS2_PLACEMENT_3D('',#2325,#1957,#1958);
#1534=AXIS2_PLACEMENT_3D('',#2327,#1959,#1960);
#1535=DIRECTION('',(0.,0.,1.));
#1536=DIRECTION('',(1.,0.,0.));
#1537=DIRECTION('',(0.,0.,1.));
#1538=DIRECTION('',(1.,0.,0.));
#1539=DIRECTION('',(0.,0.,1.));
#1540=DIRECTION('',(1.,0.,0.));
#1541=DIRECTION('',(0.,0.,1.));
#1542=DIRECTION('',(1.,0.,0.));
#1543=DIRECTION('',(0.,0.,1.));
#1544=DIRECTION('',(1.,0.,0.));
#1545=DIRECTION('',(0.,0.,1.));
#1546=DIRECTION('',(1.,0.,0.));
#1547=DIRECTION('',(1.,0.,0.));
#1548=DIRECTION('',(0.,-1.,0.));
#1549=DIRECTION('',(1.,0.,0.));
#1550=DIRECTION('',(0.,-1.,0.));
#1551=DIRECTION('',(1.,0.,0.));
#1552=DIRECTION('',(0.,1.,0.));
#1553=DIRECTION('',(1.,0.,0.));
#1554=DIRECTION('',(0.,1.,0.));
#1555=DIRECTION('',(1.,0.,0.));
#1556=DIRECTION('',(0.,1.,0.));
#1557=DIRECTION('',(1.,0.,0.));
#1558=DIRECTION('',(-1.95131999547447E-16,1.,0.));
#1559=DIRECTION('',(0.,1.,0.));
#1560=DIRECTION('',(0.,0.,1.));
#1561=DIRECTION('',(1.,0.,0.));
#1562=DIRECTION('',(0.,0.,-1.));
#1563=DIRECTION('',(0.,0.,-1.));
#1564=DIRECTION('',(1.,0.,0.));
#1565=DIRECTION('',(0.,0.,-1.));
#1566=DIRECTION('',(0.,0.,-1.));
#1567=DIRECTION('',(0.,1.,0.));
#1568=DIRECTION('',(0.,0.,1.));
#1569=DIRECTION('',(1.,0.,0.));
#1570=DIRECTION('',(0.,0.,-1.));
#1571=DIRECTION('',(0.,0.,-1.));
#1572=DIRECTION('',(1.,0.,0.));
#1573=DIRECTION('',(0.,0.,-1.));
#1574=DIRECTION('',(0.,0.,-1.));
#1575=DIRECTION('',(0.,0.,1.));
#1576=DIRECTION('',(1.,0.,0.));
#1577=DIRECTION('',(0.,-1.,0.));
#1578=DIRECTION('',(1.,0.,0.));
#1579=DIRECTION('',(-1.95131999547447E-16,1.,0.));
#1580=DIRECTION('',(0.,1.,0.));
#1581=DIRECTION('',(1.,0.,0.));
#1582=DIRECTION('',(0.,-1.,0.));
#1583=DIRECTION('',(1.,0.,0.));
#1584=DIRECTION('',(0.,1.,0.));
#1585=DIRECTION('',(-1.95131999547447E-16,1.,0.));
#1586=DIRECTION('',(1.,0.,0.));
#1587=DIRECTION('',(0.,0.,1.));
#1588=DIRECTION('',(1.,0.,0.));
#1589=DIRECTION('',(0.,0.,1.));
#1590=DIRECTION('',(1.,0.,0.));
#1591=DIRECTION('',(0.,0.,1.));
#1592=DIRECTION('',(1.,0.,0.));
#1593=DIRECTION('',(0.,0.,1.));
#1594=DIRECTION('',(1.,0.,0.));
#1595=DIRECTION('',(-1.,0.,0.));
#1596=DIRECTION('',(0.,-1.,0.));
#1597=DIRECTION('',(0.,0.,1.));
#1598=DIRECTION('',(0.,1.,0.));
#1599=DIRECTION('',(0.,0.,1.));
#1600=DIRECTION('',(1.,1.95131999547447E-16,0.));
#1601=DIRECTION('',(-1.95131999547447E-16,1.,0.));
#1602=DIRECTION('',(-1.95131999547447E-16,1.,0.));
#1603=DIRECTION('',(0.,0.,1.));
#1604=DIRECTION('',(1.,0.,0.));
#1605=DIRECTION('',(0.,0.,1.));
#1606=DIRECTION('',(1.,0.,0.));
#1607=DIRECTION('',(0.,0.,1.));
#1608=DIRECTION('',(1.,0.,0.));
#1609=DIRECTION('',(0.,0.,1.));
#1610=DIRECTION('',(1.,0.,0.));
#1611=DIRECTION('',(-1.,0.,0.));
#1612=DIRECTION('',(0.,0.,1.));
#1613=DIRECTION('',(0.,1.,0.));
#1614=DIRECTION('',(0.,0.,-1.));
#1615=DIRECTION('',(-1.,0.,0.));
#1616=DIRECTION('',(0.,0.,1.));
#1617=DIRECTION('',(0.,0.,-1.));
#1618=DIRECTION('',(0.,1.,0.));
#1619=DIRECTION('',(0.,1.,0.));
#1620=DIRECTION('',(0.,0.,1.));
#1621=DIRECTION('',(1.,0.,0.));
#1622=DIRECTION('',(0.,0.,1.));
#1623=DIRECTION('',(1.,0.,0.));
#1624=DIRECTION('',(0.,0.,1.));
#1625=DIRECTION('',(1.,0.,0.));
#1626=DIRECTION('',(0.,0.,1.));
#1627=DIRECTION('',(1.,0.,0.));
#1628=DIRECTION('',(0.,0.,1.));
#1629=DIRECTION('',(1.,0.,0.));
#1630=DIRECTION('',(0.,0.,1.));
#1631=DIRECTION('',(1.,0.,0.));
#1632=DIRECTION('',(0.,0.,1.));
#1633=DIRECTION('',(1.,0.,0.));
#1634=DIRECTION('',(0.,0.,1.));
#1635=DIRECTION('',(1.,0.,0.));
#1636=DIRECTION('',(0.,0.,1.));
#1637=DIRECTION('',(1.,0.,0.));
#1638=DIRECTION('',(0.,0.,1.));
#1639=DIRECTION('',(1.,0.,0.));
#1640=DIRECTION('',(0.,0.,1.));
#1641=DIRECTION('',(1.,0.,0.));
#1642=DIRECTION('',(0.,0.,1.));
#1643=DIRECTION('',(1.,0.,0.));
#1644=DIRECTION('',(0.,0.,1.));
#1645=DIRECTION('',(1.,0.,0.));
#1646=DIRECTION('',(0.,0.,1.));
#1647=DIRECTION('',(1.,0.,0.));
#1648=DIRECTION('',(0.,0.,1.));
#1649=DIRECTION('',(1.,0.,0.));
#1650=DIRECTION('',(0.,0.,1.));
#1651=DIRECTION('',(1.,0.,0.));
#1652=DIRECTION('',(0.,0.,1.));
#1653=DIRECTION('',(1.,0.,0.));
#1654=DIRECTION('',(1.,0.,0.));
#1655=DIRECTION('',(0.,0.,-1.));
#1656=DIRECTION('',(0.,0.,-1.));
#1657=DIRECTION('',(0.,-1.,0.));
#1658=DIRECTION('',(0.,1.,0.));
#1659=DIRECTION('',(0.,0.,1.));
#1660=DIRECTION('',(0.,0.,-1.));
#1661=DIRECTION('',(1.,0.,0.));
#1662=DIRECTION('',(1.,0.,0.));
#1663=DIRECTION('',(0.,0.,-1.));
#1664=DIRECTION('',(0.,-1.,0.));
#1665=DIRECTION('',(0.,0.,1.));
#1666=DIRECTION('',(1.,0.,0.));
#1667=DIRECTION('',(0.,0.,1.));
#1668=DIRECTION('',(1.,0.,0.));
#1669=DIRECTION('',(0.,0.,1.));
#1670=DIRECTION('',(1.,0.,0.));
#1671=DIRECTION('',(0.,0.,1.));
#1672=DIRECTION('',(1.,0.,0.));
#1673=DIRECTION('',(0.,0.,1.));
#1674=DIRECTION('',(1.,0.,0.));
#1675=DIRECTION('',(0.,0.,1.));
#1676=DIRECTION('',(1.,0.,0.));
#1677=DIRECTION('',(0.,0.,1.));
#1678=DIRECTION('',(1.,0.,0.));
#1679=DIRECTION('',(0.,0.,1.));
#1680=DIRECTION('',(1.,0.,0.));
#1681=DIRECTION('',(0.,0.,1.));
#1682=DIRECTION('',(1.,0.,0.));
#1683=DIRECTION('',(0.,0.,1.));
#1684=DIRECTION('',(1.,0.,0.));
#1685=DIRECTION('',(0.,0.,1.));
#1686=DIRECTION('',(1.,0.,0.));
#1687=DIRECTION('',(0.,0.,1.));
#1688=DIRECTION('',(1.,0.,0.));
#1689=DIRECTION('',(0.,0.,1.));
#1690=DIRECTION('',(1.,0.,0.));
#1691=DIRECTION('',(0.,0.,1.));
#1692=DIRECTION('',(1.,0.,0.));
#1693=DIRECTION('',(0.,0.,1.));
#1694=DIRECTION('',(1.,0.,0.));
#1695=DIRECTION('',(0.,0.,1.));
#1696=DIRECTION('',(1.,0.,0.));
#1697=DIRECTION('',(0.,0.,1.));
#1698=DIRECTION('',(1.,0.,0.));
#1699=DIRECTION('',(0.,0.,1.));
#1700=DIRECTION('',(1.,0.,0.));
#1701=DIRECTION('',(0.,0.,-1.));
#1702=DIRECTION('',(-1.,0.,0.));
#1703=DIRECTION('',(0.,0.,1.));
#1704=DIRECTION('',(1.,0.,0.));
#1705=DIRECTION('',(0.,0.,1.));
#1706=DIRECTION('',(1.,0.,0.));
#1707=DIRECTION('',(0.,0.,-1.));
#1708=DIRECTION('',(-1.,0.,0.));
#1709=DIRECTION('',(0.,0.,1.));
#1710=DIRECTION('',(1.,0.,0.));
#1711=DIRECTION('',(0.,0.,1.));
#1712=DIRECTION('',(1.,0.,0.));
#1713=DIRECTION('',(0.,0.,-1.));
#1714=DIRECTION('',(-1.,0.,0.));
#1715=DIRECTION('',(0.,0.,1.));
#1716=DIRECTION('',(1.,0.,0.));
#1717=DIRECTION('',(0.,0.,1.));
#1718=DIRECTION('',(1.,0.,0.));
#1719=DIRECTION('',(0.,0.,-1.));
#1720=DIRECTION('',(-1.,0.,0.));
#1721=DIRECTION('',(0.,0.,1.));
#1722=DIRECTION('',(1.,0.,0.));
#1723=DIRECTION('',(0.,0.,1.));
#1724=DIRECTION('',(1.,0.,0.));
#1725=DIRECTION('',(0.,0.,-1.));
#1726=DIRECTION('',(-1.,0.,0.));
#1727=DIRECTION('',(0.,0.,1.));
#1728=DIRECTION('',(1.,0.,0.));
#1729=DIRECTION('',(0.,0.,1.));
#1730=DIRECTION('',(1.,0.,0.));
#1731=DIRECTION('',(0.,0.,-1.));
#1732=DIRECTION('',(-1.,0.,0.));
#1733=DIRECTION('',(0.,0.,1.));
#1734=DIRECTION('',(1.,0.,0.));
#1735=DIRECTION('',(0.,0.,1.));
#1736=DIRECTION('',(1.,0.,0.));
#1737=DIRECTION('',(0.,0.,-1.));
#1738=DIRECTION('',(-1.,0.,0.));
#1739=DIRECTION('',(0.,0.,1.));
#1740=DIRECTION('',(1.,0.,0.));
#1741=DIRECTION('',(0.,0.,1.));
#1742=DIRECTION('',(1.,0.,0.));
#1743=DIRECTION('',(0.,0.,-1.));
#1744=DIRECTION('',(-1.,0.,0.));
#1745=DIRECTION('',(0.,0.,1.));
#1746=DIRECTION('',(1.,0.,0.));
#1747=DIRECTION('',(0.,0.,1.));
#1748=DIRECTION('',(1.,0.,0.));
#1749=DIRECTION('',(0.,0.,-1.));
#1750=DIRECTION('',(-1.,0.,0.));
#1751=DIRECTION('',(0.,0.,1.));
#1752=DIRECTION('',(1.,0.,0.));
#1753=DIRECTION('',(0.,0.,1.));
#1754=DIRECTION('',(1.,0.,0.));
#1755=DIRECTION('',(0.,0.,-1.));
#1756=DIRECTION('',(-1.,0.,0.));
#1757=DIRECTION('',(0.,0.,1.));
#1758=DIRECTION('',(1.,0.,0.));
#1759=DIRECTION('',(0.,0.,1.));
#1760=DIRECTION('',(1.,0.,0.));
#1761=DIRECTION('',(0.,0.,-1.));
#1762=DIRECTION('',(-1.,0.,0.));
#1763=DIRECTION('',(0.,0.,1.));
#1764=DIRECTION('',(1.,0.,0.));
#1765=DIRECTION('',(0.,0.,1.));
#1766=DIRECTION('',(1.,0.,0.));
#1767=DIRECTION('',(0.,0.,-1.));
#1768=DIRECTION('',(-1.,0.,0.));
#1769=DIRECTION('',(0.,0.,1.));
#1770=DIRECTION('',(1.,0.,0.));
#1771=DIRECTION('',(0.,0.,1.));
#1772=DIRECTION('',(1.,0.,0.));
#1773=DIRECTION('',(0.,0.,-1.));
#1774=DIRECTION('',(-1.,0.,0.));
#1775=DIRECTION('',(0.,0.,1.));
#1776=DIRECTION('',(1.,0.,0.));
#1777=DIRECTION('',(0.,0.,1.));
#1778=DIRECTION('',(1.,0.,0.));
#1779=DIRECTION('',(0.,0.,-1.));
#1780=DIRECTION('',(-1.,0.,0.));
#1781=DIRECTION('',(0.,0.,1.));
#1782=DIRECTION('',(1.,0.,0.));
#1783=DIRECTION('',(0.,0.,1.));
#1784=DIRECTION('',(1.,0.,0.));
#1785=DIRECTION('',(0.,0.,-1.));
#1786=DIRECTION('',(-1.,0.,0.));
#1787=DIRECTION('',(0.,0.,1.));
#1788=DIRECTION('',(1.,0.,0.));
#1789=DIRECTION('',(0.,0.,1.));
#1790=DIRECTION('',(1.,0.,0.));
#1791=DIRECTION('',(0.,0.,-1.));
#1792=DIRECTION('',(-1.,0.,0.));
#1793=DIRECTION('',(0.,0.,1.));
#1794=DIRECTION('',(1.,0.,0.));
#1795=DIRECTION('',(0.,0.,1.));
#1796=DIRECTION('',(1.,0.,0.));
#1797=DIRECTION('',(0.,0.,-1.));
#1798=DIRECTION('',(-1.,0.,0.));
#1799=DIRECTION('',(0.,0.,1.));
#1800=DIRECTION('',(1.,0.,0.));
#1801=DIRECTION('',(0.,0.,1.));
#1802=DIRECTION('',(1.,0.,0.));
#1803=DIRECTION('',(0.,0.,-1.));
#1804=DIRECTION('',(-1.,0.,0.));
#1805=DIRECTION('',(0.,0.,1.));
#1806=DIRECTION('',(1.,0.,0.));
#1807=DIRECTION('',(0.,0.,1.));
#1808=DIRECTION('',(1.,0.,0.));
#1809=DIRECTION('',(0.,0.,-1.));
#1810=DIRECTION('',(-1.,0.,0.));
#1811=DIRECTION('',(0.,0.,1.));
#1812=DIRECTION('',(1.,0.,0.));
#1813=DIRECTION('',(0.,0.,1.));
#1814=DIRECTION('',(1.,0.,0.));
#1815=DIRECTION('',(0.,0.,-1.));
#1816=DIRECTION('',(-1.,0.,0.));
#1817=DIRECTION('',(0.,0.,1.));
#1818=DIRECTION('',(1.,0.,0.));
#1819=DIRECTION('',(0.,0.,1.));
#1820=DIRECTION('',(1.,0.,0.));
#1821=DIRECTION('',(0.,0.,-1.));
#1822=DIRECTION('',(-1.,0.,0.));
#1823=DIRECTION('',(0.,0.,1.));
#1824=DIRECTION('',(1.,0.,0.));
#1825=DIRECTION('',(0.,0.,1.));
#1826=DIRECTION('',(1.,0.,0.));
#1827=DIRECTION('',(0.,0.,-1.));
#1828=DIRECTION('',(-1.,0.,0.));
#1829=DIRECTION('',(0.,0.,1.));
#1830=DIRECTION('',(1.,0.,0.));
#1831=DIRECTION('',(0.,0.,1.));
#1832=DIRECTION('',(1.,0.,0.));
#1833=DIRECTION('',(0.,0.,-1.));
#1834=DIRECTION('',(-1.,0.,0.));
#1835=DIRECTION('',(0.,0.,1.));
#1836=DIRECTION('',(1.,0.,0.));
#1837=DIRECTION('',(0.,0.,1.));
#1838=DIRECTION('',(1.,0.,0.));
#1839=DIRECTION('',(0.,0.,-1.));
#1840=DIRECTION('',(-1.,0.,0.));
#1841=DIRECTION('',(0.,0.,1.));
#1842=DIRECTION('',(1.,0.,0.));
#1843=DIRECTION('',(0.,0.,1.));
#1844=DIRECTION('',(1.,0.,0.));
#1845=DIRECTION('',(0.,0.,-1.));
#1846=DIRECTION('',(-1.,0.,0.));
#1847=DIRECTION('',(0.,0.,1.));
#1848=DIRECTION('',(1.,0.,0.));
#1849=DIRECTION('',(0.,0.,1.));
#1850=DIRECTION('',(1.,0.,0.));
#1851=DIRECTION('',(0.,0.,-1.));
#1852=DIRECTION('',(-1.,0.,0.));
#1853=DIRECTION('',(0.,0.,1.));
#1854=DIRECTION('',(1.,0.,0.));
#1855=DIRECTION('',(0.,0.,1.));
#1856=DIRECTION('',(1.,0.,0.));
#1857=DIRECTION('',(0.,0.,-1.));
#1858=DIRECTION('',(-1.,0.,0.));
#1859=DIRECTION('',(0.,0.,1.));
#1860=DIRECTION('',(1.,0.,0.));
#1861=DIRECTION('',(0.,0.,1.));
#1862=DIRECTION('',(1.,0.,0.));
#1863=DIRECTION('',(0.,0.,-1.));
#1864=DIRECTION('',(-1.,0.,0.));
#1865=DIRECTION('',(0.,0.,1.));
#1866=DIRECTION('',(1.,0.,0.));
#1867=DIRECTION('',(0.,0.,1.));
#1868=DIRECTION('',(1.,0.,0.));
#1869=DIRECTION('',(0.,0.,-1.));
#1870=DIRECTION('',(-1.,0.,0.));
#1871=DIRECTION('',(0.,0.,1.));
#1872=DIRECTION('',(1.,0.,0.));
#1873=DIRECTION('',(0.,0.,1.));
#1874=DIRECTION('',(1.,0.,0.));
#1875=DIRECTION('',(0.,0.,-1.));
#1876=DIRECTION('',(-1.,0.,0.));
#1877=DIRECTION('',(0.,-1.,0.));
#1878=DIRECTION('',(0.,0.,-1.));
#1879=DIRECTION('',(0.,0.,1.));
#1880=DIRECTION('',(1.,0.,0.));
#1881=DIRECTION('',(-1.,0.,0.));
#1882=DIRECTION('',(0.,0.,1.));
#1883=DIRECTION('',(0.,0.,1.));
#1884=DIRECTION('',(0.,-1.,0.));
#1885=DIRECTION('',(0.,-1.,0.));
#1886=DIRECTION('',(0.,0.,-1.));
#1887=DIRECTION('',(1.,0.,0.));
#1888=DIRECTION('',(0.,0.,-1.));
#1889=DIRECTION('',(1.,0.,0.));
#1890=DIRECTION('',(0.,0.,-1.));
#1891=DIRECTION('',(0.980064637585188,-0.198678902138637,0.));
#1892=DIRECTION('',(0.,0.,-1.));
#1893=DIRECTION('',(0.980064637585188,-0.198678902138637,0.));
#1894=DIRECTION('',(0.,0.,-1.));
#1895=DIRECTION('',(0.999691191102348,0.0248499986392264,0.));
#1896=DIRECTION('',(0.,0.,-1.));
#1897=DIRECTION('',(0.999691191102348,0.0248499986392264,0.));
#1898=DIRECTION('',(0.,0.,-1.));
#1899=DIRECTION('',(1.,-4.33680868994202E-16,0.));
#1900=DIRECTION('',(0.,0.,-1.));
#1901=DIRECTION('',(0.992024947622811,0.12604167284656,0.));
#1902=DIRECTION('',(-1.,0.,0.));
#1903=DIRECTION('',(0.,0.,1.));
#1904=DIRECTION('',(0.,0.,1.));
#1905=DIRECTION('',(0.,-1.,0.));
#1906=DIRECTION('',(0.,0.,1.));
#1907=DIRECTION('',(0.,-1.,0.));
#1908=DIRECTION('',(0.,0.,-1.));
#1909=DIRECTION('',(1.,0.,0.));
#1910=DIRECTION('',(0.,0.,1.));
#1911=DIRECTION('',(1.,0.,0.));
#1912=DIRECTION('',(-1.,0.,0.));
#1913=DIRECTION('',(0.,0.,1.));
#1914=DIRECTION('',(0.,-1.,0.));
#1915=DIRECTION('',(0.,0.,1.));
#1916=DIRECTION('',(0.,-1.,0.));
#1917=DIRECTION('',(0.,-1.,0.));
#1918=DIRECTION('',(0.,0.,-1.));
#1919=DIRECTION('',(1.,0.,0.));
#1920=DIRECTION('',(1.,0.,0.));
#1921=DIRECTION('',(0.,0.,-1.));
#1922=DIRECTION('',(1.,0.,0.));
#1923=DIRECTION('',(0.,0.,-1.));
#1924=DIRECTION('',(1.,0.,0.));
#1925=DIRECTION('',(0.,0.,1.));
#1926=DIRECTION('',(1.,0.,0.));
#1927=DIRECTION('',(0.,0.,-1.));
#1928=DIRECTION('',(0.992024947622811,0.12604167284656,0.));
#1929=DIRECTION('',(0.,0.,-1.));
#1930=DIRECTION('',(1.,0.,0.));
#1931=DIRECTION('',(0.,0.,1.));
#1932=DIRECTION('',(1.,0.,0.));
#1933=DIRECTION('',(0.,0.,-1.));
#1934=DIRECTION('',(0.980064637585188,-0.198678902138637,0.));
#1935=DIRECTION('',(0.,0.,-1.));
#1936=DIRECTION('',(1.,0.,0.));
#1937=DIRECTION('',(0.,0.,1.));
#1938=DIRECTION('',(1.,0.,0.));
#1939=DIRECTION('',(0.,0.,-1.));
#1940=DIRECTION('',(1.,-4.33680868994202E-16,0.));
#1941=DIRECTION('',(0.,0.,-1.));
#1942=DIRECTION('',(1.,0.,0.));
#1943=DIRECTION('',(0.,0.,1.));
#1944=DIRECTION('',(1.,0.,0.));
#1945=DIRECTION('',(0.,0.,-1.));
#1946=DIRECTION('',(0.999691191102348,0.0248499986392264,0.));
#1947=DIRECTION('',(0.,0.,-1.));
#1948=DIRECTION('',(1.,0.,0.));
#1949=DIRECTION('',(0.,0.,1.));
#1950=DIRECTION('',(1.,0.,0.));
#1951=DIRECTION('',(0.,0.,-1.));
#1952=DIRECTION('',(0.999691191102348,0.0248499986392264,0.));
#1953=DIRECTION('',(0.,0.,-1.));
#1954=DIRECTION('',(1.,0.,0.));
#1955=DIRECTION('',(0.,0.,1.));
#1956=DIRECTION('',(1.,0.,0.));
#1957=DIRECTION('',(0.,0.,-1.));
#1958=DIRECTION('',(0.980064637585188,-0.198678902138637,0.));
#1959=DIRECTION('',(0.,0.,-1.));
#1960=DIRECTION('',(1.,0.,0.));
#1961=CARTESIAN_POINT('',(0.,0.,0.));
#1962=CARTESIAN_POINT('',(-0.0201272800226509,0.00324629954830179,0.0016));
#1963=CARTESIAN_POINT('',(-0.022667280022651,-0.00437370045169821,0.0016));
#1964=CARTESIAN_POINT('',(-0.022167280022651,-0.00437370045169821,0.0016));
#1965=CARTESIAN_POINT('',(0.017972719977349,0.0108662995483018,0.0016));
#1966=CARTESIAN_POINT('',(0.018472719977349,0.0108662995483018,0.0016));
#1967=CARTESIAN_POINT('',(0.017972719977349,-0.00437370045169821,0.0016));
#1968=CARTESIAN_POINT('',(0.018472719977349,-0.00437370045169821,0.0016));
#1969=CARTESIAN_POINT('',(-0.022667280022651,0.0108662995483018,0.0016));
#1970=CARTESIAN_POINT('',(-0.022167280022651,0.0108662995483018,0.0016));
#1971=CARTESIAN_POINT('',(-0.0201272800226509,0.0121362995483018,0.0016));
#1972=CARTESIAN_POINT('',(0.016702719977349,0.0121362995483018,0.0016));
#1973=CARTESIAN_POINT('',(0.019242719977349,0.0121362995483018,0.0016));
#1974=CARTESIAN_POINT('',(0.016702719977349,0.0108662995483018,0.0016));
#1975=CARTESIAN_POINT('',(0.016702719977349,0.00959629954830179,0.0016));
#1976=CARTESIAN_POINT('',(-0.00234728002265096,0.00959629954830179,0.0016));
#1977=CARTESIAN_POINT('',(-0.0213972800226509,0.00959629954830179,0.0016));
#1978=CARTESIAN_POINT('',(-0.0213972800226509,0.0108662995483018,0.0016));
#1979=CARTESIAN_POINT('',(-0.0213972800226509,0.0121362995483018,0.0016));
#1980=CARTESIAN_POINT('',(-0.0201272800226509,0.0121362995483018,0.0016));
#1981=CARTESIAN_POINT('',(-0.0239372800226509,0.0121362995483018,0.0016));
#1982=CARTESIAN_POINT('',(-0.0239372800226509,0.00324629954830179,0.0016));
#1983=CARTESIAN_POINT('',(-0.0239372800226509,-0.00564370045169821,0.0016));
#1984=CARTESIAN_POINT('',(-0.0201272800226509,-0.00564370045169821,0.0016));
#1985=CARTESIAN_POINT('',(-0.0213972800226509,-0.00564370045169821,0.0016));
#1986=CARTESIAN_POINT('',(-0.0213972800226509,-0.00437370045169822,0.0016));
#1987=CARTESIAN_POINT('',(-0.0213972800226509,-0.00310370045169821,0.0016));
#1988=CARTESIAN_POINT('',(-0.00234728002265096,-0.00310370045169821,0.0016));
#1989=CARTESIAN_POINT('',(0.016702719977349,-0.00310370045169821,0.0016));
#1990=CARTESIAN_POINT('',(0.016702719977349,-0.00437370045169821,0.0016));
#1991=CARTESIAN_POINT('',(0.016702719977349,-0.00564370045169821,0.0016));
#1992=CARTESIAN_POINT('',(-0.0201272800226509,-0.00564370045169821,0.0016));
#1993=CARTESIAN_POINT('',(0.019242719977349,-0.0056437004516982,0.0016));
#1994=CARTESIAN_POINT('',(0.019242719977349,0.00324629954830179,0.0016));
#1995=CARTESIAN_POINT('',(-0.0201272800226509,-0.00564370045169821,0.0016));
#1996=CARTESIAN_POINT('',(-0.0201272800226509,-0.00564370045169821,0.));
#1997=CARTESIAN_POINT('',(-0.0239372800226509,-0.00564370045169821,0.));
#1998=CARTESIAN_POINT('',(0.019242719977349,-0.0056437004516982,0.));
#1999=CARTESIAN_POINT('',(0.019242719977349,-0.0056437004516982,0.0016));
#2000=CARTESIAN_POINT('',(0.016702719977349,-0.00564370045169821,0.00414));
#2001=CARTESIAN_POINT('',(0.016702719977349,-0.00564370045169821,0.00414));
#2002=CARTESIAN_POINT('',(-0.0201272800226509,-0.00564370045169821,0.00414));
#2003=CARTESIAN_POINT('',(-0.0213972800226509,-0.00564370045169821,0.00414));
#2004=CARTESIAN_POINT('',(-0.0213972800226509,-0.00564370045169821,0.00414));
#2005=CARTESIAN_POINT('',(-0.0239372800226509,-0.00564370045169821,0.0016));
#2006=CARTESIAN_POINT('',(-0.0201272800226509,0.0121362995483018,0.0016));
#2007=CARTESIAN_POINT('',(-0.0201272800226509,0.0121362995483018,0.));
#2008=CARTESIAN_POINT('',(-0.0239372800226509,0.0121362995483018,0.));
#2009=CARTESIAN_POINT('',(0.019242719977349,0.0121362995483018,0.));
#2010=CARTESIAN_POINT('',(-0.0239372800226509,0.0121362995483018,0.0016));
#2011=CARTESIAN_POINT('',(-0.0213972800226509,0.0121362995483018,0.00414));
#2012=CARTESIAN_POINT('',(-0.0213972800226509,0.0121362995483018,0.00414));
#2013=CARTESIAN_POINT('',(-0.0201272800226509,0.0121362995483018,0.00414));
#2014=CARTESIAN_POINT('',(0.016702719977349,0.0121362995483018,0.00414));
#2015=CARTESIAN_POINT('',(0.016702719977349,0.0121362995483018,0.00414));
#2016=CARTESIAN_POINT('',(0.019242719977349,0.0121362995483018,0.0016));
#2017=CARTESIAN_POINT('',(-0.0201272800226509,0.00324629954830179,0.));
#2018=CARTESIAN_POINT('',(0.013242719977349,0.00324629954830179,0.));
#2019=CARTESIAN_POINT('',(0.013242719977349,0.00724629954830179,0.));
#2020=CARTESIAN_POINT('',(0.013242719977349,-0.000753700451698211,0.));
#2021=CARTESIAN_POINT('',(0.016742719977349,-0.000753700451698211,0.));
#2022=CARTESIAN_POINT('',(0.019242719977349,-0.000753700451698211,0.));
#2023=CARTESIAN_POINT('',(0.019242719977349,0.00324629954830179,0.));
#2024=CARTESIAN_POINT('',(-0.0239372800226509,0.00324629954830179,0.));
#2025=CARTESIAN_POINT('',(-0.0239372800226509,-0.000563700451698211,0.));
#2026=CARTESIAN_POINT('',(-0.0213972800226509,-0.000563700451698211,0.));
#2027=CARTESIAN_POINT('',(-0.0188572800226509,-0.000563700451698211,0.));
#2028=CARTESIAN_POINT('',(-0.0188572800226509,0.00324629954830179,0.));
#2029=CARTESIAN_POINT('',(-0.0188572800226509,0.00705629954830179,0.));
#2030=CARTESIAN_POINT('',(-0.0213972800226509,0.00705629954830179,0.));
#2031=CARTESIAN_POINT('',(-0.0239372800226509,0.00705629954830179,0.));
#2032=CARTESIAN_POINT('',(-0.0239372800226509,0.00324629954830179,0.));
#2033=CARTESIAN_POINT('',(0.019242719977349,0.00324629954830179,0.));
#2034=CARTESIAN_POINT('',(0.019242719977349,0.00724629954830179,0.));
#2035=CARTESIAN_POINT('',(0.016742719977349,0.00724629954830179,0.));
#2036=CARTESIAN_POINT('',(-0.022667280022651,-0.00437370045169821,0.));
#2037=CARTESIAN_POINT('',(-0.022167280022651,-0.00437370045169821,0.));
#2038=CARTESIAN_POINT('',(0.017972719977349,0.0108662995483018,0.));
#2039=CARTESIAN_POINT('',(0.018472719977349,0.0108662995483018,0.));
#2040=CARTESIAN_POINT('',(0.017972719977349,-0.00437370045169821,0.));
#2041=CARTESIAN_POINT('',(0.018472719977349,-0.00437370045169821,0.));
#2042=CARTESIAN_POINT('',(-0.022667280022651,0.0108662995483018,0.));
#2043=CARTESIAN_POINT('',(-0.022167280022651,0.0108662995483018,0.));
#2044=CARTESIAN_POINT('',(-0.0239372800226509,0.00324629954830179,0.0008));
#2045=CARTESIAN_POINT('',(-0.0239372800226509,0.00705629954830179,-0.00254));
#2046=CARTESIAN_POINT('',(-0.0239372800226509,0.00705629954830179,-0.00254));
#2047=CARTESIAN_POINT('',(-0.0239372800226509,0.00324629954830179,-0.00254));
#2048=CARTESIAN_POINT('',(-0.0239372800226509,-0.000563700451698211,-0.00254));
#2049=CARTESIAN_POINT('',(-0.0239372800226509,-0.000563700451698211,-0.00254));
#2050=CARTESIAN_POINT('',(0.019242719977349,0.00324629954830179,0.0008));
#2051=CARTESIAN_POINT('',(0.019242719977349,0.00324629954830179,0.));
#2052=CARTESIAN_POINT('',(-0.022667280022651,0.0108662995483018,-0.0014));
#2053=CARTESIAN_POINT('',(0.017972719977349,-0.00437370045169821,-0.0014));
#2054=CARTESIAN_POINT('',(0.017972719977349,0.0108662995483018,-0.0014));
#2055=CARTESIAN_POINT('',(-0.022667280022651,-0.00437370045169821,-0.0014));
#2056=CARTESIAN_POINT('',(-0.0213972800226509,-0.00437370045169822,0.00414));
#2057=CARTESIAN_POINT('',(-0.0213972800226509,-0.00437370045169822,0.00414));
#2058=CARTESIAN_POINT('',(-0.0213972800226509,-0.00310370045169821,0.00414));
#2059=CARTESIAN_POINT('',(-0.0213972800226509,-0.00310370045169821,0.00414));
#2060=CARTESIAN_POINT('',(0.016702719977349,-0.00437370045169821,0.00414));
#2061=CARTESIAN_POINT('',(0.016702719977349,-0.00310370045169821,0.00414));
#2062=CARTESIAN_POINT('',(0.016702719977349,-0.00310370045169821,0.00414));
#2063=CARTESIAN_POINT('',(0.016702719977349,-0.00437370045169821,0.00414));
#2064=CARTESIAN_POINT('',(-0.00234728002265096,-0.00310370045169821,0.00414));
#2065=CARTESIAN_POINT('',(-0.00234728002265096,-0.00310370045169821,0.00414));
#2066=CARTESIAN_POINT('',(-0.00234728002265096,0.00324629954830179,0.00414));
#2067=CARTESIAN_POINT('',(-0.0201272800226509,-0.00437370045169821,0.00414));
#2068=CARTESIAN_POINT('',(-0.0196272800226509,-0.00437370045169821,0.00414));
#2069=CARTESIAN_POINT('',(-0.0175872800226509,-0.00437370045169821,0.00414));
#2070=CARTESIAN_POINT('',(-0.0170872800226509,-0.00437370045169821,0.00414));
#2071=CARTESIAN_POINT('',(-0.015047280022651,-0.00437370045169821,0.00414));
#2072=CARTESIAN_POINT('',(-0.0145472800226509,-0.00437370045169821,0.00414));
#2073=CARTESIAN_POINT('',(-0.012507280022651,-0.00437370045169821,0.00414));
#2074=CARTESIAN_POINT('',(-0.012007280022651,-0.00437370045169821,0.00414));
#2075=CARTESIAN_POINT('',(-0.00996728002265095,-0.00437370045169821,0.00414));
#2076=CARTESIAN_POINT('',(-0.00946728002265095,-0.00437370045169821,0.00414));
#2077=CARTESIAN_POINT('',(-0.00742728002265095,-0.00437370045169821,0.00414));
#2078=CARTESIAN_POINT('',(-0.00692728002265095,-0.00437370045169821,0.00414));
#2079=CARTESIAN_POINT('',(-0.00488728002265096,-0.00437370045169821,0.00414));
#2080=CARTESIAN_POINT('',(-0.00438728002265096,-0.00437370045169821,0.00414));
#2081=CARTESIAN_POINT('',(-0.00234728002265096,-0.00437370045169821,0.00414));
#2082=CARTESIAN_POINT('',(-0.00184728002265096,-0.00437370045169821,0.00414));
#2083=CARTESIAN_POINT('',(0.000192719977349046,-0.00437370045169821,0.00414));
#2084=CARTESIAN_POINT('',(0.000692719977349046,-0.00437370045169821,0.00414));
#2085=CARTESIAN_POINT('',(0.00273271997734904,-0.00437370045169821,0.00414));
#2086=CARTESIAN_POINT('',(0.00323271997734904,-0.00437370045169821,0.00414));
#2087=CARTESIAN_POINT('',(0.00527271997734905,-0.00437370045169821,0.00414));
#2088=CARTESIAN_POINT('',(0.00577271997734905,-0.00437370045169821,0.00414));
#2089=CARTESIAN_POINT('',(0.00781271997734905,-0.00437370045169821,0.00414));
#2090=CARTESIAN_POINT('',(0.00831271997734905,-0.00437370045169821,0.00414));
#2091=CARTESIAN_POINT('',(0.010352719977349,-0.00437370045169821,0.00414));
#2092=CARTESIAN_POINT('',(0.010852719977349,-0.00437370045169821,0.00414));
#2093=CARTESIAN_POINT('',(0.012892719977349,-0.00437370045169821,0.00414));
#2094=CARTESIAN_POINT('',(0.013392719977349,-0.00437370045169821,0.00414));
#2095=CARTESIAN_POINT('',(0.015432719977349,-0.00437370045169821,0.00414));
#2096=CARTESIAN_POINT('',(0.0159327199773491,-0.00437370045169821,0.00414));
#2097=CARTESIAN_POINT('',(-0.0213972800226509,0.0108662995483018,0.00414));
#2098=CARTESIAN_POINT('',(-0.0213972800226509,0.00959629954830179,0.00414));
#2099=CARTESIAN_POINT('',(-0.0213972800226509,0.00959629954830179,0.00414));
#2100=CARTESIAN_POINT('',(-0.0213972800226509,0.0108662995483018,0.00414));
#2101=CARTESIAN_POINT('',(-0.00234728002265096,0.00959629954830179,0.00414));
#2102=CARTESIAN_POINT('',(0.016702719977349,0.00959629954830179,0.00414));
#2103=CARTESIAN_POINT('',(0.016702719977349,0.00959629954830179,0.00414));
#2104=CARTESIAN_POINT('',(-0.00234728002265096,0.00959629954830179,0.00414));
#2105=CARTESIAN_POINT('',(0.016702719977349,0.0108662995483018,0.00414));
#2106=CARTESIAN_POINT('',(0.016702719977349,0.0108662995483018,0.00414));
#2107=CARTESIAN_POINT('',(-0.00234728002265096,0.00324629954830179,0.00414));
#2108=CARTESIAN_POINT('',(-0.0201272800226509,0.0108662995483018,0.00414));
#2109=CARTESIAN_POINT('',(-0.0196272800226509,0.0108662995483018,0.00414));
#2110=CARTESIAN_POINT('',(-0.0175872800226509,0.0108662995483018,0.00414));
#2111=CARTESIAN_POINT('',(-0.0170872800226509,0.0108662995483018,0.00414));
#2112=CARTESIAN_POINT('',(-0.015047280022651,0.0108662995483018,0.00414));
#2113=CARTESIAN_POINT('',(-0.0145472800226509,0.0108662995483018,0.00414));
#2114=CARTESIAN_POINT('',(-0.012507280022651,0.0108662995483018,0.00414));
#2115=CARTESIAN_POINT('',(-0.012007280022651,0.0108662995483018,0.00414));
#2116=CARTESIAN_POINT('',(-0.00996728002265095,0.0108662995483018,0.00414));
#2117=CARTESIAN_POINT('',(-0.00946728002265095,0.0108662995483018,0.00414));
#2118=CARTESIAN_POINT('',(-0.00742728002265095,0.0108662995483018,0.00414));
#2119=CARTESIAN_POINT('',(-0.00692728002265095,0.0108662995483018,0.00414));
#2120=CARTESIAN_POINT('',(-0.00488728002265096,0.0108662995483018,0.00414));
#2121=CARTESIAN_POINT('',(-0.00438728002265096,0.0108662995483018,0.00414));
#2122=CARTESIAN_POINT('',(-0.00234728002265096,0.0108662995483018,0.00414));
#2123=CARTESIAN_POINT('',(-0.00184728002265096,0.0108662995483018,0.00414));
#2124=CARTESIAN_POINT('',(0.000192719977349046,0.0108662995483018,0.00414));
#2125=CARTESIAN_POINT('',(0.000692719977349046,0.0108662995483018,0.00414));
#2126=CARTESIAN_POINT('',(0.00273271997734904,0.0108662995483018,0.00414));
#2127=CARTESIAN_POINT('',(0.00323271997734904,0.0108662995483018,0.00414));
#2128=CARTESIAN_POINT('',(0.00527271997734905,0.0108662995483018,0.00414));
#2129=CARTESIAN_POINT('',(0.00577271997734905,0.0108662995483018,0.00414));
#2130=CARTESIAN_POINT('',(0.00781271997734905,0.0108662995483018,0.00414));
#2131=CARTESIAN_POINT('',(0.00831271997734905,0.0108662995483018,0.00414));
#2132=CARTESIAN_POINT('',(0.010352719977349,0.0108662995483018,0.00414));
#2133=CARTESIAN_POINT('',(0.010852719977349,0.0108662995483018,0.00414));
#2134=CARTESIAN_POINT('',(0.012892719977349,0.0108662995483018,0.00414));
#2135=CARTESIAN_POINT('',(0.013392719977349,0.0108662995483018,0.00414));
#2136=CARTESIAN_POINT('',(0.015432719977349,0.0108662995483018,0.00414));
#2137=CARTESIAN_POINT('',(0.0159327199773491,0.0108662995483018,0.00414));
#2138=CARTESIAN_POINT('',(0.012892719977349,0.00324629954830179,0.009));
#2139=CARTESIAN_POINT('',(0.012892719977349,-0.00437370045169821,0.009));
#2140=CARTESIAN_POINT('',(0.013392719977349,-0.00437370045169821,0.009));
#2141=CARTESIAN_POINT('',(0.012892719977349,-0.00437370045169821,0.009));
#2142=CARTESIAN_POINT('',(0.012892719977349,0.00324629954830179,0.009));
#2143=CARTESIAN_POINT('',(0.012892719977349,0.0108662995483018,0.009));
#2144=CARTESIAN_POINT('',(0.013392719977349,0.0108662995483018,0.009));
#2145=CARTESIAN_POINT('',(0.012892719977349,0.0108662995483018,0.009));
#2146=CARTESIAN_POINT('',(0.010352719977349,0.00324629954830179,0.009));
#2147=CARTESIAN_POINT('',(0.010352719977349,-0.00437370045169821,0.009));
#2148=CARTESIAN_POINT('',(0.010852719977349,-0.00437370045169821,0.009));
#2149=CARTESIAN_POINT('',(0.010352719977349,-0.00437370045169821,0.009));
#2150=CARTESIAN_POINT('',(0.010352719977349,0.00324629954830179,0.009));
#2151=CARTESIAN_POINT('',(0.010352719977349,0.0108662995483018,0.009));
#2152=CARTESIAN_POINT('',(0.010852719977349,0.0108662995483018,0.009));
#2153=CARTESIAN_POINT('',(0.010352719977349,0.0108662995483018,0.009));
#2154=CARTESIAN_POINT('',(0.00781271997734905,0.00324629954830179,0.009));
#2155=CARTESIAN_POINT('',(0.00781271997734905,-0.00437370045169821,0.009));
#2156=CARTESIAN_POINT('',(0.00831271997734905,-0.00437370045169821,0.009));
#2157=CARTESIAN_POINT('',(0.00781271997734905,-0.00437370045169821,0.009));
#2158=CARTESIAN_POINT('',(0.00781271997734905,0.00324629954830179,0.009));
#2159=CARTESIAN_POINT('',(0.00781271997734905,0.0108662995483018,0.009));
#2160=CARTESIAN_POINT('',(0.00831271997734905,0.0108662995483018,0.009));
#2161=CARTESIAN_POINT('',(0.00781271997734905,0.0108662995483018,0.009));
#2162=CARTESIAN_POINT('',(0.00527271997734904,0.00324629954830179,0.009));
#2163=CARTESIAN_POINT('',(0.00527271997734905,-0.00437370045169821,0.009));
#2164=CARTESIAN_POINT('',(0.00577271997734905,-0.00437370045169821,0.009));
#2165=CARTESIAN_POINT('',(0.00527271997734905,-0.00437370045169821,0.009));
#2166=CARTESIAN_POINT('',(0.00527271997734904,0.00324629954830179,0.009));
#2167=CARTESIAN_POINT('',(0.00527271997734905,0.0108662995483018,0.009));
#2168=CARTESIAN_POINT('',(0.00577271997734905,0.0108662995483018,0.009));
#2169=CARTESIAN_POINT('',(0.00527271997734905,0.0108662995483018,0.009));
#2170=CARTESIAN_POINT('',(0.00273271997734904,0.00324629954830179,0.009));
#2171=CARTESIAN_POINT('',(0.00273271997734904,-0.00437370045169821,0.009));
#2172=CARTESIAN_POINT('',(0.00323271997734904,-0.00437370045169821,0.009));
#2173=CARTESIAN_POINT('',(0.00273271997734904,-0.00437370045169821,0.009));
#2174=CARTESIAN_POINT('',(0.00273271997734904,0.00324629954830179,0.009));
#2175=CARTESIAN_POINT('',(0.00273271997734904,0.0108662995483018,0.009));
#2176=CARTESIAN_POINT('',(0.00323271997734904,0.0108662995483018,0.009));
#2177=CARTESIAN_POINT('',(0.00273271997734904,0.0108662995483018,0.009));
#2178=CARTESIAN_POINT('',(0.000192719977349043,0.00324629954830179,0.009));
#2179=CARTESIAN_POINT('',(0.000192719977349046,-0.00437370045169821,0.009));
#2180=CARTESIAN_POINT('',(0.000692719977349046,-0.00437370045169821,0.009));
#2181=CARTESIAN_POINT('',(0.000192719977349046,-0.00437370045169821,0.009));
#2182=CARTESIAN_POINT('',(0.000192719977349043,0.00324629954830179,0.009));
#2183=CARTESIAN_POINT('',(0.000192719977349046,0.0108662995483018,0.009));
#2184=CARTESIAN_POINT('',(0.000692719977349046,0.0108662995483018,0.009));
#2185=CARTESIAN_POINT('',(0.000192719977349046,0.0108662995483018,0.009));
#2186=CARTESIAN_POINT('',(-0.00234728002265096,0.00324629954830179,0.009));
#2187=CARTESIAN_POINT('',(-0.00234728002265096,-0.00437370045169821,0.009));
#2188=CARTESIAN_POINT('',(-0.00184728002265096,-0.00437370045169821,0.009));
#2189=CARTESIAN_POINT('',(-0.00234728002265096,-0.00437370045169821,0.009));
#2190=CARTESIAN_POINT('',(-0.00234728002265096,0.00324629954830179,0.009));
#2191=CARTESIAN_POINT('',(-0.00234728002265096,0.0108662995483018,0.009));
#2192=CARTESIAN_POINT('',(-0.00184728002265096,0.0108662995483018,0.009));
#2193=CARTESIAN_POINT('',(-0.00234728002265096,0.0108662995483018,0.009));
#2194=CARTESIAN_POINT('',(-0.00488728002265096,0.00324629954830179,0.009));
#2195=CARTESIAN_POINT('',(-0.00488728002265096,-0.00437370045169821,0.009));
#2196=CARTESIAN_POINT('',(-0.00438728002265096,-0.00437370045169821,0.009));
#2197=CARTESIAN_POINT('',(-0.00488728002265096,-0.00437370045169821,0.009));
#2198=CARTESIAN_POINT('',(-0.00488728002265096,0.00324629954830179,0.009));
#2199=CARTESIAN_POINT('',(-0.00488728002265096,0.0108662995483018,0.009));
#2200=CARTESIAN_POINT('',(-0.00438728002265096,0.0108662995483018,0.009));
#2201=CARTESIAN_POINT('',(-0.00488728002265096,0.0108662995483018,0.009));
#2202=CARTESIAN_POINT('',(-0.00742728002265096,0.00324629954830179,0.009));
#2203=CARTESIAN_POINT('',(-0.00742728002265095,-0.00437370045169821,0.009));
#2204=CARTESIAN_POINT('',(-0.00692728002265095,-0.00437370045169821,0.009));
#2205=CARTESIAN_POINT('',(-0.00742728002265095,-0.00437370045169821,0.009));
#2206=CARTESIAN_POINT('',(-0.00742728002265096,0.00324629954830179,0.009));
#2207=CARTESIAN_POINT('',(-0.00742728002265095,0.0108662995483018,0.009));
#2208=CARTESIAN_POINT('',(-0.00692728002265095,0.0108662995483018,0.009));
#2209=CARTESIAN_POINT('',(-0.00742728002265095,0.0108662995483018,0.009));
#2210=CARTESIAN_POINT('',(-0.00996728002265096,0.00324629954830179,0.009));
#2211=CARTESIAN_POINT('',(-0.00996728002265095,-0.00437370045169821,0.009));
#2212=CARTESIAN_POINT('',(-0.00946728002265095,-0.00437370045169821,0.009));
#2213=CARTESIAN_POINT('',(-0.00996728002265095,-0.00437370045169821,0.009));
#2214=CARTESIAN_POINT('',(-0.00996728002265096,0.00324629954830179,0.009));
#2215=CARTESIAN_POINT('',(-0.00996728002265095,0.0108662995483018,0.009));
#2216=CARTESIAN_POINT('',(-0.00946728002265095,0.0108662995483018,0.009));
#2217=CARTESIAN_POINT('',(-0.00996728002265095,0.0108662995483018,0.009));
#2218=CARTESIAN_POINT('',(-0.012507280022651,0.00324629954830179,0.009));
#2219=CARTESIAN_POINT('',(-0.012507280022651,-0.00437370045169821,0.009));
#2220=CARTESIAN_POINT('',(-0.012007280022651,-0.00437370045169821,0.009));
#2221=CARTESIAN_POINT('',(-0.012507280022651,-0.00437370045169821,0.009));
#2222=CARTESIAN_POINT('',(-0.012507280022651,0.00324629954830179,0.009));
#2223=CARTESIAN_POINT('',(-0.012507280022651,0.0108662995483018,0.009));
#2224=CARTESIAN_POINT('',(-0.012007280022651,0.0108662995483018,0.009));
#2225=CARTESIAN_POINT('',(-0.012507280022651,0.0108662995483018,0.009));
#2226=CARTESIAN_POINT('',(-0.015047280022651,0.00324629954830179,0.009));
#2227=CARTESIAN_POINT('',(-0.015047280022651,-0.00437370045169821,0.009));
#2228=CARTESIAN_POINT('',(-0.0145472800226509,-0.00437370045169821,0.009));
#2229=CARTESIAN_POINT('',(-0.015047280022651,-0.00437370045169821,0.009));
#2230=CARTESIAN_POINT('',(-0.015047280022651,0.00324629954830179,0.009));
#2231=CARTESIAN_POINT('',(-0.015047280022651,0.0108662995483018,0.009));
#2232=CARTESIAN_POINT('',(-0.0145472800226509,0.0108662995483018,0.009));
#2233=CARTESIAN_POINT('',(-0.015047280022651,0.0108662995483018,0.009));
#2234=CARTESIAN_POINT('',(-0.0175872800226509,0.00324629954830179,0.009));
#2235=CARTESIAN_POINT('',(-0.0175872800226509,-0.00437370045169821,0.009));
#2236=CARTESIAN_POINT('',(-0.0170872800226509,-0.00437370045169821,0.009));
#2237=CARTESIAN_POINT('',(-0.0175872800226509,-0.00437370045169821,0.009));
#2238=CARTESIAN_POINT('',(-0.0175872800226509,0.00324629954830179,0.009));
#2239=CARTESIAN_POINT('',(-0.0175872800226509,0.0108662995483018,0.009));
#2240=CARTESIAN_POINT('',(-0.0170872800226509,0.0108662995483018,0.009));
#2241=CARTESIAN_POINT('',(-0.0175872800226509,0.0108662995483018,0.009));
#2242=CARTESIAN_POINT('',(-0.0201272800226509,0.00324629954830179,0.009));
#2243=CARTESIAN_POINT('',(-0.0201272800226509,-0.00437370045169821,0.009));
#2244=CARTESIAN_POINT('',(-0.0196272800226509,-0.00437370045169821,0.009));
#2245=CARTESIAN_POINT('',(-0.0201272800226509,-0.00437370045169821,0.009));
#2246=CARTESIAN_POINT('',(-0.0201272800226509,0.00324629954830179,0.009));
#2247=CARTESIAN_POINT('',(-0.0201272800226509,0.0108662995483018,0.009));
#2248=CARTESIAN_POINT('',(-0.0196272800226509,0.0108662995483018,0.009));
#2249=CARTESIAN_POINT('',(-0.0201272800226509,0.0108662995483018,0.009));
#2250=CARTESIAN_POINT('',(0.015432719977349,0.0032462995483018,0.009));
#2251=CARTESIAN_POINT('',(0.015432719977349,-0.00437370045169821,0.009));
#2252=CARTESIAN_POINT('',(0.0159327199773491,-0.00437370045169821,0.009));
#2253=CARTESIAN_POINT('',(0.015432719977349,-0.00437370045169821,0.009));
#2254=CARTESIAN_POINT('',(0.015432719977349,0.0032462995483018,0.009));
#2255=CARTESIAN_POINT('',(0.015432719977349,0.0108662995483018,0.009));
#2256=CARTESIAN_POINT('',(0.0159327199773491,0.0108662995483018,0.009));
#2257=CARTESIAN_POINT('',(0.015432719977349,0.0108662995483018,0.009));
#2258=CARTESIAN_POINT('',(-0.0213972800226509,0.00705629954830179,-0.00254));
#2259=CARTESIAN_POINT('',(-0.0188572800226509,0.00705629954830179,-0.00254));
#2260=CARTESIAN_POINT('',(-0.0188572800226509,0.00705629954830179,-0.00254));
#2261=CARTESIAN_POINT('',(-0.0213972800226509,0.00705629954830179,-0.00254));
#2262=CARTESIAN_POINT('',(-0.0188572800226509,0.00324629954830179,-0.00254));
#2263=CARTESIAN_POINT('',(-0.0188572800226509,-0.000563700451698211,-0.00254));
#2264=CARTESIAN_POINT('',(-0.0188572800226509,-0.000563700451698211,-0.00254));
#2265=CARTESIAN_POINT('',(-0.0188572800226509,0.00324629954830179,-0.00254));
#2266=CARTESIAN_POINT('',(-0.0213972800226509,-0.000563700451698211,-0.00254));
#2267=CARTESIAN_POINT('',(-0.0213972800226509,-0.000563700451698211,-0.00254));
#2268=CARTESIAN_POINT('',(-0.00184728002265096,0.00324629954830179,-0.00254));
#2269=CARTESIAN_POINT('',(-0.022667280022651,0.00578629954830179,-0.00254));
#2270=CARTESIAN_POINT('',(-0.0221772477038584,0.00568696009723247,-0.00254));
#2271=CARTESIAN_POINT('',(-0.0201272800226509,0.00578629954830179,-0.00254));
#2272=CARTESIAN_POINT('',(-0.0196372477038584,0.00568696009723247,-0.00254));
#2273=CARTESIAN_POINT('',(-0.022667280022651,0.00324629954830179,-0.00254));
#2274=CARTESIAN_POINT('',(-0.0221674344270998,0.0032587245476214,-0.00254));
#2275=CARTESIAN_POINT('',(-0.0201272800226509,0.00324629954830179,-0.00254));
#2276=CARTESIAN_POINT('',(-0.0196274344270998,0.0032587245476214,-0.00254));
#2277=CARTESIAN_POINT('',(-0.0201272800226509,0.000706299548301789,-0.00254));
#2278=CARTESIAN_POINT('',(-0.0196272800226509,0.000706299548301789,-0.00254));
#2279=CARTESIAN_POINT('',(-0.022667280022651,0.000706299548301789,-0.00254));
#2280=CARTESIAN_POINT('',(-0.0221712675488395,0.000769320384725069,-0.00254));
#2281=CARTESIAN_POINT('',(0.013242719977349,0.00324629954830179,-0.003));
#2282=CARTESIAN_POINT('',(0.013242719977349,0.00724629954830179,-0.003));
#2283=CARTESIAN_POINT('',(0.013242719977349,0.00724629954830179,-0.003));
#2284=CARTESIAN_POINT('',(0.013242719977349,0.00324629954830179,-0.003));
#2285=CARTESIAN_POINT('',(0.013242719977349,-0.000753700451698211,-0.003));
#2286=CARTESIAN_POINT('',(0.013242719977349,-0.000753700451698211,-0.003));
#2287=CARTESIAN_POINT('',(0.016742719977349,0.00724629954830179,-0.003));
#2288=CARTESIAN_POINT('',(0.016742719977349,0.00724629954830179,0.));
#2289=CARTESIAN_POINT('',(0.020242719977349,0.00724629954830179,0.));
#2290=CARTESIAN_POINT('',(0.020242719977349,0.00724629954830179,-0.003));
#2291=CARTESIAN_POINT('',(0.020242719977349,0.00724629954830179,-0.003));
#2292=CARTESIAN_POINT('',(0.016742719977349,0.00724629954830179,-0.003));
#2293=CARTESIAN_POINT('',(0.020242719977349,0.00324629954830179,-0.003));
#2294=CARTESIAN_POINT('',(0.020242719977349,0.00324629954830179,0.));
#2295=CARTESIAN_POINT('',(0.020242719977349,-0.00075370045169821,0.));
#2296=CARTESIAN_POINT('',(0.020242719977349,-0.00075370045169821,-0.003));
#2297=CARTESIAN_POINT('',(0.020242719977349,-0.00075370045169821,-0.003));
#2298=CARTESIAN_POINT('',(0.020242719977349,0.00324629954830179,-0.003));
#2299=CARTESIAN_POINT('',(0.016742719977349,-0.000753700451698211,-0.003));
#2300=CARTESIAN_POINT('',(0.016742719977349,-0.000753700451698211,-0.003));
#2301=CARTESIAN_POINT('',(0.016742719977349,-0.000753700451698211,0.));
#2302=CARTESIAN_POINT('',(-0.00184728002265096,0.00324629954830179,-0.003));
#2303=CARTESIAN_POINT('',(-0.00184728002265096,0.00324629954830179,0.));
#2304=CARTESIAN_POINT('',(-0.022667280022651,0.000706299548301789,-0.0074));
#2305=CARTESIAN_POINT('',(-0.022667280022651,0.000706299548301789,-0.0074));
#2306=CARTESIAN_POINT('',(-0.0221712675488395,0.000769320384725069,-0.0074));
#2307=CARTESIAN_POINT('',(-0.00184728002265096,0.00324629954830179,-0.0074));
#2308=CARTESIAN_POINT('',(-0.022667280022651,0.00578629954830179,-0.0074));
#2309=CARTESIAN_POINT('',(-0.022667280022651,0.00578629954830179,-0.0074));
#2310=CARTESIAN_POINT('',(-0.0221772477038584,0.00568696009723247,-0.0074));
#2311=CARTESIAN_POINT('',(-0.00184728002265096,0.00324629954830179,-0.0074));
#2312=CARTESIAN_POINT('',(-0.0201272800226509,0.000706299548301789,-0.0074));
#2313=CARTESIAN_POINT('',(-0.0201272800226509,0.000706299548301789,-0.0074));
#2314=CARTESIAN_POINT('',(-0.0196272800226509,0.000706299548301789,-0.0074));
#2315=CARTESIAN_POINT('',(-0.00184728002265096,0.00324629954830179,-0.0074));
#2316=CARTESIAN_POINT('',(-0.0201272800226509,0.00324629954830179,-0.0074));
#2317=CARTESIAN_POINT('',(-0.0201272800226509,0.00324629954830179,-0.0074));
#2318=CARTESIAN_POINT('',(-0.0196274344270998,0.0032587245476214,-0.0074));
#2319=CARTESIAN_POINT('',(-0.00184728002265096,0.00324629954830179,-0.0074));
#2320=CARTESIAN_POINT('',(-0.022667280022651,0.00324629954830179,-0.0074));
#2321=CARTESIAN_POINT('',(-0.022667280022651,0.00324629954830179,-0.0074));
#2322=CARTESIAN_POINT('',(-0.0221674344270998,0.0032587245476214,-0.0074));
#2323=CARTESIAN_POINT('',(-0.00184728002265096,0.00324629954830179,-0.0074));
#2324=CARTESIAN_POINT('',(-0.0201272800226509,0.00578629954830179,-0.0074));
#2325=CARTESIAN_POINT('',(-0.0201272800226509,0.00578629954830179,-0.0074));
#2326=CARTESIAN_POINT('',(-0.0196372477038584,0.00568696009723247,-0.0074));
#2327=CARTESIAN_POINT('',(-0.00184728002265096,0.00324629954830179,-0.0074));
#2328=MECHANICAL_DESIGN_GEOMETRIC_PRESENTATION_REPRESENTATION('',(#1343),
#2329);
#2329=(
GEOMETRIC_REPRESENTATION_CONTEXT(3)
GLOBAL_UNCERTAINTY_ASSIGNED_CONTEXT((#2330))
GLOBAL_UNIT_ASSIGNED_CONTEXT((#2333,#2332,#2331))
REPRESENTATION_CONTEXT('Part 1','TOP_LEVEL_ASSEMBLY_PART')
);
#2330=UNCERTAINTY_MEASURE_WITH_UNIT(LENGTH_MEASURE(1.E-8),#2333,
'DISTANCE_ACCURACY_VALUE','Maximum Tolerance applied to model');
#2331=(
NAMED_UNIT(*)
SI_UNIT($,.STERADIAN.)
SOLID_ANGLE_UNIT()
);
#2332=(
NAMED_UNIT(*)
PLANE_ANGLE_UNIT()
SI_UNIT($,.RADIAN.)
);
#2333=(
LENGTH_UNIT()
NAMED_UNIT(*)
SI_UNIT($,.METRE.)
);
#2334=PRODUCT_DEFINITION_SHAPE('','',#2335);
#2335=PRODUCT_DEFINITION('','',#2337,#2336);
#2336=PRODUCT_DEFINITION_CONTEXT('',#2343,'design');
#2337=PRODUCT_DEFINITION_FORMATION_WITH_SPECIFIED_SOURCE('','',#2339,
 .NOT_KNOWN.);
#2338=PRODUCT_RELATED_PRODUCT_CATEGORY('','',(#2339));
#2339=PRODUCT('Part 1','Part 1','Part 1',(#2341));
#2340=PRODUCT_CATEGORY('','');
#2341=PRODUCT_CONTEXT('',#2343,'mechanical');
#2342=APPLICATION_PROTOCOL_DEFINITION('international standard',
'ap242_managed_model_based_3d_engineering',2020,#2343);
#2343=APPLICATION_CONTEXT('managed model based 3d engineering');
ENDSEC;
END-ISO-10303-21;
