ISO-10303-21;
HEADER;
/* Generated by software containing ST-Developer
 * from STEP Tools, Inc. (www.steptools.com) 
 */
/* OPTION: using custom renumber hook */

FILE_DESCRIPTION(
/* description */ ('STEP AP242 Edition 2',
'CAx-IF Rec.Pracs.---Representation and Presentation of Product Manufa
cturing Information (PMI)---4.0---2014-10-13',
'CAx-IF Rec.Pracs.---3D Tessellated Geometry---0.4---2014-09-14','2;1',
'CAx-IF Rec.Pracs.---User Defined Attributes---1.5---2016-08-15'),
/* implementation_level */ '2;1');

FILE_NAME(
/* name */ 'Part Studio 1 - Part 1',
/* time_stamp */ '2026-09-26T17:22:24Z',
/* author */ (''),
/* organization */ (''),
/* preprocessor_version */ 'ST-DEVELOPER v20',
/* originating_system */ 'ONSHAPE BY PTC INC, 1.221',
/* authorisation */ '  ');

FILE_SCHEMA (('AP242_MANAGED_MODEL_BASED_3D_ENGINEERING_MIM_LF { 1 0 10303 442 3 1 4 }'));
ENDSEC;

DATA;
#10=SHAPE_REPRESENTATION_RELATIONSHIP('','',#427,#11);
#11=ADVANCED_BREP_SHAPE_REPRESENTATION('',(#425),#705);
#12=CYLINDRICAL_SURFACE('',#441,0.00025);
#13=CYLINDRICAL_SURFACE('',#444,0.00025);
#14=CYLINDRICAL_SURFACE('',#447,0.00025);
#15=CYLINDRICAL_SURFACE('',#450,0.00025);
#16=CYLINDRICAL_SURFACE('',#453,0.00025);
#17=CYLINDRICAL_SURFACE('',#456,0.00025);
#18=CIRCLE('',#435,0.00025);
#19=CIRCLE('',#436,0.00025);
#20=CIRCLE('',#437,0.00025);
#21=CIRCLE('',#438,0.00025);
#22=CIRCLE('',#439,0.00025);
#23=CIRCLE('',#440,0.00025);
#24=CIRCLE('',#442,0.00025);
#25=CIRCLE('',#445,0.00025);
#26=CIRCLE('',#448,0.00025);
#27=CIRCLE('',#451,0.00025);
#28=CIRCLE('',#454,0.00025);
#29=CIRCLE('',#457,0.00025);
#30=ORIENTED_EDGE('',*,*,#126,.T.);
#31=ORIENTED_EDGE('',*,*,#127,.T.);
#32=ORIENTED_EDGE('',*,*,#128,.T.);
#33=ORIENTED_EDGE('',*,*,#129,.T.);
#34=ORIENTED_EDGE('',*,*,#130,.T.);
#35=ORIENTED_EDGE('',*,*,#131,.T.);
#36=ORIENTED_EDGE('',*,*,#132,.F.);
#37=ORIENTED_EDGE('',*,*,#133,.T.);
#38=ORIENTED_EDGE('',*,*,#134,.T.);
#39=ORIENTED_EDGE('',*,*,#135,.T.);
#40=ORIENTED_EDGE('',*,*,#136,.F.);
#41=ORIENTED_EDGE('',*,*,#137,.T.);
#42=ORIENTED_EDGE('',*,*,#138,.T.);
#43=ORIENTED_EDGE('',*,*,#139,.T.);
#44=ORIENTED_EDGE('',*,*,#140,.T.);
#45=ORIENTED_EDGE('',*,*,#141,.T.);
#46=ORIENTED_EDGE('',*,*,#142,.T.);
#47=ORIENTED_EDGE('',*,*,#143,.T.);
#48=ORIENTED_EDGE('',*,*,#144,.T.);
#49=ORIENTED_EDGE('',*,*,#145,.T.);
#50=ORIENTED_EDGE('',*,*,#146,.F.);
#51=ORIENTED_EDGE('',*,*,#147,.F.);
#52=ORIENTED_EDGE('',*,*,#148,.F.);
#53=ORIENTED_EDGE('',*,*,#149,.F.);
#54=ORIENTED_EDGE('',*,*,#150,.F.);
#55=ORIENTED_EDGE('',*,*,#151,.F.);
#56=ORIENTED_EDGE('',*,*,#136,.T.);
#57=ORIENTED_EDGE('',*,*,#152,.T.);
#58=ORIENTED_EDGE('',*,*,#138,.F.);
#59=ORIENTED_EDGE('',*,*,#153,.T.);
#60=ORIENTED_EDGE('',*,*,#126,.F.);
#61=ORIENTED_EDGE('',*,*,#154,.T.);
#62=ORIENTED_EDGE('',*,*,#132,.T.);
#63=ORIENTED_EDGE('',*,*,#155,.T.);
#64=ORIENTED_EDGE('',*,*,#156,.F.);
#65=ORIENTED_EDGE('',*,*,#151,.T.);
#66=ORIENTED_EDGE('',*,*,#156,.T.);
#67=ORIENTED_EDGE('',*,*,#157,.F.);
#68=ORIENTED_EDGE('',*,*,#150,.T.);
#69=ORIENTED_EDGE('',*,*,#157,.T.);
#70=ORIENTED_EDGE('',*,*,#158,.F.);
#71=ORIENTED_EDGE('',*,*,#149,.T.);
#72=ORIENTED_EDGE('',*,*,#158,.T.);
#73=ORIENTED_EDGE('',*,*,#159,.F.);
#74=ORIENTED_EDGE('',*,*,#148,.T.);
#75=ORIENTED_EDGE('',*,*,#159,.T.);
#76=ORIENTED_EDGE('',*,*,#160,.F.);
#77=ORIENTED_EDGE('',*,*,#147,.T.);
#78=ORIENTED_EDGE('',*,*,#160,.T.);
#79=ORIENTED_EDGE('',*,*,#161,.F.);
#80=ORIENTED_EDGE('',*,*,#146,.T.);
#81=ORIENTED_EDGE('',*,*,#161,.T.);
#82=ORIENTED_EDGE('',*,*,#154,.F.);
#83=ORIENTED_EDGE('',*,*,#129,.F.);
#84=ORIENTED_EDGE('',*,*,#162,.F.);
#85=ORIENTED_EDGE('',*,*,#133,.F.);
#86=ORIENTED_EDGE('',*,*,#153,.F.);
#87=ORIENTED_EDGE('',*,*,#141,.F.);
#88=ORIENTED_EDGE('',*,*,#163,.F.);
#89=ORIENTED_EDGE('',*,*,#127,.F.);
#90=ORIENTED_EDGE('',*,*,#164,.F.);
#91=ORIENTED_EDGE('',*,*,#128,.F.);
#92=ORIENTED_EDGE('',*,*,#165,.F.);
#93=ORIENTED_EDGE('',*,*,#142,.F.);
#94=ORIENTED_EDGE('',*,*,#162,.T.);
#95=ORIENTED_EDGE('',*,*,#164,.T.);
#96=ORIENTED_EDGE('',*,*,#166,.F.);
#97=ORIENTED_EDGE('',*,*,#165,.T.);
#98=ORIENTED_EDGE('',*,*,#163,.T.);
#99=ORIENTED_EDGE('',*,*,#167,.F.);
#100=ORIENTED_EDGE('',*,*,#166,.T.);
#101=ORIENTED_EDGE('',*,*,#145,.F.);
#102=ORIENTED_EDGE('',*,*,#168,.F.);
#103=ORIENTED_EDGE('',*,*,#130,.F.);
#104=ORIENTED_EDGE('',*,*,#155,.F.);
#105=ORIENTED_EDGE('',*,*,#131,.F.);
#106=ORIENTED_EDGE('',*,*,#169,.F.);
#107=ORIENTED_EDGE('',*,*,#137,.F.);
#108=ORIENTED_EDGE('',*,*,#152,.F.);
#109=ORIENTED_EDGE('',*,*,#135,.F.);
#110=ORIENTED_EDGE('',*,*,#170,.F.);
#111=ORIENTED_EDGE('',*,*,#139,.F.);
#112=ORIENTED_EDGE('',*,*,#167,.T.);
#113=ORIENTED_EDGE('',*,*,#140,.F.);
#114=ORIENTED_EDGE('',*,*,#171,.F.);
#115=ORIENTED_EDGE('',*,*,#143,.F.);
#116=ORIENTED_EDGE('',*,*,#169,.T.);
#117=ORIENTED_EDGE('',*,*,#168,.T.);
#118=ORIENTED_EDGE('',*,*,#172,.F.);
#119=ORIENTED_EDGE('',*,*,#171,.T.);
#120=ORIENTED_EDGE('',*,*,#170,.T.);
#121=ORIENTED_EDGE('',*,*,#173,.F.);
#122=ORIENTED_EDGE('',*,*,#172,.T.);
#123=ORIENTED_EDGE('',*,*,#144,.F.);
#124=ORIENTED_EDGE('',*,*,#173,.T.);
#125=ORIENTED_EDGE('',*,*,#134,.F.);
#126=EDGE_CURVE('',#174,#175,#206,.T.);
#127=EDGE_CURVE('',#175,#176,#207,.T.);
#128=EDGE_CURVE('',#176,#177,#208,.T.);
#129=EDGE_CURVE('',#177,#174,#209,.T.);
#130=EDGE_CURVE('',#178,#179,#210,.T.);
#131=EDGE_CURVE('',#179,#180,#211,.T.);
#132=EDGE_CURVE('',#181,#180,#212,.T.);
#133=EDGE_CURVE('',#181,#178,#213,.T.);
#134=EDGE_CURVE('',#182,#183,#214,.T.);
#135=EDGE_CURVE('',#183,#184,#215,.T.);
#136=EDGE_CURVE('',#185,#184,#216,.T.);
#137=EDGE_CURVE('',#185,#182,#217,.T.);
#138=EDGE_CURVE('',#186,#187,#218,.T.);
#139=EDGE_CURVE('',#187,#188,#219,.T.);
#140=EDGE_CURVE('',#188,#189,#220,.T.);
#141=EDGE_CURVE('',#189,#186,#221,.T.);
#142=EDGE_CURVE('',#190,#191,#222,.T.);
#143=EDGE_CURVE('',#191,#192,#223,.T.);
#144=EDGE_CURVE('',#192,#193,#224,.T.);
#145=EDGE_CURVE('',#193,#190,#225,.T.);
#146=EDGE_CURVE('',#194,#194,#18,.T.);
#147=EDGE_CURVE('',#195,#195,#19,.T.);
#148=EDGE_CURVE('',#196,#196,#20,.T.);
#149=EDGE_CURVE('',#197,#197,#21,.T.);
#150=EDGE_CURVE('',#198,#198,#22,.T.);
#151=EDGE_CURVE('',#199,#199,#23,.T.);
#152=EDGE_CURVE('',#184,#187,#226,.T.);
#153=EDGE_CURVE('',#186,#175,#227,.F.);
#154=EDGE_CURVE('',#174,#181,#228,.T.);
#155=EDGE_CURVE('',#180,#185,#229,.F.);
#156=EDGE_CURVE('',#200,#200,#24,.T.);
#157=EDGE_CURVE('',#201,#201,#25,.T.);
#158=EDGE_CURVE('',#202,#202,#26,.T.);
#159=EDGE_CURVE('',#203,#203,#27,.T.);
#160=EDGE_CURVE('',#204,#204,#28,.T.);
#161=EDGE_CURVE('',#205,#205,#29,.T.);
#162=EDGE_CURVE('',#178,#177,#230,.T.);
#163=EDGE_CURVE('',#176,#189,#231,.F.);
#164=EDGE_CURVE('',#177,#190,#232,.F.);
#165=EDGE_CURVE('',#191,#176,#233,.F.);
#166=EDGE_CURVE('',#178,#190,#234,.F.);
#167=EDGE_CURVE('',#191,#189,#235,.T.);
#168=EDGE_CURVE('',#179,#193,#236,.T.);
#169=EDGE_CURVE('',#182,#179,#237,.F.);
#170=EDGE_CURVE('',#188,#183,#238,.T.);
#171=EDGE_CURVE('',#192,#188,#239,.F.);
#172=EDGE_CURVE('',#182,#193,#240,.F.);
#173=EDGE_CURVE('',#192,#183,#241,.F.);
#174=VERTEX_POINT('',#596);
#175=VERTEX_POINT('',#597);
#176=VERTEX_POINT('',#599);
#177=VERTEX_POINT('',#601);
#178=VERTEX_POINT('',#605);
#179=VERTEX_POINT('',#606);
#180=VERTEX_POINT('',#608);
#181=VERTEX_POINT('',#610);
#182=VERTEX_POINT('',#614);
#183=VERTEX_POINT('',#615);
#184=VERTEX_POINT('',#617);
#185=VERTEX_POINT('',#619);
#186=VERTEX_POINT('',#623);
#187=VERTEX_POINT('',#624);
#188=VERTEX_POINT('',#626);
#189=VERTEX_POINT('',#628);
#190=VERTEX_POINT('',#632);
#191=VERTEX_POINT('',#633);
#192=VERTEX_POINT('',#635);
#193=VERTEX_POINT('',#637);
#194=VERTEX_POINT('',#641);
#195=VERTEX_POINT('',#643);
#196=VERTEX_POINT('',#645);
#197=VERTEX_POINT('',#647);
#198=VERTEX_POINT('',#649);
#199=VERTEX_POINT('',#651);
#200=VERTEX_POINT('',#658);
#201=VERTEX_POINT('',#662);
#202=VERTEX_POINT('',#666);
#203=VERTEX_POINT('',#670);
#204=VERTEX_POINT('',#674);
#205=VERTEX_POINT('',#678);
#206=LINE('',#595,#242);
#207=LINE('',#598,#243);
#208=LINE('',#600,#244);
#209=LINE('',#602,#245);
#210=LINE('',#604,#246);
#211=LINE('',#607,#247);
#212=LINE('',#609,#248);
#213=LINE('',#611,#249);
#214=LINE('',#613,#250);
#215=LINE('',#616,#251);
#216=LINE('',#618,#252);
#217=LINE('',#620,#253);
#218=LINE('',#622,#254);
#219=LINE('',#625,#255);
#220=LINE('',#627,#256);
#221=LINE('',#629,#257);
#222=LINE('',#631,#258);
#223=LINE('',#634,#259);
#224=LINE('',#636,#260);
#225=LINE('',#638,#261);
#226=LINE('',#652,#262);
#227=LINE('',#653,#263);
#228=LINE('',#654,#264);
#229=LINE('',#655,#265);
#230=LINE('',#681,#266);
#231=LINE('',#683,#267);
#232=LINE('',#685,#268);
#233=LINE('',#686,#269);
#234=LINE('',#688,#270);
#235=LINE('',#690,#271);
#236=LINE('',#692,#272);
#237=LINE('',#694,#273);
#238=LINE('',#696,#274);
#239=LINE('',#698,#275);
#240=LINE('',#700,#276);
#241=LINE('',#702,#277);
#242=VECTOR('',#475,1.);
#243=VECTOR('',#476,1.);
#244=VECTOR('',#477,1.);
#245=VECTOR('',#478,1.);
#246=VECTOR('',#481,1.);
#247=VECTOR('',#482,1.);
#248=VECTOR('',#483,1.);
#249=VECTOR('',#484,1.);
#250=VECTOR('',#487,1.);
#251=VECTOR('',#488,1.);
#252=VECTOR('',#489,1.);
#253=VECTOR('',#490,1.);
#254=VECTOR('',#493,1.);
#255=VECTOR('',#494,1.);
#256=VECTOR('',#495,1.);
#257=VECTOR('',#496,1.);
#258=VECTOR('',#499,1.);
#259=VECTOR('',#500,1.);
#260=VECTOR('',#501,1.);
#261=VECTOR('',#502,1.);
#262=VECTOR('',#517,1.);
#263=VECTOR('',#518,1.);
#264=VECTOR('',#519,1.);
#265=VECTOR('',#520,1.);
#266=VECTOR('',#559,1.);
#267=VECTOR('',#562,1.);
#268=VECTOR('',#565,1.);
#269=VECTOR('',#566,1.);
#270=VECTOR('',#569,1.);
#271=VECTOR('',#572,1.);
#272=VECTOR('',#575,1.);
#273=VECTOR('',#578,1.);
#274=VECTOR('',#581,1.);
#275=VECTOR('',#584,1.);
#276=VECTOR('',#587,1.);
#277=VECTOR('',#590,1.);
#278=EDGE_LOOP('',(#30,#31,#32,#33));
#279=EDGE_LOOP('',(#34,#35,#36,#37));
#280=EDGE_LOOP('',(#38,#39,#40,#41));
#281=EDGE_LOOP('',(#42,#43,#44,#45));
#282=EDGE_LOOP('',(#46,#47,#48,#49));
#283=EDGE_LOOP('',(#50));
#284=EDGE_LOOP('',(#51));
#285=EDGE_LOOP('',(#52));
#286=EDGE_LOOP('',(#53));
#287=EDGE_LOOP('',(#54));
#288=EDGE_LOOP('',(#55));
#289=EDGE_LOOP('',(#56,#57,#58,#59,#60,#61,#62,#63));
#290=EDGE_LOOP('',(#64));
#291=EDGE_LOOP('',(#65));
#292=EDGE_LOOP('',(#66));
#293=EDGE_LOOP('',(#67));
#294=EDGE_LOOP('',(#68));
#295=EDGE_LOOP('',(#69));
#296=EDGE_LOOP('',(#70));
#297=EDGE_LOOP('',(#71));
#298=EDGE_LOOP('',(#72));
#299=EDGE_LOOP('',(#73));
#300=EDGE_LOOP('',(#74));
#301=EDGE_LOOP('',(#75));
#302=EDGE_LOOP('',(#76));
#303=EDGE_LOOP('',(#77));
#304=EDGE_LOOP('',(#78));
#305=EDGE_LOOP('',(#79));
#306=EDGE_LOOP('',(#80));
#307=EDGE_LOOP('',(#81));
#308=EDGE_LOOP('',(#82,#83,#84,#85));
#309=EDGE_LOOP('',(#86,#87,#88,#89));
#310=EDGE_LOOP('',(#90,#91,#92,#93));
#311=EDGE_LOOP('',(#94,#95,#96));
#312=EDGE_LOOP('',(#97,#98,#99));
#313=EDGE_LOOP('',(#100,#101,#102,#103));
#314=EDGE_LOOP('',(#104,#105,#106,#107));
#315=EDGE_LOOP('',(#108,#109,#110,#111));
#316=EDGE_LOOP('',(#112,#113,#114,#115));
#317=EDGE_LOOP('',(#116,#117,#118));
#318=EDGE_LOOP('',(#119,#120,#121));
#319=EDGE_LOOP('',(#122,#123,#124,#125));
#320=FACE_BOUND('',#278,.T.);
#321=FACE_BOUND('',#279,.T.);
#322=FACE_BOUND('',#280,.T.);
#323=FACE_BOUND('',#281,.T.);
#324=FACE_BOUND('',#282,.T.);
#325=FACE_BOUND('',#283,.T.);
#326=FACE_BOUND('',#284,.T.);
#327=FACE_BOUND('',#285,.T.);
#328=FACE_BOUND('',#286,.T.);
#329=FACE_BOUND('',#287,.T.);
#330=FACE_BOUND('',#288,.T.);
#331=FACE_BOUND('',#289,.T.);
#332=FACE_BOUND('',#290,.T.);
#333=FACE_BOUND('',#291,.T.);
#334=FACE_BOUND('',#292,.T.);
#335=FACE_BOUND('',#293,.T.);
#336=FACE_BOUND('',#294,.T.);
#337=FACE_BOUND('',#295,.T.);
#338=FACE_BOUND('',#296,.T.);
#339=FACE_BOUND('',#297,.T.);
#340=FACE_BOUND('',#298,.T.);
#341=FACE_BOUND('',#299,.T.);
#342=FACE_BOUND('',#300,.T.);
#343=FACE_BOUND('',#301,.T.);
#344=FACE_BOUND('',#302,.T.);
#345=FACE_BOUND('',#303,.T.);
#346=FACE_BOUND('',#304,.T.);
#347=FACE_BOUND('',#305,.T.);
#348=FACE_BOUND('',#306,.T.);
#349=FACE_BOUND('',#307,.T.);
#350=FACE_BOUND('',#308,.T.);
#351=FACE_BOUND('',#309,.T.);
#352=FACE_BOUND('',#310,.T.);
#353=FACE_BOUND('',#311,.T.);
#354=FACE_BOUND('',#312,.T.);
#355=FACE_BOUND('',#313,.T.);
#356=FACE_BOUND('',#314,.T.);
#357=FACE_BOUND('',#315,.T.);
#358=FACE_BOUND('',#316,.T.);
#359=FACE_BOUND('',#317,.T.);
#360=FACE_BOUND('',#318,.T.);
#361=FACE_BOUND('',#319,.T.);
#362=PLANE('',#429);
#363=PLANE('',#430);
#364=PLANE('',#431);
#365=PLANE('',#432);
#366=PLANE('',#433);
#367=PLANE('',#434);
#368=PLANE('',#443);
#369=PLANE('',#446);
#370=PLANE('',#449);
#371=PLANE('',#452);
#372=PLANE('',#455);
#373=PLANE('',#458);
#374=PLANE('',#459);
#375=PLANE('',#460);
#376=PLANE('',#461);
#377=PLANE('',#462);
#378=PLANE('',#463);
#379=PLANE('',#464);
#380=PLANE('',#465);
#381=PLANE('',#466);
#382=PLANE('',#467);
#383=PLANE('',#468);
#384=PLANE('',#469);
#385=PLANE('',#470);
#386=ADVANCED_FACE('',(#320),#362,.F.);
#387=ADVANCED_FACE('',(#321),#363,.T.);
#388=ADVANCED_FACE('',(#322),#364,.T.);
#389=ADVANCED_FACE('',(#323),#365,.F.);
#390=ADVANCED_FACE('',(#324),#366,.F.);
#391=ADVANCED_FACE('',(#325,#326,#327,#328,#329,#330,#331),#367,.T.);
#392=ADVANCED_FACE('',(#332,#333),#12,.T.);
#393=ADVANCED_FACE('',(#334),#368,.T.);
#394=ADVANCED_FACE('',(#335,#336),#13,.T.);
#395=ADVANCED_FACE('',(#337),#369,.T.);
#396=ADVANCED_FACE('',(#338,#339),#14,.T.);
#397=ADVANCED_FACE('',(#340),#370,.T.);
#398=ADVANCED_FACE('',(#341,#342),#15,.T.);
#399=ADVANCED_FACE('',(#343),#371,.T.);
#400=ADVANCED_FACE('',(#344,#345),#16,.T.);
#401=ADVANCED_FACE('',(#346),#372,.T.);
#402=ADVANCED_FACE('',(#347,#348),#17,.T.);
#403=ADVANCED_FACE('',(#349),#373,.T.);
#404=ADVANCED_FACE('',(#350),#374,.T.);
#405=ADVANCED_FACE('',(#351),#375,.F.);
#406=ADVANCED_FACE('',(#352),#376,.F.);
#407=ADVANCED_FACE('',(#353),#377,.T.);
#408=ADVANCED_FACE('',(#354),#378,.T.);
#409=ADVANCED_FACE('',(#355),#379,.T.);
#410=ADVANCED_FACE('',(#356),#380,.F.);
#411=ADVANCED_FACE('',(#357),#381,.T.);
#412=ADVANCED_FACE('',(#358),#382,.F.);
#413=ADVANCED_FACE('',(#359),#383,.T.);
#414=ADVANCED_FACE('',(#360),#384,.T.);
#415=ADVANCED_FACE('',(#361),#385,.T.);
#416=CLOSED_SHELL('',(#386,#387,#388,#389,#390,#391,#392,#393,#394,#395,
#396,#397,#398,#399,#400,#401,#402,#403,#404,#405,#406,#407,#408,#409,#410,
#411,#412,#413,#414,#415));
#417=STYLED_ITEM('',(#418),#425);
#418=PRESENTATION_STYLE_ASSIGNMENT((#419));
#419=SURFACE_STYLE_USAGE(.BOTH.,#420);
#420=SURFACE_SIDE_STYLE('',(#421));
#421=SURFACE_STYLE_FILL_AREA(#422);
#422=FILL_AREA_STYLE('',(#423));
#423=FILL_AREA_STYLE_COLOUR('',#424);
#424=COLOUR_RGB('',0.615686274509804,0.811764705882353,0.929411764705882);
#425=MANIFOLD_SOLID_BREP('Part 1',#416);
#426=SHAPE_DEFINITION_REPRESENTATION(#710,#427);
#427=SHAPE_REPRESENTATION('Part 1',(#428),#705);
#428=AXIS2_PLACEMENT_3D('',#593,#471,#472);
#429=AXIS2_PLACEMENT_3D('',#594,#473,#474);
#430=AXIS2_PLACEMENT_3D('',#603,#479,#480);
#431=AXIS2_PLACEMENT_3D('',#612,#485,#486);
#432=AXIS2_PLACEMENT_3D('',#621,#491,#492);
#433=AXIS2_PLACEMENT_3D('',#630,#497,#498);
#434=AXIS2_PLACEMENT_3D('',#639,#503,#504);
#435=AXIS2_PLACEMENT_3D('',#640,#505,#506);
#436=AXIS2_PLACEMENT_3D('',#642,#507,#508);
#437=AXIS2_PLACEMENT_3D('',#644,#509,#510);
#438=AXIS2_PLACEMENT_3D('',#646,#511,#512);
#439=AXIS2_PLACEMENT_3D('',#648,#513,#514);
#440=AXIS2_PLACEMENT_3D('',#650,#515,#516);
#441=AXIS2_PLACEMENT_3D('',#656,#521,#522);
#442=AXIS2_PLACEMENT_3D('',#657,#523,#524);
#443=AXIS2_PLACEMENT_3D('',#659,#525,#526);
#444=AXIS2_PLACEMENT_3D('',#660,#527,#528);
#445=AXIS2_PLACEMENT_3D('',#661,#529,#530);
#446=AXIS2_PLACEMENT_3D('',#663,#531,#532);
#447=AXIS2_PLACEMENT_3D('',#664,#533,#534);
#448=AXIS2_PLACEMENT_3D('',#665,#535,#536);
#449=AXIS2_PLACEMENT_3D('',#667,#537,#538);
#450=AXIS2_PLACEMENT_3D('',#668,#539,#540);
#451=AXIS2_PLACEMENT_3D('',#669,#541,#542);
#452=AXIS2_PLACEMENT_3D('',#671,#543,#544);
#453=AXIS2_PLACEMENT_3D('',#672,#545,#546);
#454=AXIS2_PLACEMENT_3D('',#673,#547,#548);
#455=AXIS2_PLACEMENT_3D('',#675,#549,#550);
#456=AXIS2_PLACEMENT_3D('',#676,#551,#552);
#457=AXIS2_PLACEMENT_3D('',#677,#553,#554);
#458=AXIS2_PLACEMENT_3D('',#679,#555,#556);
#459=AXIS2_PLACEMENT_3D('',#680,#557,#558);
#460=AXIS2_PLACEMENT_3D('',#682,#560,#561);
#461=AXIS2_PLACEMENT_3D('',#684,#563,#564);
#462=AXIS2_PLACEMENT_3D('',#687,#567,#568);
#463=AXIS2_PLACEMENT_3D('',#689,#570,#571);
#464=AXIS2_PLACEMENT_3D('',#691,#573,#574);
#465=AXIS2_PLACEMENT_3D('',#693,#576,#577);
#466=AXIS2_PLACEMENT_3D('',#695,#579,#580);
#467=AXIS2_PLACEMENT_3D('',#697,#582,#583);
#468=AXIS2_PLACEMENT_3D('',#699,#585,#586);
#469=AXIS2_PLACEMENT_3D('',#701,#588,#589);
#470=AXIS2_PLACEMENT_3D('',#703,#591,#592);
#471=DIRECTION('',(0.,0.,1.));
#472=DIRECTION('',(1.,0.,0.));
#473=DIRECTION('',(1.,2.47817639425258E-16,0.));
#474=DIRECTION('',(-2.47817639425258E-16,1.,0.));
#475=DIRECTION('',(-2.47817639425258E-16,1.,0.));
#476=DIRECTION('',(0.,0.,-1.));
#477=DIRECTION('',(2.47817639425258E-16,-1.,0.));
#478=DIRECTION('',(0.,0.,1.));
#479=DIRECTION('',(0.,-1.,0.));
#480=DIRECTION('',(0.,0.,-1.));
#481=DIRECTION('',(1.,0.,0.));
#482=DIRECTION('',(0.,0.,1.));
#483=DIRECTION('',(1.,0.,0.));
#484=DIRECTION('',(0.,0.,-1.));
#485=DIRECTION('',(1.,2.47817639425258E-16,0.));
#486=DIRECTION('',(-2.47817639425258E-16,1.,0.));
#487=DIRECTION('',(-2.47817639425258E-16,1.,0.));
#488=DIRECTION('',(0.,0.,1.));
#489=DIRECTION('',(-2.47817639425258E-16,1.,0.));
#490=DIRECTION('',(0.,0.,-1.));
#491=DIRECTION('',(0.,-1.,0.));
#492=DIRECTION('',(0.,0.,-1.));
#493=DIRECTION('',(1.,0.,0.));
#494=DIRECTION('',(0.,0.,-1.));
#495=DIRECTION('',(-1.,0.,0.));
#496=DIRECTION('',(0.,0.,1.));
#497=DIRECTION('',(0.,0.,1.));
#498=DIRECTION('',(1.,0.,0.));
#499=DIRECTION('',(-2.47817639425258E-16,1.,0.));
#500=DIRECTION('',(1.,0.,0.));
#501=DIRECTION('',(2.47817639425258E-16,-1.,0.));
#502=DIRECTION('',(-1.,0.,0.));
#503=DIRECTION('',(0.,0.,1.));
#504=DIRECTION('',(1.,0.,0.));
#505=DIRECTION('',(0.,0.,1.));
#506=DIRECTION('',(0.999967743752178,-0.00803190233865901,0.));
#507=DIRECTION('',(0.,0.,1.));
#508=DIRECTION('',(0.997757792322001,0.0669282291766802,0.));
#509=DIRECTION('',(0.,0.,1.));
#510=DIRECTION('',(0.999296062601123,-0.0375150539102948,0.));
#511=DIRECTION('',(0.,0.,1.));
#512=DIRECTION('',(0.999296062601123,-0.0375150539102965,0.));
#513=DIRECTION('',(0.,0.,1.));
#514=DIRECTION('',(0.999967743752178,-0.00803190233865901,0.));
#515=DIRECTION('',(0.,0.,1.));
#516=DIRECTION('',(1.,0.,0.));
#517=DIRECTION('',(-0.70710678118655,0.707106781186545,0.));
#518=DIRECTION('',(0.707106781186549,0.707106781186546,0.));
#519=DIRECTION('',(0.707106781186549,-0.707106781186546,0.));
#520=DIRECTION('',(-0.707106781186549,-0.707106781186546,0.));
#521=DIRECTION('',(0.,0.,-1.));
#522=DIRECTION('',(-1.,0.,0.));
#523=DIRECTION('',(0.,0.,1.));
#524=DIRECTION('',(1.,0.,0.));
#525=DIRECTION('',(0.,0.,1.));
#526=DIRECTION('',(1.,0.,0.));
#527=DIRECTION('',(0.,0.,-1.));
#528=DIRECTION('',(-1.,0.,0.));
#529=DIRECTION('',(0.,0.,1.));
#530=DIRECTION('',(0.999967743752178,-0.00803190233865901,0.));
#531=DIRECTION('',(0.,0.,1.));
#532=DIRECTION('',(1.,0.,0.));
#533=DIRECTION('',(0.,0.,-1.));
#534=DIRECTION('',(-1.,0.,0.));
#535=DIRECTION('',(0.,0.,1.));
#536=DIRECTION('',(0.999296062601123,-0.0375150539102965,0.));
#537=DIRECTION('',(0.,0.,1.));
#538=DIRECTION('',(1.,0.,0.));
#539=DIRECTION('',(0.,0.,-1.));
#540=DIRECTION('',(-1.,0.,0.));
#541=DIRECTION('',(0.,0.,1.));
#542=DIRECTION('',(0.999296062601123,-0.0375150539102948,0.));
#543=DIRECTION('',(0.,0.,1.));
#544=DIRECTION('',(1.,0.,0.));
#545=DIRECTION('',(0.,0.,-1.));
#546=DIRECTION('',(-1.,0.,0.));
#547=DIRECTION('',(0.,0.,1.));
#548=DIRECTION('',(0.997757792322001,0.0669282291766802,0.));
#549=DIRECTION('',(0.,0.,1.));
#550=DIRECTION('',(1.,0.,0.));
#551=DIRECTION('',(0.,0.,-1.));
#552=DIRECTION('',(-1.,0.,0.));
#553=DIRECTION('',(0.,0.,1.));
#554=DIRECTION('',(0.999967743752178,-0.00803190233865901,0.));
#555=DIRECTION('',(0.,0.,1.));
#556=DIRECTION('',(1.,0.,0.));
#557=DIRECTION('',(-0.707106781186546,-0.707106781186549,0.));
#558=DIRECTION('',(0.,0.,-1.));
#559=DIRECTION('',(-0.707106781186549,0.707106781186546,1.83708663656829E-16));
#560=DIRECTION('',(0.707106781186546,-0.707106781186549,0.));
#561=DIRECTION('',(0.,0.,1.));
#562=DIRECTION('',(-0.707106781186549,-0.707106781186547,2.77555756156289E-17));
#563=DIRECTION('',(0.707106781186548,1.75233533335242E-16,0.707106781186548));
#564=DIRECTION('',(-2.47817639425258E-16,1.,0.));
#565=DIRECTION('',(-0.707106781186548,0.,0.707106781186548));
#566=DIRECTION('',(0.707106781186548,1.24992574614931E-15,-0.707106781186548));
#567=DIRECTION('',(-0.577350269189625,-0.577350269189627,-0.577350269189625));
#568=DIRECTION('',(0.,0.707106781186546,-0.707106781186549));
#569=DIRECTION('',(2.30755522366028E-15,-0.707106781186548,0.707106781186548));
#570=DIRECTION('',(-0.577350269189625,0.577350269189627,-0.577350269189624));
#571=DIRECTION('',(-0.707106781186549,-0.707106781186546,0.));
#572=DIRECTION('',(2.43145893359508E-15,0.707106781186547,0.707106781186548));
#573=DIRECTION('',(0.,-0.707106781186548,-0.707106781186548));
#574=DIRECTION('',(-1.,0.,0.));
#575=DIRECTION('',(2.30755522366028E-15,0.707106781186548,-0.707106781186548));
#576=DIRECTION('',(-0.707106781186546,0.707106781186549,0.));
#577=DIRECTION('',(0.,0.,1.));
#578=DIRECTION('',(0.707106781186549,0.707106781186546,1.83708663656829E-16));
#579=DIRECTION('',(0.707106781186545,0.70710678118655,0.));
#580=DIRECTION('',(0.,0.,-1.));
#581=DIRECTION('',(0.70710678118655,-0.707106781186545,-1.559530880412E-16));
#582=DIRECTION('',(0.,-0.707106781186548,0.707106781186547));
#583=DIRECTION('',(1.,0.,0.));
#584=DIRECTION('',(2.62375520223345E-15,-0.707106781186547,-0.707106781186548));
#585=DIRECTION('',(0.577350269189625,-0.577350269189627,-0.577350269189625));
#586=DIRECTION('',(0.,0.707106781186546,-0.707106781186549));
#587=DIRECTION('',(0.707106781186548,0.,0.707106781186548));
#588=DIRECTION('',(0.577350269189624,0.577350269189628,-0.577350269189625));
#589=DIRECTION('',(0.,0.707106781186546,0.707106781186549));
#590=DIRECTION('',(-0.707106781186548,-1.18153318744576E-15,-0.707106781186548));
#591=DIRECTION('',(0.707106781186548,1.75233533335242E-16,-0.707106781186548));
#592=DIRECTION('',(2.47817639425258E-16,-1.,0.));
#593=CARTESIAN_POINT('',(0.,0.,0.));
#594=CARTESIAN_POINT('',(-0.00570346060581505,0.000237167934497616,-0.009525));
#595=CARTESIAN_POINT('',(-0.00570346060581505,0.000237167934497616,0.));
#596=CARTESIAN_POINT('',(-0.00570346060581505,-0.00301283206550239,0.));
#597=CARTESIAN_POINT('',(-0.00570346060581505,0.00348716793449761,0.));
#598=CARTESIAN_POINT('',(-0.00570346060581505,0.00348716793449761,-0.009525));
#599=CARTESIAN_POINT('',(-0.00570346060581505,0.00348716793449761,-0.009275));
#600=CARTESIAN_POINT('',(-0.00570346060581505,0.000237167934497616,-0.009275));
#601=CARTESIAN_POINT('',(-0.00570346060581505,-0.00301283206550239,-0.009275));
#602=CARTESIAN_POINT('',(-0.00570346060581505,-0.00301283206550239,0.));
#603=CARTESIAN_POINT('',(0.000296539394184949,-0.00326283206550238,-0.009525));
#604=CARTESIAN_POINT('',(0.00629653939418495,-0.00326283206550238,-0.009275));
#605=CARTESIAN_POINT('',(-0.00545346060581505,-0.00326283206550238,-0.009275));
#606=CARTESIAN_POINT('',(0.00604653939418495,-0.00326283206550238,-0.009275));
#607=CARTESIAN_POINT('',(0.00604653939418495,-0.00326283206550238,-0.009525));
#608=CARTESIAN_POINT('',(0.00604653939418495,-0.00326283206550238,0.));
#609=CARTESIAN_POINT('',(0.000296539394184949,-0.00326283206550238,0.));
#610=CARTESIAN_POINT('',(-0.00545346060581505,-0.00326283206550238,0.));
#611=CARTESIAN_POINT('',(-0.00545346060581505,-0.00326283206550238,-0.009525));
#612=CARTESIAN_POINT('',(0.00629653939418495,0.000237167934497616,-0.009525));
#613=CARTESIAN_POINT('',(0.00629653939418495,0.00373716793449762,-0.009275));
#614=CARTESIAN_POINT('',(0.00629653939418495,-0.00301283206550239,-0.009275));
#615=CARTESIAN_POINT('',(0.00629653939418495,0.00348716793449761,-0.009275));
#616=CARTESIAN_POINT('',(0.00629653939418495,0.00348716793449761,0.));
#617=CARTESIAN_POINT('',(0.00629653939418495,0.00348716793449761,0.));
#618=CARTESIAN_POINT('',(0.00629653939418495,0.000237167934497616,0.));
#619=CARTESIAN_POINT('',(0.00629653939418495,-0.00301283206550239,0.));
#620=CARTESIAN_POINT('',(0.00629653939418495,-0.00301283206550239,-0.009525));
#621=CARTESIAN_POINT('',(0.000296539394184948,0.00373716793449762,-0.009525));
#622=CARTESIAN_POINT('',(0.000296539394184948,0.00373716793449762,0.));
#623=CARTESIAN_POINT('',(-0.00545346060581505,0.00373716793449762,0.));
#624=CARTESIAN_POINT('',(0.00604653939418495,0.00373716793449762,0.));
#625=CARTESIAN_POINT('',(0.00604653939418495,0.00373716793449762,-0.009525));
#626=CARTESIAN_POINT('',(0.00604653939418495,0.00373716793449762,-0.009275));
#627=CARTESIAN_POINT('',(0.000296539394184948,0.00373716793449762,-0.009275));
#628=CARTESIAN_POINT('',(-0.00545346060581505,0.00373716793449762,-0.009275));
#629=CARTESIAN_POINT('',(-0.00545346060581505,0.00373716793449762,-0.009525));
#630=CARTESIAN_POINT('',(0.000296539394184947,0.000237167934497616,-0.009525));
#631=CARTESIAN_POINT('',(-0.00545346060581505,0.000237167934497615,-0.009525));
#632=CARTESIAN_POINT('',(-0.00545346060581505,-0.00301283206550239,-0.009525));
#633=CARTESIAN_POINT('',(-0.00545346060581505,0.00348716793449761,-0.009525));
#634=CARTESIAN_POINT('',(0.000296539394184947,0.00348716793449761,-0.009525));
#635=CARTESIAN_POINT('',(0.00604653939418495,0.00348716793449761,-0.009525));
#636=CARTESIAN_POINT('',(0.00604653939418495,-0.00326283206550238,-0.009525));
#637=CARTESIAN_POINT('',(0.00604653939418495,-0.00301283206550239,-0.009525));
#638=CARTESIAN_POINT('',(-0.00570346060581505,-0.00301283206550239,-0.009525));
#639=CARTESIAN_POINT('',(0.000296539394184947,0.000237167934497616,0.));
#640=CARTESIAN_POINT('',(0.00537653939418495,0.00277716793449762,0.));
#641=CARTESIAN_POINT('',(0.00562653133012299,0.00277515995891296,0.));
#642=CARTESIAN_POINT('',(-0.00478346060581505,0.00277716793449762,0.));
#643=CARTESIAN_POINT('',(-0.00453402115773455,0.00279389999179179,0.));
#644=CARTESIAN_POINT('',(-0.00224346060581505,0.00277716793449762,0.));
#645=CARTESIAN_POINT('',(-0.00199363659016477,0.00276778917102005,0.));
#646=CARTESIAN_POINT('',(-0.00224346060581505,-0.00230283206550239,0.));
#647=CARTESIAN_POINT('',(-0.00199363659016477,-0.00231221082897996,0.));
#648=CARTESIAN_POINT('',(0.00537653939418495,-0.00230283206550239,0.));
#649=CARTESIAN_POINT('',(0.00562653133012299,-0.00230484004108705,0.));
#650=CARTESIAN_POINT('',(-0.00478346060581505,-0.00230283206550239,0.));
#651=CARTESIAN_POINT('',(-0.00453346060581505,-0.00230283206550239,0.));
#652=CARTESIAN_POINT('',(0.00492153939418493,0.00486216793449763,0.));
#653=CARTESIAN_POINT('',(-0.00432846060581504,0.00486216793449762,0.));
#654=CARTESIAN_POINT('',(-0.00432846060581504,-0.00438783206550239,0.));
#655=CARTESIAN_POINT('',(0.00492153939418494,-0.00438783206550239,0.));
#656=CARTESIAN_POINT('',(-0.00478346060581505,-0.00230283206550239,0.003175));
#657=CARTESIAN_POINT('',(-0.00478346060581505,-0.00230283206550239,0.003175));
#658=CARTESIAN_POINT('',(-0.00453346060581505,-0.00230283206550239,0.003175));
#659=CARTESIAN_POINT('',(0.000296539394184947,0.000237167934497616,0.003175));
#660=CARTESIAN_POINT('',(0.00537653939418495,-0.00230283206550239,0.003175));
#661=CARTESIAN_POINT('',(0.00537653939418495,-0.00230283206550239,0.003175));
#662=CARTESIAN_POINT('',(0.00562653133012299,-0.00230484004108705,0.003175));
#663=CARTESIAN_POINT('',(0.000296539394184947,0.000237167934497616,0.003175));
#664=CARTESIAN_POINT('',(-0.00224346060581505,-0.00230283206550239,0.003175));
#665=CARTESIAN_POINT('',(-0.00224346060581505,-0.00230283206550239,0.003175));
#666=CARTESIAN_POINT('',(-0.00199363659016477,-0.00231221082897996,0.003175));
#667=CARTESIAN_POINT('',(0.000296539394184947,0.000237167934497616,0.003175));
#668=CARTESIAN_POINT('',(-0.00224346060581505,0.00277716793449762,0.003175));
#669=CARTESIAN_POINT('',(-0.00224346060581505,0.00277716793449762,0.003175));
#670=CARTESIAN_POINT('',(-0.00199363659016477,0.00276778917102005,0.003175));
#671=CARTESIAN_POINT('',(0.000296539394184947,0.000237167934497616,0.003175));
#672=CARTESIAN_POINT('',(-0.00478346060581505,0.00277716793449762,0.003175));
#673=CARTESIAN_POINT('',(-0.00478346060581505,0.00277716793449762,0.003175));
#674=CARTESIAN_POINT('',(-0.00453402115773455,0.00279389999179179,0.003175));
#675=CARTESIAN_POINT('',(0.000296539394184947,0.000237167934497616,0.003175));
#676=CARTESIAN_POINT('',(0.00537653939418495,0.00277716793449762,0.003175));
#677=CARTESIAN_POINT('',(0.00537653939418495,0.00277716793449762,0.003175));
#678=CARTESIAN_POINT('',(0.00562653133012299,0.00277515995891296,0.003175));
#679=CARTESIAN_POINT('',(0.000296539394184947,0.000237167934497616,0.003175));
#680=CARTESIAN_POINT('',(-0.00570346060581505,-0.00301283206550239,-0.009525));
#681=CARTESIAN_POINT('',(-0.00570346060581505,-0.00301283206550239,-0.009275));
#682=CARTESIAN_POINT('',(-0.00545346060581505,0.00373716793449762,-0.009525));
#683=CARTESIAN_POINT('',(-0.00557846060581505,0.00361216793449762,-0.009275));
#684=CARTESIAN_POINT('',(-0.00545346060581505,0.000237167934497615,-0.009525));
#685=CARTESIAN_POINT('',(-0.00570346060581505,-0.00301283206550239,-0.009275));
#686=CARTESIAN_POINT('',(-0.00545346060581505,0.00348716793449761,-0.009525));
#687=CARTESIAN_POINT('',(-0.00570346060581505,-0.00301283206550239,-0.009275));
#688=CARTESIAN_POINT('',(-0.00545346060581505,-0.00313783206550238,-0.0094));
#689=CARTESIAN_POINT('',(-0.00545346060581505,0.00348716793449761,-0.009525));
#690=CARTESIAN_POINT('',(-0.00545346060581505,0.00348716793449761,-0.009525));
#691=CARTESIAN_POINT('',(0.000296539394184949,-0.00326283206550238,-0.009275));
#692=CARTESIAN_POINT('',(0.00604653939418495,-0.00301283206550239,-0.009525));
#693=CARTESIAN_POINT('',(0.00604653939418495,-0.00326283206550238,-0.009525));
#694=CARTESIAN_POINT('',(0.00617153939418495,-0.00313783206550238,-0.009275));
#695=CARTESIAN_POINT('',(0.00629653939418495,0.00348716793449761,-0.009525));
#696=CARTESIAN_POINT('',(0.00629653939418495,0.00348716793449761,-0.009275));
#697=CARTESIAN_POINT('',(0.000296539394184947,0.00348716793449761,-0.009525));
#698=CARTESIAN_POINT('',(0.00604653939418495,0.00361216793449762,-0.0094));
#699=CARTESIAN_POINT('',(0.00604653939418495,-0.00301283206550239,-0.009525));
#700=CARTESIAN_POINT('',(0.00604653939418495,-0.00301283206550239,-0.009525));
#701=CARTESIAN_POINT('',(0.00629653939418495,0.00348716793449761,-0.009275));
#702=CARTESIAN_POINT('',(0.00629653939418495,0.00348716793449761,-0.009275));
#703=CARTESIAN_POINT('',(0.00629653939418495,0.000237167934497616,-0.009275));
#704=MECHANICAL_DESIGN_GEOMETRIC_PRESENTATION_REPRESENTATION('',(#417),
#705);
#705=(
GEOMETRIC_REPRESENTATION_CONTEXT(3)
GLOBAL_UNCERTAINTY_ASSIGNED_CONTEXT((#706))
GLOBAL_UNIT_ASSIGNED_CONTEXT((#709,#708,#707))
REPRESENTATION_CONTEXT('Part 1','TOP_LEVEL_ASSEMBLY_PART')
);
#706=UNCERTAINTY_MEASURE_WITH_UNIT(LENGTH_MEASURE(1.E-8),#709,
'DISTANCE_ACCURACY_VALUE','Maximum Tolerance applied to model');
#707=(
NAMED_UNIT(*)
SI_UNIT($,.STERADIAN.)
SOLID_ANGLE_UNIT()
);
#708=(
NAMED_UNIT(*)
PLANE_ANGLE_UNIT()
SI_UNIT($,.RADIAN.)
);
#709=(
LENGTH_UNIT()
NAMED_UNIT(*)
SI_UNIT($,.METRE.)
);
#710=PRODUCT_DEFINITION_SHAPE('','',#711);
#711=PRODUCT_DEFINITION('','',#713,#712);
#712=PRODUCT_DEFINITION_CONTEXT('',#719,'design');
#713=PRODUCT_DEFINITION_FORMATION_WITH_SPECIFIED_SOURCE('','',#715,
 .NOT_KNOWN.);
#714=PRODUCT_RELATED_PRODUCT_CATEGORY('','',(#715));
#715=PRODUCT('Part 1','Part 1','Part 1',(#717));
#716=PRODUCT_CATEGORY('','');
#717=PRODUCT_CONTEXT('',#719,'mechanical');
#718=APPLICATION_PROTOCOL_DEFINITION('international standard',
'ap242_managed_model_based_3d_engineering',2020,#719);
#719=APPLICATION_CONTEXT('managed model based 3d engineering');
ENDSEC;
END-ISO-10303-21;
